<?xml version="1.0" standalone="no"?>
<!DOCTYPE svg PUBLIC "-//W3C//DTD SVG 1.1//EN" "http://www.w3.org/Graphics/SVG/1.1/DTD/svg11.dtd" >
<svg xmlns="http://www.w3.org/2000/svg" xmlns:xlink="http://www.w3.org/1999/xlink" version="1.1">
<metadata>
Created by FontForge 20201107 at Sun Feb 12 10:56:39 2012
 By Unknown
</metadata>
<defs>
<font id="Pixelogist" horiz-adv-x="635" >
  <font-face 
    font-family="Pixelogist"
    font-weight="400"
    font-stretch="normal"
    units-per-em="1000"
    panose-1="2 0 0 0 0 0 0 0 0 0"
    ascent="750"
    descent="-250"
    x-height="642"
    cap-height="749"
    bbox="37 -351 1546 1128"
    underline-thickness="50"
    underline-position="-100"
    unicode-range="U+0020-FB02"
  />
<missing-glyph horiz-adv-x="0" 
 />
    <glyph glyph-name=".notdef" horiz-adv-x="0" 
 />
    <glyph glyph-name=".null" horiz-adv-x="0" 
 />
    <glyph glyph-name="nonmarkingreturn" horiz-adv-x="0" 
 />
    <glyph glyph-name="space" unicode=" " horiz-adv-x="500" 
 />
    <glyph glyph-name="E" unicode="E" 
d="M264 214h-57q-21 0 -35.5 -14.5t-14.5 -35.5v-7q0 -21 14.5 -35.5t35.5 -14.5h57h107h107h57q21 0 35.5 -14.5t14.5 -35.5v-7q0 -21 -14.5 -35.5t-35.5 -14.5h-57h-107h-107h-57q-21 0 -35.5 14.5t-14.5 35.5v7q0 21 -14.5 35.5t-35.5 14.5h-7q-21 0 -35.5 14.5
t-14.5 35.5v57v107v107v107v57q0 21 14.5 35.5t35.5 14.5h7q21 0 35.5 14.5t14.5 35.5v7q0 21 14.5 35.5t35.5 14.5h57h107h107h57q21 0 35.5 -14.5t14.5 -35.5v-7q0 -21 -14.5 -35.5t-35.5 -14.5h-57h-107h-107h-57q-21 0 -35.5 -14.5t-14.5 -35.5v-57v-107v-57
q0 -21 14.5 -35.5t35.5 -14.5h57h107h107h57q21 0 35.5 -14.5t14.5 -35.5v-7q0 -21 -14.5 -35.5t-35.5 -14.5h-57h-107h-107z" />
    <glyph glyph-name="F" unicode="F" 
d="M478 321h57q21 0 35.5 -14.5t14.5 -35.5v-7q0 -21 -14.5 -35.5t-35.5 -14.5h-57h-107h-107h-57q-21 0 -35.5 -14.5t-14.5 -35.5v-57v-57q0 -21 -14.5 -35.5t-35.5 -14.5h-7q-21 0 -35.5 14.5t-14.5 35.5v57v107v107v107v107v57q0 21 14.5 35.5t35.5 14.5h7
q21 0 35.5 14.5t14.5 35.5v7q0 21 14.5 35.5t35.5 14.5h57h107h107h57q21 0 35.5 -14.5t14.5 -35.5v-7q0 -21 -14.5 -35.5t-35.5 -14.5h-57h-107h-107h-57q-21 0 -35.5 -14.5t-14.5 -35.5v-57v-107v-57q0 -21 14.5 -35.5t35.5 -14.5h57h107h107z" />
    <glyph glyph-name="G" unicode="G" 
d="M585 585q0 -21 -15 -35.5t-35 -14.5h-7q-21 0 -35.5 14.5t-14.5 35.5v7q0 21 -15 35.5t-35 14.5h-57h-107h-57q-21 0 -35.5 -14.5t-14.5 -35.5v-57v-107v-107v-107v-57q0 -21 14.5 -35.5t35.5 -14.5h57h107h57q20 0 35 14.5t15 35.5v7q0 21 -15 35.5t-35 14.5h-57h-57
q-21 0 -35.5 14.5t-14.5 35.5v7q0 21 14.5 35.5t35.5 14.5h57h107h57q20 0 35 -14.5t15 -35.5v-57v-57q0 -21 -15 -35.5t-35 -14.5h-7q-21 0 -35.5 -14.5t-14.5 -35.5v-7q0 -21 -15 -35.5t-35 -14.5h-57h-107h-107h-57q-21 0 -35.5 14.5t-14.5 35.5v57v107v107v107v107v57
q0 21 14.5 35.5t35.5 14.5h7q21 0 35.5 14.5t14.5 35.5v7q0 21 14.5 35.5t35.5 14.5h57h107h57q20 0 35 -14.5t15 -35.5v-7q0 -21 14.5 -35.5t35.5 -14.5h7q20 0 35 -14.5t15 -35.5v-7v0z" />
    <glyph glyph-name="H" unicode="H" 
d="M478 642v57q0 21 14.5 35.5t35.5 14.5h7q21 0 35.5 -14.5t14.5 -35.5v-57v-107v-107v-107v-107v-107v-57q0 -21 -14.5 -35.5t-35.5 -14.5h-7q-21 0 -35.5 14.5t-14.5 35.5v57v57q0 21 -14.5 35.5t-35.5 14.5h-57h-107h-57q-21 0 -35.5 -15t-14.5 -35v-58v-57
q0 -21 -14.5 -35.5t-35.5 -14.5h-7q-21 0 -35.5 14.5t-14.5 35.5v57v107v107v108v107v107v57q0 21 14.5 35.5t35.5 14.5h7q21 0 35.5 -14.5t14.5 -35.5v-57v-107v-107v-57q0 -21 14.5 -35.5t35.5 -14.5h57h107h57q21 0 35.5 14.5t14.5 35.5v57v107v107z" />
    <glyph glyph-name="I" unicode="I" 
d="M478 107h57q21 0 35.5 -14.5t14.5 -35.5v-7q0 -21 -14.5 -35.5t-35.5 -14.5h-57h-107h-107h-107h-57q-21 0 -35.5 14.5t-14.5 35.5v7q0 21 14.5 35.5t35.5 14.5h57h57q21 0 35.5 14.5t14.5 35.5v57v107v107v107v57q0 21 -14.5 35.5t-35.5 14.5h-57h-57q-21 0 -35.5 14.5
t-14.5 35.5v7q0 21 14.5 35.5t35.5 14.5h57h107h107h107h57q21 0 35.5 -14.5t14.5 -35.5v-7q0 -21 -14.5 -35.5t-35.5 -14.5h-57h-57q-21 0 -35.5 -14.5t-14.5 -35.5v-57v-107v-107v-107v-57q0 -21 14.5 -35.5t35.5 -14.5h57z" />
    <glyph glyph-name="J" unicode="J" 
d="M478 749h57q21 0 35.5 -14.5t14.5 -35.5v-7q0 -21 -14.5 -35.5t-35.5 -14.5h-7q-21 0 -35.5 -14.5t-14.5 -35.5v-7v-100v-57v-107v-107v-57q0 -21 -14.5 -35.5t-35.5 -14.5h-7q-21 0 -35.5 -14.5t-14.5 -35.5v-7q0 -21 -14.5 -35.5t-35.5 -14.5h-57h-57q-21 0 -35.5 14.5
t-14.5 35.5v7q0 21 -14.5 35.5t-35.5 14.5h-7q-21 0 -35.5 14.5t-14.5 35.5v7q0 21 14.5 35.5t35.5 14.5h7q21 0 35.5 -14.5t14.5 -35.5v-6q0 -21 14.5 -35.5t35.5 -14.5h57h57q21 0 35.5 14.5t14.5 35.5v56v107v107v57v100v7q0 21 -14.5 35.5t-35.5 14.5h-57h-57
q-21 0 -35.5 14.5t-14.5 35.5v7q0 21 14.5 35.5t35.5 14.5h57h107h107z" />
    <glyph glyph-name="K" unicode="K" 
d="M535 749q21 0 35.5 -14.5t14.5 -35.5v-7v-100v-7q0 -21 -14.5 -35.5t-35.5 -14.5h-7q-21 0 -35.5 -14.5t-14.5 -35.5v-9q0 -21 -14.5 -35.5t-35.5 -14.5h-7q-21 0 -35.5 -14.5t-14.5 -35.5v-55v-56q0 -21 14.5 -35.5t35.5 -14.5h7q21 0 35.5 -14.5t14.5 -35.5v-8
q0 -21 14.5 -35.5t35.5 -14.5h7q21 0 35.5 -14.5t14.5 -35.5v-7q0 -21 -14.5 -35.5t-35.5 -14.5h-7q-21 0 -35.5 14.5t-14.5 35.5v7q0 21 -14.5 35.5t-35.5 14.5h-7q-21 0 -35.5 14.5t-14.5 35.5v7q0 21 -14.5 35.5t-35.5 14.5h-53h-61q-21 0 -35.5 -14.5t-14.5 -35.5v-57
v-57q0 -21 -14.5 -35.5t-35.5 -14.5h-7q-21 0 -35.5 14.5t-14.5 35.5v57v107v107v107v107v57v100v7q0 21 14.5 35.5t35.5 14.5h7q21 0 35.5 -14.5t14.5 -35.5v-7v-100v-57v-107v-57q0 -21 14.5 -35.5t35.5 -14.5h7q21 0 35.5 14.5t14.5 35.5v7q0 21 14.5 35.5t35.5 14.5h7
q21 0 35.5 14.5t14.5 35.5v7q0 21 14.5 35.5t35.5 14.5h7q21 0 35.5 14.5t14.5 35.5v7v100v7q0 21 14.5 35.5t35.5 14.5h7v0z" />
    <glyph glyph-name="L" unicode="L" 
d="M478 107h57q21 0 35.5 -14.5t14.5 -35.5v-7q0 -21 -14.5 -35.5t-35.5 -14.5h-57h-107h-107h-57q-21 0 -35.5 14.5t-14.5 35.5v7q0 21 -14.5 35.5t-35.5 14.5h-7q-21 0 -35.5 14.5t-14.5 35.5v57v107v107v107v57v100v7q0 21 14.5 35.5t35.5 14.5h7q21 0 35.5 -14.5
t14.5 -35.5v-57v-107v-107v-107v-107v-57q0 -21 14.5 -35.5t35.5 -14.5h57h107h107z" />
    <glyph glyph-name="M" unicode="M" horiz-adv-x="848" 
d="M741 749h7q21 0 35.5 -14.5t14.5 -35.5v-57v-107v-107v-107v-107v-107v-57q0 -21 -14.5 -35.5t-35.5 -14.5h-7q-20 0 -35 14.5t-15 35.5v57v107v107v107v107v57q0 21 -14.5 35.5t-35.5 14.5h-6q-21 0 -35.5 -14.5t-14.5 -35.5v-7q0 -21 -14.5 -35.5t-35.5 -14.5h-7
q-21 0 -35.5 -14.5t-14.5 -35.5v-57v-107v-107v-107v-57q0 -21 -14.5 -35.5t-35.5 -14.5h-7q-21 0 -35.5 14.5t-14.5 35.5v57v107v107v107v57q0 21 -14.5 35.5t-35.5 14.5h-7q-21 0 -35.5 14.5t-14.5 35.5v7q0 21 -14.5 35.5t-35.5 14.5h-7q-21 0 -35.5 -14.5t-14.5 -35.5
v-57v-107v-107v-107v-107v-57q0 -21 -14.5 -35.5t-35.5 -14.5h-7q-21 0 -35.5 14.5t-14.5 35.5v57v107v107v107v57v100v57v57q0 21 14.5 35.5t35.5 14.5h57h57q21 0 35.5 -14.5t14.5 -35.5v-4q0 -20 14.5 -35t35.5 -15h7q21 0 35.5 -14.5t14.5 -35.5v-9q0 -21 14.5 -35.5
t35.5 -14.5h7q21 0 35.5 14.5t14.5 35.5v9q0 21 14.5 35.5t35.5 14.5h6q21 0 35.5 15t14.5 35v4q0 21 15 35.5t35 14.5h7h100z" />
    <glyph glyph-name="N" unicode="N" 
d="M478 642v57q0 21 14.5 35.5t35.5 14.5h7q21 0 35.5 -14.5t14.5 -35.5v-57v-107v-107v-107v-107v-107v-57q0 -21 -14.5 -35.5t-35.5 -14.5h-7q-21 0 -35.5 14.5t-14.5 35.5v57v57q0 21 -9.5 35.5t-34.5 14.5h-13q-21 0 -35.5 14.5t-14.5 35.5v7q0 21 -14.5 35.5
t-35.5 14.5h-8q-21 0 -35.5 14.5t-14.5 35.5v7q0 21 -15 35.5t-35 14.5h-13q-24 0 -33.5 -14.5t-9.5 -35.5v-57v-107v-107v-57q0 -21 -14.5 -35.5t-35.5 -14.5h-7q-21 0 -35.5 14.5t-14.5 35.5v57v107v107v107v107v107v57q0 21 14.5 35.5t35.5 14.5h7q21 0 35.5 -14.5
t14.5 -35.5v-57v-57q0 -21 14.5 -35.5t35.5 -14.5h7q21 0 35.5 -14.5t14.5 -35.5v-6q0 -20 14.5 -35t35.5 -15h7q21 0 35.5 -14.5t14.5 -35.5v-8q0 -21 14.5 -35.5t35.5 -14.5h7q21 0 35.5 14.5t14.5 35.5v57v107v107z" />
    <glyph glyph-name="O" unicode="O" 
d="M478 692q0 -21 14.5 -35.5t35.5 -14.5h7q21 0 35.5 -14.5t14.5 -35.5v-57v-107v-107v-107v-59q0 -21 -14.5 -35.5t-35.5 -14.5h-5q-20 0 -35 -15t-15 -35v-5q0 -21 -14.5 -35.5t-35.5 -14.5h-59h-107h-57q-21 0 -35.5 14.5t-14.5 35.5v6q0 21 -14.5 35.5t-35.5 14.5h-7
q-21 0 -35.5 14.5t-14.5 35.5v57v107v108v107v57q0 21 14.5 35.5t35.5 14.5h7q21 0 35.5 14.5t14.5 35.5v7q0 21 14.5 35.5t35.5 14.5h57h107h57q21 0 35.5 -14.5t14.5 -35.5v-7zM478 428v107v57q0 21 -14.5 35.5t-35.5 14.5h-57h-107h-57q-21 0 -35.5 -14.5t-14.5 -35.5
v-57v-107v-108v-107v-56q0 -21 14.5 -35.5t35.5 -14.5h57h107h57q21 0 35.5 14.5t14.5 35.5v57v107v107z" />
    <glyph glyph-name="P" unicode="P" 
d="M478 699q0 -21 14.5 -35.5t35.5 -14.5h7q21 0 35.5 -14.5t14.5 -35.5v-58v-108v-58q0 -21 -14.5 -35.5t-35.5 -14.5h-7q-21 0 -35.5 -14.5t-14.5 -35.5v-8q0 -21 -14.5 -35.5t-35.5 -14.5h-57h-107h-57h-50v-1v-108v-58q0 -21 -14.5 -35.5t-35.5 -14.5h-7
q-21 0 -35.5 14.5t-14.5 35.5v58v108v108v109v108v58q0 21 14.5 35.5t35.5 14.5h7q21 0 35.5 14.5t14.5 35.5v8q0 21 14.5 35.5t35.5 14.5h57h107h57q21 0 35.5 -14.5t14.5 -35.5v-8zM478 433v108v58q0 21 -14.5 35.5t-35.5 14.5h-57h-107h-57q-21 0 -35.5 -14.5
t-14.5 -35.5v-58v-108v-58q0 -21 14.5 -35.5t35.5 -14.5h57h107h57q21 0 35.5 14.5t14.5 35.5v58z" />
    <glyph glyph-name="Q" unicode="Q" 
d="M478 692q0 -21 14.5 -35.5t35.5 -14.5h7q21 0 35.5 -14.5t14.5 -35.5v-57v-107v-107v-57q0 -21 -14.5 -35.5t-35.5 -14.5h-7q-21 0 -35.5 -14.5t-14.5 -35.5v-7q0 -21 14.5 -35.5t35.5 -14.5h7q21 0 35.5 -14.5t14.5 -35.5v-7q0 -21 -14.5 -35.5t-35.5 -14.5h-7
q-21 0 -35.5 14.5t-14.5 35.5v6q0 21 -14.5 35.5t-35.5 14.5h-3q-21 0 -35.5 -14.5t-14.5 -35.5v-6q0 -21 -14.5 -35.5t-35.5 -14.5h-61h-57q-21 0 -35.5 14.5t-14.5 35.5v6q0 21 -14.5 35.5t-35.5 14.5h-7q-21 0 -35.5 14.5t-14.5 35.5v57v107v108v107v57q0 21 14.5 35.5
t35.5 14.5h7q21 0 35.5 14.5t14.5 35.5v7q0 21 14.5 35.5t35.5 14.5h57h107h57q21 0 35.5 -14.5t14.5 -35.5v-7zM478 428v107v57q0 21 -14.5 35.5t-35.5 14.5h-57h-107h-57q-21 0 -35.5 -14.5t-14.5 -35.5v-57v-107v-108v-107v-56q0 -21 14.5 -35.5t35.5 -14.5h57h57
q21 0 35.5 14.5t14.5 35.5v6q0 21 -14.5 35.5t-35.5 14.5h-7q-21 0 -35.5 14.5t-14.5 35.5v8q0 21 14.5 35.5t35.5 14.5h11q21 0 35.5 -14.5t14.5 -35.5v-7q0 -21 14.5 -35.5t35.5 -14.5h3q21 0 35.5 14.5t14.5 35.5v57v107z" />
    <glyph glyph-name="R" unicode="R" 
d="M478 692q0 -21 14.5 -35.5t35.5 -14.5h7q21 0 35.5 -14.5t14.5 -35.5v-57v-107v-57q0 -21 -14.5 -35.5t-35.5 -14.5h-7q-21 0 -35.5 -14.5t-14.5 -35.5v-7q0 -21 14.5 -35.5t35.5 -14.5h7q21 0 35.5 -14.5t14.5 -35.5v-57v-57q0 -21 -14.5 -35.5t-35.5 -14.5h-7
q-21 0 -35.5 14.5t-14.5 35.5v57v57q0 21 -14.5 35.5t-35.5 14.5h-57h-107h-57h-50v-1v-107v-57q0 -21 -14.5 -35.5t-35.5 -14.5h-7q-21 0 -35.5 14.5t-14.5 35.5v57v107v107v108v107v57q0 21 14.5 35.5t35.5 14.5h7q21 0 35.5 14.5t14.5 35.5v7q0 21 14.5 35.5t35.5 14.5
h57h107h57q21 0 35.5 -14.5t14.5 -35.5v-7zM478 428v107v57q0 21 -14.5 35.5t-35.5 14.5h-57h-107h-57q-21 0 -35.5 -14.5t-14.5 -35.5v-57v-107v-57q0 -21 14.5 -35.5t35.5 -14.5h57h107h57q21 0 35.5 14.5t14.5 35.5v57z" />
    <glyph glyph-name="S" unicode="S" 
d="M585 586q0 -21 -14.5 -35.5t-35.5 -14.5h-7q-21 0 -35.5 14.5t-14.5 35.5v7q0 21 -14.5 35.5t-35.5 14.5h-57h-107h-57q-21 0 -35.5 -14.5t-14.5 -35.5v-57v-57q0 -21 14.5 -35.5t35.5 -14.5h57h107h57q21 0 35.5 -14.5t14.5 -35.5v-7q0 -21 14.5 -35.5t35.5 -14.5h7
q21 0 35.5 -14.5t14.5 -35.5v-57v-1v-57q0 -21 -14.5 -35.5t-35.5 -14.5h-7q-21 0 -35.5 -14.5t-14.5 -35.5v-7q0 -21 -14.5 -35.5t-35.5 -14.5h-57h-107h-57q-21 0 -35.5 14.5t-14.5 35.5v7q0 21 -14.5 35.5t-35.5 14.5h-7q-21 0 -35.5 14.5t-14.5 35.5v8q0 21 14.5 35.5
t35.5 14.5h7q21 0 35.5 -14.5t14.5 -35.5v-7q0 -21 14.5 -35.5t35.5 -14.5h57h107h57q21 0 35.5 14.5t14.5 35.5v56v1v56q0 21 -14.5 35.5t-35.5 14.5h-57h-107h-57q-21 0 -35.5 14.5t-14.5 35.5v8q0 21 -14.5 35.5t-35.5 14.5h-7q-21 0 -35.5 14.5t-14.5 35.5v57v57
q0 21 14.5 35.5t35.5 14.5h7q21 0 35.5 14.5t14.5 35.5v7q0 21 14.5 35.5t35.5 14.5h57h107h57q21 0 35.5 -14.5t14.5 -35.5v-7q0 -21 14.5 -35.5t35.5 -14.5h7q21 0 35.5 -14.5t14.5 -35.5v-7v0z" />
    <glyph glyph-name="T" unicode="T" 
d="M478 749h57q21 0 35.5 -14.5t14.5 -35.5v-7q0 -21 -14.5 -35.5t-35.5 -14.5h-57h-57q-21 0 -35.5 -14.5t-14.5 -35.5v-57v-107v-107v-107v-107v-57q0 -21 -14.5 -35.5t-35.5 -14.5h-7q-21 0 -35.5 14.5t-14.5 35.5v57v107v107v107v107v57q0 21 -14.5 35.5t-35.5 14.5h-57
h-57q-21 0 -35.5 14.5t-14.5 35.5v7q0 21 14.5 35.5t35.5 14.5h57h107h107h107z" />
    <glyph glyph-name="U" unicode="U" 
d="M478 699q0 21 14.5 35.5t35.5 14.5h7q21 0 35.5 -14.5t14.5 -35.5v-57v-107v-107v-107v-107v-57q0 -21 -14.5 -35.5t-35.5 -14.5h-5q-21 0 -35.5 -14.5t-14.5 -35.5v-7q0 -21 -15 -35.5t-35 -14.5h-59h-107h-57q-21 0 -35.5 14.5t-14.5 35.5v7q0 21 -14.5 35.5
t-35.5 14.5h-7q-21 0 -35.5 14.5t-14.5 35.5v57v107v107v107v107v57q0 21 14.5 35.5t35.5 14.5h7q21 0 35.5 -14.5t14.5 -35.5v-57v-107v-107v-107v-107v-57q0 -21 14.5 -35.5t35.5 -14.5h57h107h57q21 0 35.5 14.5t14.5 35.5v57v107v107v107v107v57v0z" />
    <glyph glyph-name="V" unicode="V" 
d="M478 699q0 21 14.5 35.5t35.5 14.5h7q20 0 35 -14.5t15 -35.5v-57v-107v-57q0 -21 -15 -35.5t-35 -14.5h-7q-21 0 -35.5 -14.5t-14.5 -35.5v-57v-107v-57q0 -21 -15 -35.5t-35 -14.5h-3q-21 0 -35.5 -14.5t-14.5 -35.5v-7q0 -21 -15 -35.5t-35 -14.5h-11
q-21 0 -35.5 14.5t-14.5 35.5v7q0 21 -15 35.5t-35 14.5h-7q-21 0 -35.5 14.5t-14.5 35.5v57v107v57q0 21 -15 35.5t-35 14.5h-7q-21 0 -35.5 14.5t-14.5 35.5v57v107v57q0 21 14.5 35.5t35.5 14.5h7q20 0 35 -14.5t15 -35.5v-57v-107v-57q0 -21 14.5 -35.5t35.5 -14.5h7
q20 0 35 -14.5t15 -35.5v-57v-107v-57q0 -21 14.5 -35.5t35.5 -14.5h7q20 0 35 14.5t15 35.5v57v107v57q0 21 14.5 35.5t35.5 14.5h7q20 0 35 14.5t15 35.5v57v107v57v0z" />
    <glyph glyph-name="W" unicode="W" horiz-adv-x="848" 
d="M641 0h-7q-20 0 -35 14.5t-15 35.5v3q0 21 -14.5 35.5t-35.5 14.5h-6q-21 0 -35.5 15t-14.5 35v10q0 21 -15 35.5t-35 14.5h-7q-21 0 -35.5 -14.5t-14.5 -35.5v-10q0 -20 -15 -35t-35 -15h-7q-21 0 -35.5 -14.5t-14.5 -35.5v-3q0 -21 -15 -35.5t-35 -14.5h-57h-57
q-21 0 -35.5 14.5t-14.5 35.5v57v57v100v57v107v107v107v57q0 21 14.5 35.5t35.5 14.5h7q20 0 35 -14.5t15 -35.5v-57v-107v-107v-107v-107v-57q0 -21 14.5 -35.5t35.5 -14.5h7q20 0 35 14.5t15 35.5v7q0 20 14.5 35t35.5 15h7q20 0 35 14.5t15 35.5v57v107v107v107v57
q0 20 14.5 35t35.5 15h7q20 0 35 -15t15 -35v-57v-107v-107v-107v-57q0 -21 14.5 -35.5t35.5 -14.5h7q20 0 35 -15t15 -35v-7q0 -21 14.5 -35.5t35.5 -14.5h6q21 0 35.5 14.5t14.5 35.5v57v107v107v107v107v57q0 21 15 35.5t35 14.5h7q21 0 35.5 -14.5t14.5 -35.5v-57v-107
v-107v-107v-107v-107v-57q0 -21 -14.5 -35.5t-35.5 -14.5h-7h-100z" />
    <glyph glyph-name="X" unicode="X" 
d="M476 699q0 21 15 35.5t35 14.5h9q20 0 35 -14.5t15 -35.5v-8v-100v-7q0 -21 -15 -35.5t-35 -14.5h-7q-21 0 -35.5 -15t-14.5 -35v-6q0 -21 -15 -35.5t-35 -14.5h-7q-21 0 -35.5 -14.5t-14.5 -35.5v-57v-57q0 -21 14.5 -35.5t35.5 -14.5h7q20 0 35 -14.5t15 -35.5v-7
q0 -21 14.5 -35.5t35.5 -14.5h7q20 0 35 -14.5t15 -35.5v-7q0 -21 -15 -35.5t-35 -14.5h-7q-21 0 -35.5 14.5t-14.5 35.5v2q0 21 -15 35.5t-35 14.5h-7q-21 0 -35.5 15t-14.5 35v12q0 21 -15 35.5t-35 14.5h-7q-20 0 -35 -14.5t-15 -35.5v-12q0 -20 -14.5 -35t-35.5 -15h-7
q-20 0 -35 -14.5t-15 -35.5v-2q0 -21 -14.5 -35.5t-35.5 -14.5h-7q-20 0 -35 14.5t-15 35.5v7q0 21 15 35.5t35 14.5h7q21 0 35.5 14.5t14.5 35.5v7q0 21 15 35.5t35 14.5h7q20 0 35 14.5t15 35.5v57v57q0 21 -15 35.5t-35 14.5h-7q-21 0 -35.5 14.5t-14.5 35.5v6
q0 20 -15 35t-35 15h-7q-21 0 -35.5 14.5t-14.5 35.5v7v100v8q0 21 14.5 35.5t35.5 14.5h8q21 0 35.5 -14.5t14.5 -35.5v-8v-100v-6q0 -21 15 -35.5t35 -14.5h6q20 0 35 -14.5t15 -35.5v-7q0 -21 14.5 -35.5t35.5 -14.5h7q20 0 35 14.5t15 35.5v7q0 21 14.5 35.5t35.5 14.5
h5q21 0 35.5 14.5t14.5 35.5v6v100v8v0z" />
    <glyph glyph-name="Y" unicode="Y" 
d="M478 699q0 21 14.5 35.5t35.5 14.5h7q20 0 35 -14.5t15 -35.5v-57v-107v-57q0 -21 -15 -35.5t-35 -14.5h-7q-21 0 -35.5 -14.5t-14.5 -35.5v-7q0 -21 -15 -35.5t-35 -14.5h-7q-21 0 -35.5 -14.5t-14.5 -35.5v-57v-57q0 -21 14.5 -35.5t35.5 -14.5h7q20 0 35 -14.5
t15 -35.5v-7q0 -21 -15 -35.5t-35 -14.5h-57h-107h-57q-21 0 -35.5 14.5t-14.5 35.5v7q0 21 14.5 35.5t35.5 14.5h7q20 0 35 14.5t15 35.5v57v57q0 20 -15 35t-35 15h-7q-21 0 -35.5 14.5t-14.5 35.5v7q0 20 -15 35t-35 15h-7q-21 0 -35.5 14.5t-14.5 35.5v57v107v57
q0 20 14.5 35t35.5 15h7q20 0 35 -15t15 -35v-57v-107v-57q0 -21 14.5 -35.5t35.5 -14.5h7q20 0 35 -15t15 -35v-7q0 -21 14.5 -35.5t35.5 -14.5h7q20 0 35 14.5t15 35.5v7q0 21 14.5 35.5t35.5 14.5h7q20 0 35 14.5t15 35.5v57v107v57v0z" />
    <glyph glyph-name="Z" unicode="Z" 
d="M478 749h57q20 0 35 -14.5t15 -35.5v-57v-57q0 -21 -15 -35.5t-35 -14.5h-7q-21 0 -35.5 -14.5t-14.5 -35.5v-7q0 -21 -15 -35.5t-35 -14.5h-7q-21 0 -35.5 -14.5t-14.5 -35.5v-7q0 -21 -15 -35.5t-35 -14.5h-7q-21 0 -35.5 -14.5t-14.5 -35.5v-7q0 -21 -15 -35.5
t-35 -14.5h-7q-21 0 -35.5 -14.5t-14.5 -35.5v-7q0 -21 14.5 -35.5t35.5 -14.5h57h107h107h57q20 0 35 -14.5t15 -35.5v-7q0 -21 -15 -35.5t-35 -14.5h-57h-107h-107h-107h-57q-21 0 -35.5 14.5t-14.5 35.5v57v57q0 21 14.5 35.5t35.5 14.5h7q20 0 35 14.5t15 35.5v7
q0 21 14.5 35.5t35.5 14.5h7q20 0 35 14.5t15 35.5v7q0 21 14.5 35.5t35.5 14.5h7q20 0 35 14.5t15 35.5v7q0 21 14.5 35.5t35.5 14.5h7q20 0 35 14.5t15 35.5v7q0 21 -15 35.5t-35 14.5h-57h-107h-107h-57q-21 0 -35.5 14.5t-14.5 35.5v7q0 21 14.5 35.5t35.5 14.5h57h107
h107h107z" />
    <glyph glyph-name="a" unicode="a" 
d="M478 585q0 -21 14.5 -35.5t35.5 -14.5h7q21 0 35.5 -14.5t14.5 -35.5v-57v-107v-107v-107v-57q0 -21 -14.5 -35.5t-35.5 -14.5h-57h-107h-107h-58q-20 0 -35 14.5t-15 35.5v6q0 21 -14.5 35.5t-35.5 14.5h-6q-21 0 -35.5 14.5t-14.5 35.5v57v58q0 21 14.5 35.5t35.5 14.5
h57h107h107h57q21 0 35.5 14.5t14.5 35.5v57v57q0 21 -14.5 35.5t-35.5 14.5h-57h-107h-57q-21 0 -35.5 -14.5t-14.5 -35.5v-7q0 -21 -14.5 -35.5t-35.5 -14.5h-7q-21 0 -35.5 14.5t-14.5 35.5v8q0 20 14.5 35t35.5 15h7q21 0 35.5 14.5t14.5 35.5v6q0 21 14.5 35.5
t35.5 14.5h57h107h57q21 0 35.5 -14.5t14.5 -35.5v-7zM428 107q21 0 35.5 14.5t14.5 35.5v7q0 21 -14.5 35.5t-35.5 14.5h-57h-107h-57h-35.5t-14.5 -1v-56q0 -21 14.5 -35.5t35.5 -14.5h57h107h57z" />
    <glyph glyph-name="b" unicode="b" 
d="M478 585q0 -21 14.5 -35.5t35.5 -14.5h7q21 0 35.5 -14.5t14.5 -35.5v-57v-107v-107v-57q0 -21 -14.5 -35.5t-35.5 -14.5h-7q-21 0 -35.5 -14.5t-14.5 -35.5v-7q0 -21 -14.5 -35.5t-35.5 -14.5h-57h-107h-107h-57q-21 0 -35.5 14.5t-14.5 35.5v57v107v107v107v107v107
v107v57q0 21 14.5 35.5t35.5 14.5h7q21 0 35.5 -14.5t14.5 -35.5v-57v-57q0 -21 14.5 -35.5t35.5 -14.5h57h107h57q21 0 35.5 -14.5t14.5 -35.5v-7zM478 428v57q0 21 -14.5 35.5t-35.5 14.5h-57h-107h-57q-21 0 -35.5 -14.5t-14.5 -35.5v-57v-107v-107v-57q0 -21 14.5 -35.5
t35.5 -14.5h57h107h57q21 0 35.5 14.5t14.5 35.5v57v107v107z" />
    <glyph glyph-name="c" unicode="c" 
d="M585 478q0 -21 -14.5 -35.5t-35.5 -14.5h-7q-21 0 -35.5 14.5t-14.5 35.5v7q0 21 -14.5 35.5t-35.5 14.5h-57h-107h-57q-21 0 -35.5 -14.5t-14.5 -35.5v-57v-107v-107v-57q0 -21 14.5 -35.5t35.5 -14.5h57h107h57q21 0 35.5 14.5t14.5 35.5v7q0 21 14.5 35.5t35.5 14.5h7
q21 0 35.5 -14.5t14.5 -35.5v-7q0 -21 -14.5 -35.5t-35.5 -14.5h-7q-21 0 -35.5 -14.5t-14.5 -35.5v-7q0 -21 -14.5 -35.5t-35.5 -14.5h-57h-107h-107h-57q-21 0 -35.5 14.5t-14.5 35.5v57v107v107v107v57q0 21 14.5 35.5t35.5 14.5h7q21 0 35.5 14.5t14.5 35.5v7
q0 21 14.5 35.5t35.5 14.5h57h107h57q21 0 35.5 -14.5t14.5 -35.5v-7q0 -21 14.5 -35.5t35.5 -14.5h7q21 0 35.5 -14.5t14.5 -35.5v-7v0z" />
    <glyph glyph-name="d" unicode="d" 
d="M478 806q0 21 14.5 35.5t35.5 14.5h7q21 0 35.5 -14.5t14.5 -35.5v-57v-107v-107v-107v-107v-107v-107v-57q0 -21 -14.5 -35.5t-35.5 -14.5h-57h-107h-107h-57q-21 0 -35.5 14.5t-14.5 35.5v7q0 21 -14.5 35.5t-35.5 14.5h-7q-21 0 -35.5 14.5t-14.5 35.5v57v107v107v57
q0 21 14.5 35.5t35.5 14.5h7q21 0 35.5 14.5t14.5 35.5v7q0 21 14.5 35.5t35.5 14.5h57h107h57q21 0 35.5 14.5t14.5 35.5v57v57zM478 428v57q0 21 -14.5 35.5t-35.5 14.5h-57h-107h-57q-21 0 -35.5 -14.5t-14.5 -35.5v-57v-107v-107v-57q0 -21 14.5 -35.5t35.5 -14.5h57
h107h57q21 0 35.5 14.5t14.5 35.5v57v107v107z" />
    <glyph glyph-name="e" unicode="e" 
d="M535 214q21 0 35.5 -14.5t14.5 -35.5v-7q0 -21 -14.5 -35.5t-35.5 -14.5h-7q-21 0 -35.5 -14.5t-14.5 -35.5v-7q0 -21 -14.5 -35.5t-35.5 -14.5h-57h-107h-57q-21 0 -35.5 14.5t-14.5 35.5v7q0 21 -14.5 35.5t-35.5 14.5h-7q-21 0 -35.5 14.5t-14.5 35.5v57v107v107v57
q0 21 14.5 35.5t35.5 14.5h5q21 0 35.5 14.5t14.5 35.5v7q0 21 15 35.5t35 14.5h59h107h57q21 0 35.5 -14.5t14.5 -35.5v-6q0 -21 14.5 -35.5t35.5 -14.5h7q21 0 35.5 -14.5t14.5 -35.5v-57v-57q0 -21 -14.5 -35.5t-35.5 -14.5h-7h-35.5t-14.5 -1h-50h-57h-107h-57
q-21 0 -35.5 -14.5t-14.5 -35.5v-57v-57q0 -21 14.5 -35.5t35.5 -14.5h57h107h57q21 0 35.5 14.5t14.5 35.5v7q0 21 14.5 35.5t35.5 14.5h7zM207 535q-21 0 -35.5 -14.5t-14.5 -35.5v-7q0 -21 14.5 -35.5t35.5 -14.5h57h107h57h50v1v56q0 21 -14.5 35.5t-35.5 14.5h-57h-107
h-57z" />
    <glyph glyph-name="f" unicode="f" 
d="M585 692q0 -21 -14.5 -35.5t-35.5 -14.5h-7q-21 0 -35.5 14.5t-14.5 35.5v7q0 21 -14.5 35.5t-35.5 14.5h-57h-57q-21 0 -35.5 -14.5t-14.5 -35.5v-57v-107v-107v-107h107h107h57q21 0 35.5 -14.5t14.5 -35.5v-7q0 -21 -14.5 -35.5t-35.5 -14.5h-57h-107h-57
q-21 0 -35.5 -14.5t-14.5 -35.5v-57v-57q0 -21 -14.5 -35.5t-35.5 -14.5h-7q-21 0 -35.5 14.5t-14.5 35.5v57v57q0 21 -14.5 35.5t-35.5 14.5h-7q-21 0 -35.5 14.5t-14.5 35.5v7q0 21 14.5 35.5t35.5 14.5h7q21 0 35.5 14.5t14.5 35.5v57v107v107v57q0 21 14.5 35.5
t35.5 14.5h7q21 0 35.5 14.5t14.5 35.5v7q0 21 14.5 35.5t35.5 14.5h57h57q21 0 35.5 -14.5t14.5 -35.5v-7q0 -21 14.5 -35.5t35.5 -14.5h7q21 0 35.5 -14.5t14.5 -35.5v-7v0z" />
    <glyph glyph-name="g" unicode="g" 
d="M478 585q0 -21 14.5 -35.5t35.5 -14.5h7q21 0 35.5 -14.5t14.5 -35.5v-57v-107v-107v-57v-100v-7v-100v-7q0 -21 -14.5 -35.5t-35.5 -14.5h-7q-21 0 -35.5 -14.5t-14.5 -35.5v-7q0 -21 -14.5 -35.5t-35.5 -14.5h-57h-107h-107h-57q-21 0 -35.5 14.5t-14.5 35.5v7
q0 21 14.5 35.5t35.5 14.5h57h107h107h57q21 0 35.5 14.5t14.5 35.5v7q0 21 -14.5 35.5t-35.5 14.5h-57h-107h-57q-21 0 -35.5 14.5t-14.5 35.5v7q0 21 -14.5 35.5t-35.5 14.5h-7q-21 0 -35.5 14.5t-14.5 35.5v57v107v107v57q0 21 14.5 35.5t35.5 14.5h7q21 0 35.5 14.5
t14.5 35.5v7q0 21 14.5 35.5t35.5 14.5h57h107h57q21 0 35.5 -14.5t14.5 -35.5v-7zM478 428v57q0 21 -14.5 35.5t-35.5 14.5h-57h-107h-57q-21 0 -35.5 -14.5t-14.5 -35.5v-57v-107v-107v-57q0 -21 14.5 -35.5t35.5 -14.5h57h107h57q21 0 35.5 14.5t14.5 35.5v57v107v107z
" />
    <glyph glyph-name="h" unicode="h" 
d="M479 585q0 -21 14.5 -35.5t35.5 -14.5h6q21 0 35.5 -14.5t14.5 -35.5v-57v-107v-107v-107v-57q0 -21 -14.5 -35.5t-35.5 -14.5h-7q-21 0 -35.5 14.5t-14.5 35.5v57v107v107v107v57q0 21 -14.5 35.5t-35.5 14.5h-57h-107h-57q-21 0 -35.5 -14.5t-14.5 -35.5v-57v-107v-107
v-107v-57q0 -21 -14.5 -35.5t-35.5 -14.5h-7q-21 0 -35.5 14.5t-14.5 35.5v57v107v107v107v107v107v107v57q0 21 14.5 35.5t35.5 14.5h7q21 0 35.5 -14.5t14.5 -35.5v-57v-57q0 -21 14.5 -35.5t35.5 -14.5h57h107h58q21 0 35.5 -14.5t14.5 -35.5v-7v0z" />
    <glyph glyph-name="i" unicode="i" 
d="M321 857q21 0 35.5 -14.5t14.5 -35.5v-7q0 -21 -14.5 -35.5t-35.5 -14.5h-7q-21 0 -35.5 14.5t-14.5 35.5v7q0 21 14.5 35.5t35.5 14.5h7zM478 107h57q21 0 35.5 -14.5t14.5 -35.5v-7q0 -21 -14.5 -35.5t-35.5 -14.5h-57h-107h-107h-107h-57q-21 0 -35.5 14.5t-14.5 35.5
v7q0 21 14.5 35.5t35.5 14.5h57h57q21 0 35.5 14.5t14.5 35.5v57v107v165q0 21 -14.5 35.5t-35.5 14.5h-7q-21 0 -35.5 14.5t-14.5 35.5v7q0 21 14.5 35.5t35.5 14.5h57h107h57q21 0 35.5 -14.5t14.5 -35.5v-7q0 -21 -14.5 -35.5t-35.5 -14.5h-7q-21 0 -35.5 -14.5
t-14.5 -35.5v-165v-107v-57q0 -21 14.5 -35.5t35.5 -14.5h57z" />
    <glyph glyph-name="j" unicode="j" 
d="M478 806q0 21 14.5 35.5t35.5 14.5h7q21 0 35.5 -14.5t14.5 -35.5v-7q0 -21 -14.5 -35.5t-35.5 -14.5h-7q-21 0 -35.5 14.5t-14.5 35.5v7zM528 642h7q21 0 35.5 -14.5t14.5 -35.5v-57v-211v-107v-57v-100v-7v-100v-7q0 -21 -14.5 -35.5t-35.5 -14.5h-7q-21 0 -35.5 -14.5
t-14.5 -35.5v-7q0 -21 -14.5 -35.5t-35.5 -14.5h-57h-107h-57q-21 0 -35.5 14.5t-14.5 35.5v7q0 21 -14.5 35.5t-35.5 14.5h-7q-21 0 -35.5 14.5t-14.5 35.5v7q0 21 14.5 35.5t35.5 14.5h7q21 0 35.5 -14.5t14.5 -35.5v-7q0 -21 14.5 -35.5t35.5 -14.5h57h107h57
q21 0 35.5 14.5t14.5 35.5v7v100v7v100v57v107v161q0 21 -14.5 35.5t-35.5 14.5h-7q-21 0 -35.5 14.5t-14.5 35.5v7q0 21 14.5 35.5t35.5 14.5h7h100z" />
    <glyph glyph-name="k" unicode="k" 
d="M371 321v-57q0 -21 14.5 -35.5t35.5 -14.5h7q21 0 35.5 -14.5t14.5 -35.5v-7q0 -21 14.5 -35.5t35.5 -14.5h7q21 0 35.5 -14.5t14.5 -35.5v-7q0 -21 -14.5 -35.5t-35.5 -14.5h-7q-21 0 -35.5 14.5t-14.5 35.5v7q0 21 -14.5 35.5t-35.5 14.5h-7q-21 0 -35.5 14.5
t-14.5 35.5v7q0 21 -14.5 35.5t-35.5 14.5h-7q-21 0 -35.5 14.5t-14.5 35.5v7q0 21 -14.5 35.5t-35.5 14.5h-7q-21 0 -35.5 -14.5t-14.5 -35.5v-57v-107v-57q0 -21 -14.5 -35.5t-35.5 -14.5h-7q-21 0 -35.5 14.5t-14.5 35.5v57v107v107v107v107v107v165q0 21 14.5 35.5
t35.5 14.5h7q21 0 35.5 -14.5t14.5 -35.5v-7v-208v-57v-57q0 -21 14.5 -35.5t35.5 -14.5h57h57q21 0 35.5 14.5t14.5 35.5v7q0 21 14.5 35.5t35.5 14.5h7q21 0 35.5 14.5t14.5 35.5v7q0 21 14.5 35.5t35.5 14.5h7q21 0 35.5 -14.5t14.5 -35.5v-7q0 -21 -14.5 -35.5
t-35.5 -14.5h-7q-21 0 -35.5 -14.5t-14.5 -35.5v-7q0 -21 -14.5 -35.5t-35.5 -14.5h-7q-21 0 -35.5 -14.5t-14.5 -35.5v-57z" />
    <glyph glyph-name="l" unicode="l" horiz-adv-x="528" 
d="M371 107h57q21 0 35.5 -14.5t14.5 -35.5v-7q0 -21 -14.5 -35.5t-35.5 -14.5h-57h-57q-21 0 -35.5 14.5t-14.5 35.5v7q0 21 -14.5 35.5t-35.5 14.5h-7q-21 0 -35.5 14.5t-14.5 35.5v57v107v107v215v57q0 21 -14.5 35.5t-35.5 14.5h-7q-21 0 -35.5 14.5t-14.5 35.5v7
q0 21 14.5 35.5t35.5 14.5h57h5h52q21 0 35.5 -14.5t14.5 -35.5v-57v-107v-215v-107v-107v-57q0 -21 14.5 -35.5t35.5 -14.5h57z" />
    <glyph glyph-name="m" unicode="m" horiz-adv-x="849" 
d="M692 585q0 -21 14.5 -35.5t35.5 -14.5h7q21 0 35.5 -14.5t14.5 -35.5v-57v-107v-107v-107v-57q0 -21 -14.5 -35.5t-35.5 -14.5h-7q-21 0 -35.5 14.5t-14.5 35.5v57v107v107v107v57q0 21 -14.5 35.5t-35.5 14.5h-57h-57q-21 0 -35.5 -14.5t-14.5 -35.5v-57v-107v-107v-107
v-57q0 -21 -14.5 -35.5t-35.5 -14.5h-7q-21 0 -35.5 14.5t-14.5 35.5v57v107v107v107v57q0 21 -14.5 35.5t-35.5 14.5h-50h-7h-57q-21 0 -35.5 -14.5t-14.5 -35.5v-57v-107v-107v-107v-57q0 -21 -14.5 -35.5t-35.5 -14.5h-7q-21 0 -35.5 14.5t-14.5 35.5v57v107v107v107v57
q0 21 14.5 35.5t35.5 14.5h7q21 0 35.5 14.5t14.5 35.5v7q0 21 -14.5 35.5t-35.5 14.5h-7q-21 0 -35.5 14.5t-14.5 35.5v7q0 21 14.5 35.5t35.5 14.5h7q21 0 35.5 -14.5t14.5 -35.5v-7q0 -21 14.5 -35.5t35.5 -14.5h57h7h50q21 0 35.5 -14.5t14.5 -35.5v-7q0 -21 14.5 -35.5
t35.5 -14.5h7q21 0 35.5 14.5t14.5 35.5v7q0 21 14.5 35.5t35.5 14.5h57h57q21 0 35.5 -14.5t14.5 -35.5v-7v0z" />
    <glyph glyph-name="n" unicode="n" 
d="M480 585q0 -21 15 -35.5t35 -14.5h5q21 0 35.5 -14.5t14.5 -35.5v-57v-107v-107v-107v-57q0 -21 -14.5 -35.5t-35.5 -14.5h-7q-21 0 -35.5 14.5t-14.5 35.5v57v107v107v107v57q0 21 -14.5 35.5t-35.5 14.5h-57h-105h-2h-57q-21 0 -35.5 -14.5t-14.5 -35.5v-57v-107v-107
v-107v-57q0 -21 -14.5 -35.5t-35.5 -14.5h-7q-21 0 -35.5 14.5t-14.5 35.5v57v107v107v107v57q0 21 14.5 35.5t35.5 14.5h7q21 0 35.5 14.5t14.5 35.5v7q0 21 -14.5 35.5t-35.5 14.5h-7q-21 0 -35.5 14.5t-14.5 35.5v7q0 21 14.5 35.5t35.5 14.5h7q21 0 35.5 -14.5
t14.5 -35.5v-7q0 -21 14.5 -35.5t35.5 -14.5h57h2h105h59q21 0 35.5 -14.5t14.5 -35.5v-7v0z" />
    <glyph glyph-name="o" unicode="o" 
d="M478 585q0 -21 14.5 -35.5t35.5 -14.5h7q20 0 35 -14.5t15 -35.5v-57v-2v-105v-107v-58q0 -21 -15 -35.5t-35 -14.5h-7q-21 0 -35.5 -14.5t-14.5 -35.5v-6q0 -21 -15 -35.5t-35 -14.5h-57h-107h-57q-21 0 -35.5 14.5t-14.5 35.5v6q0 21 -15 35.5t-35 14.5h-7
q-21 0 -35.5 14.5t-14.5 35.5v57v107v106v2v57q0 21 14.5 35.5t35.5 14.5h7q20 0 35 14.5t15 35.5v7q0 21 14.5 35.5t35.5 14.5h57h107h57q20 0 35 -14.5t15 -35.5v-7zM478 428v57q0 21 -15 35.5t-35 14.5h-57h-107h-57q-21 0 -35.5 -14.5t-14.5 -35.5v-57v-2v-106v-107v-56
q0 -21 14.5 -35.5t35.5 -14.5h57h107h57q20 0 35 14.5t15 35.5v57v107v105v2z" />
    <glyph glyph-name="p" unicode="p" 
d="M478 585q0 -21 14.5 -35.5t35.5 -14.5h7q21 0 35.5 -14.5t14.5 -35.5v-57v-107v-107v-57q0 -21 -14.5 -35.5t-35.5 -14.5h-7q-21 0 -35.5 -14.5t-14.5 -35.5v-7q0 -21 -14.5 -35.5t-35.5 -14.5h-57h-107h-57h-35.5t-14.5 -1v-107v-57q0 -21 -14.5 -35.5t-35.5 -14.5h-7
q-21 0 -35.5 14.5t-14.5 35.5v57v107v107v107v108v107v57q0 21 14.5 35.5t35.5 14.5h7q21 0 35.5 14.5t14.5 35.5v7q0 21 14.5 35.5t35.5 14.5h57h107h57q21 0 35.5 -14.5t14.5 -35.5v-7zM478 428v57q0 21 -14.5 35.5t-35.5 14.5h-57h-107h-57q-21 0 -35.5 -14.5
t-14.5 -35.5v-57v-107v-108v-56q0 -21 14.5 -35.5t35.5 -14.5h57h107h57q21 0 35.5 14.5t14.5 35.5v57v107v107z" />
    <glyph glyph-name="q" unicode="q" 
d="M157 585v7q0 21 14.5 35.5t35.5 14.5h57h107h57q21 0 35.5 -14.5t14.5 -35.5v-7q0 -21 14.5 -35.5t35.5 -14.5h7q21 0 35.5 -14.5t14.5 -35.5v-57v-107v-108v-107v-107v-107v-57q0 -21 -14.5 -35.5t-35.5 -14.5h-7q-21 0 -35.5 14.5t-14.5 35.5v57v107q0 1 -14.5 1h-35.5
h-57h-107h-57q-21 0 -35.5 14.5t-14.5 35.5v7q0 21 -14.5 35.5t-35.5 14.5h-7q-21 0 -35.5 14.5t-14.5 35.5v57v107v107v57q0 21 14.5 35.5t35.5 14.5h7q21 0 35.5 14.5t14.5 35.5zM157 321v-107v-57q0 -21 14.5 -35.5t35.5 -14.5h57h107h57q21 0 35.5 14.5t14.5 35.5v56
v108v107v57q0 21 -14.5 35.5t-35.5 14.5h-57h-107h-57q-21 0 -35.5 -14.5t-14.5 -35.5v-57v-107z" />
    <glyph glyph-name="r" unicode="r" 
d="M478 585q0 -21 14.5 -35.5t35.5 -14.5h7q21 0 35.5 -14.5t14.5 -35.5v-7q0 -21 -14.5 -35.5t-35.5 -14.5h-7q-21 0 -35.5 14.5t-14.5 35.5v7q0 21 -14.5 35.5t-35.5 14.5h-57h-57q-21 0 -35.5 -14.5t-14.5 -35.5v-7q0 -21 -14.5 -35.5t-35.5 -14.5h-7q-21 0 -35.5 -14.5
t-14.5 -35.5v-57v-107v-107v-57q0 -21 -14.5 -35.5t-35.5 -14.5h-7q-21 0 -35.5 14.5t-14.5 35.5v57v107v107v107v107v57q0 21 14.5 35.5t35.5 14.5h7q21 0 35.5 -14.5t14.5 -35.5v-7q0 -21 14.5 -35.5t35.5 -14.5h7q21 0 35.5 14.5t14.5 35.5v7q0 21 14.5 35.5t35.5 14.5
h57h57q21 0 35.5 -14.5t14.5 -35.5v-7v0z" />
    <glyph glyph-name="s" unicode="s" 
d="M585 479q0 -21 -15 -35.5t-35 -14.5h-7q-21 0 -35.5 14.5t-14.5 35.5v7q0 21 -15 35.5t-35 14.5h-57h-107h-57q-21 0 -35.5 -14.5t-14.5 -35.5v-7q0 -21 14.5 -35.5t35.5 -14.5h7q21 0 35.5 -14.5t14.5 -35.5v-7q0 -21 14.5 -35.5t35.5 -14.5h57h57q20 0 35 -14.5
t15 -35.5v-7q0 -21 14.5 -35.5t35.5 -14.5h7q20 0 35 -14.5t15 -35.5v-8q0 -21 -15 -35.5t-35 -14.5h-7q-21 0 -35.5 -14.5t-14.5 -35.5v-7q0 -21 -15 -35.5t-35 -14.5h-57h-107h-57q-21 0 -35.5 14.5t-14.5 35.5v7q0 21 -15 35.5t-35 14.5h-7q-21 0 -35.5 14.5t-14.5 35.5
v8q0 21 14.5 35.5t35.5 14.5h7q20 0 35 -14.5t15 -35.5v-7q0 -21 14.5 -35.5t35.5 -14.5h57h107h57q20 0 35 14.5t15 35.5v7q0 21 -15 35.5t-35 14.5h-57h-57q-21 0 -35.5 14.5t-14.5 35.5v7q0 21 -15 35.5t-35 14.5h-7q-21 0 -35.5 14.5t-14.5 35.5v7q0 21 -14.5 35.5
t-35.5 14.5h-7q-21 0 -35.5 14.5t-14.5 35.5v7q0 21 14.5 35.5t35.5 14.5h7q20 0 35 14.5t15 35.5v7q0 21 14.5 35.5t35.5 14.5h57h107h57q20 0 35 -14.5t15 -35.5v-7q0 -21 14.5 -35.5t35.5 -14.5h7q20 0 35 -14.5t15 -35.5v-7v0z" />
    <glyph glyph-name="t" unicode="t" 
d="M264 214v-57q0 -21 14.5 -35.5t35.5 -14.5h57h57q20 0 35 14.5t15 35.5v7q0 21 14.5 35.5t35.5 14.5h7q20 0 35 -14.5t15 -35.5v-7q0 -21 -15 -35.5t-35 -14.5h-7q-21 0 -35.5 -14.5t-14.5 -35.5v-7q0 -21 -15 -35.5t-35 -14.5h-57h-57q-21 0 -35.5 14.5t-14.5 35.5v7
q0 21 -15 35.5t-35 14.5h-7q-21 0 -35.5 14.5t-14.5 35.5v57v107v107v57q0 21 -15 35.5t-35 14.5h-7q-21 0 -35.5 14.5t-14.5 35.5v7q0 21 14.5 35.5t35.5 14.5h7q20 0 35 14.5t15 35.5v-3v17q0 21 14.5 35.5t35.5 14.5h7q20 0 35 -14.5t15 -35.5v-17v3q0 -21 14.5 -35.5
t35.5 -14.5h57h107h57q20 0 35 -14.5t15 -35.5v-7q0 -21 -15 -35.5t-35 -14.5h-57h-107h-57q-21 0 -35.5 -14.5t-14.5 -35.5v-57v-107v-107z" />
    <glyph glyph-name="u" unicode="u" 
d="M478 50q0 -21 14.5 -35.5t35.5 -14.5h7q20 0 35 -14.5t15 -35.5v-7q0 -21 -15 -35.5t-35 -14.5h-7q-21 0 -35.5 14.5t-14.5 35.5v7q0 21 -15 35.5t-35 14.5h-57h-107h-57q-21 0 -35.5 14.5t-14.5 35.5v6q0 21 -15 35.5t-35 14.5h-7q-21 0 -35.5 14.5t-14.5 35.5v57v107
v107v108v57q0 21 14.5 35.5t35.5 14.5h7q20 0 35 -14.5t15 -35.5v-57v-108v-107v-107v-56q0 -21 14.5 -35.5t35.5 -14.5h57h107h57q20 0 35 14.5t15 35.5v57v107v107v107v57q0 21 14.5 35.5t35.5 14.5h7q20 0 35 -14.5t15 -35.5v-57v-107v-107v-107v-57q0 -21 -15 -35.5
t-35 -14.5h-7q-21 0 -35.5 -14.5t-14.5 -35.5v-7v0z" />
    <glyph glyph-name="v" unicode="v" 
d="M478 592q0 21 14.5 35.5t35.5 14.5h7q20 0 35 -14.5t15 -35.5v-57v-57q0 -21 -15 -35.5t-35 -14.5h-7q-21 0 -35.5 -14.5t-14.5 -35.5v-57v-107v-57q0 -21 -15 -35.5t-35 -14.5h-7q-21 0 -35.5 -14.5t-14.5 -35.5v-7q0 -21 -14.5 -35.5t-35.5 -14.5h-7q-21 0 -35.5 14.5
t-14.5 35.5v7q0 21 -14.5 35.5t-35.5 14.5h-7q-21 0 -35.5 14.5t-14.5 35.5v57v107v57q0 21 -14.5 35.5t-35.5 14.5h-7q-21 0 -35.5 14.5t-14.5 35.5v57v57q0 21 14.5 35.5t35.5 14.5h7q21 0 35.5 -14.5t14.5 -35.5v-57v-57q0 -21 14.5 -35.5t35.5 -14.5h7q21 0 35.5 -14.5
t14.5 -35.5v-57v-107v-57q0 -21 14.5 -35.5t35.5 -14.5h7q20 0 35 14.5t15 35.5v57v107v57q0 21 14.5 35.5t35.5 14.5h7q20 0 35 14.5t15 35.5v57v57v0z" />
    <glyph glyph-name="w" unicode="w" horiz-adv-x="845" 
d="M688 592q0 21 15 35.5t35 14.5h7q21 0 35.5 -14.5t14.5 -35.5v-57v-107v-107v-107v-57q0 -21 -14.5 -35.5t-35.5 -14.5h-7q-20 0 -35 -8.5t-15 -20.5v-28q0 -21 15 -35.5t35 -14.5h29q12 0 20 -14.5t8 -35.5v-7q0 -21 -14.5 -35.5t-35.5 -14.5h-7q-20 0 -35 8.5t-15 19.5
v29q0 21 -14.5 35.5t-35.5 14.5h-57h-57q-20 0 -35 14.5t-15 35.5v7q0 21 -14.5 35.5t-35.5 14.5h-5q-20 0 -35 -14.5t-15 -35.5v-7q0 -21 -14.5 -35.5t-35.5 -14.5h-57h-57q-20 0 -35 14.5t-15 35.5v7q0 21 -14.5 35.5t-35.5 14.5h-5q-21 0 -35.5 14.5t-14.5 35.5v57v107
v107v107v57q0 21 14.5 35.5t35.5 14.5h7q21 0 35.5 -14.5t14.5 -35.5v-57v-107v-107v-107v-57q0 -21 14.5 -35.5t35.5 -14.5h55h57q21 0 35.5 14.5t14.5 35.5v57v107v107v107v57q0 21 14.5 35.5t35.5 14.5h7q21 0 35.5 -14.5t14.5 -35.5v-57v-107v-107v-107v-57
q0 -21 14.5 -35.5t35.5 -14.5h55h57q21 0 35.5 14.5t14.5 35.5v57v107v107v107v57v0z" />
    <glyph glyph-name="x" unicode="x" horiz-adv-x="634" 
d="M371 321v-57q0 -21 14.5 -35.5t35.5 -14.5h7q21 0 35.5 -8.5t14.5 -20.5v-28q0 -21 14.5 -35.5t35.5 -14.5h28q11 0 19.5 -14.5t8.5 -35.5v-7q0 -21 -14.5 -35.5t-35.5 -14.5h-7q-21 0 -35.5 8.5t-14.5 19.5v29q0 21 -14.5 35.5t-35.5 14.5h-28q-12 0 -20 14.5t-8 35.5v7
q0 21 -14.5 35.5t-35.5 14.5h-7q-21 0 -35.5 -14.5t-14.5 -35.5v-7q0 -21 -8.5 -35.5t-20.5 -14.5h-28q-21 0 -35.5 -14.5t-14.5 -35.5v-29q0 -11 -14.5 -19.5t-35.5 -8.5h-7q-21 0 -35.5 14.5t-14.5 35.5v7q0 21 8.5 35.5t19.5 14.5h29q21 0 35.5 14.5t14.5 35.5v28
q0 12 14.5 20.5t35.5 8.5h7q21 0 35.5 14.5t14.5 35.5v57v57q0 21 -14.5 35.5t-35.5 14.5h-7q-21 0 -35.5 8.5t-14.5 19.5v29q0 20 -14.5 35t-35.5 15h-29q-11 0 -19.5 14.5t-8.5 35.5v7q0 20 14.5 35t35.5 15h7q21 0 35.5 -8.5t14.5 -20.5v-28q0 -21 14.5 -35.5t35.5 -14.5
h28q12 0 20.5 -14.5t8.5 -35.5v-7q0 -21 14.5 -35.5t35.5 -14.5h7q21 0 35.5 14.5t14.5 35.5v7q0 21 8 35.5t20 14.5h28q21 0 35.5 14.5t14.5 35.5v28q0 12 14.5 20.5t35.5 8.5h7q21 0 35.5 -14.5t14.5 -35.5v-7q0 -21 -8.5 -35.5t-19.5 -14.5h-28q-21 0 -35.5 -14.5
t-14.5 -35.5v-29q0 -11 -14.5 -19.5t-35.5 -8.5h-7q-21 0 -35.5 -14.5t-14.5 -35.5v-57z" />
    <glyph glyph-name="y" unicode="y" 
d="M478 592q0 20 14.5 35t35.5 15h7q20 0 35 -15t15 -35v-57v-107v-107v-107v-57v-100v-7v-100v-7q0 -21 -15 -35.5t-35 -14.5h-7q-21 0 -35.5 -15t-14.5 -35v-7q0 -21 -15 -35.5t-35 -14.5h-57h-107h-107h-57q-21 0 -35.5 14.5t-14.5 35.5v7q0 20 14.5 35t35.5 15h57h107
h107h57q20 0 35 14.5t15 35.5v7q0 20 -15 35t-35 15h-57h-107h-57q-21 0 -35.5 14.5t-14.5 35.5v7q0 20 -14.5 35t-35.5 15h-7q-21 0 -35.5 14.5t-14.5 35.5v57v107v107v107v57q0 20 14.5 35t35.5 15h7q21 0 35.5 -15t14.5 -35v-57v-107v-107v-107v-57q0 -21 14.5 -35.5
t35.5 -14.5h57h107h57q20 0 35 14.5t15 35.5v57v107v107v107v57v0z" />
    <glyph glyph-name="z" unicode="z" 
d="M264 264q0 -21 -14.5 -35.5t-35.5 -14.5h-7q-21 0 -35.5 -14.5t-14.5 -35.5v-7q0 -21 14.5 -35.5t35.5 -14.5h57h107h107h57q20 0 35 -14.5t15 -35.5v-7q0 -21 -14.5 -35.5t-35.5 -14.5h-57h-107h-107h-107h-57q-21 0 -35.5 14.5t-14.5 35.5v51v6v57q0 21 14.5 35.5
t35.5 14.5h7q21 0 35.5 14.5t14.5 35.5v7q0 21 14.5 35.5t35.5 14.5h7q21 0 35.5 14.5t14.5 35.5v7q0 21 14.5 35.5t35.5 14.5h7q21 0 35.5 14.5t14.5 35.5v7q0 21 -14.5 35.5t-35.5 14.5h-57h-107h-57q-21 0 -35.5 14.5t-14.5 35.5v7q0 21 14.5 35.5t35.5 14.5h57h107h107
h107h57q20 0 35 -14.5t15 -35.5v-7q0 -21 -15 -35.5t-35 -14.5h-7q-21 0 -35.5 -14.5t-14.5 -35.5v-7q0 -21 -14.5 -35.5t-35.5 -14.5h-7q-21 0 -35.5 -14.5t-14.5 -35.5v-7q0 -21 -14.5 -35.5t-35.5 -14.5h-7q-21 0 -35.5 -14.5t-14.5 -35.5v-7v0z" />
    <glyph glyph-name="one" unicode="1" horiz-adv-x="314" 
d="M157 699q0 21 14.5 35.5t35.5 14.5h7q21 0 35.5 -14.5t14.5 -35.5v-57v-107v-107v-107v-107v-107v-57q0 -21 -14.5 -35.5t-35.5 -14.5h-7q-21 0 -35.5 14.5t-14.5 35.5v57v107v107v107v57q0 21 -14.5 35.5t-35.5 14.5h-7q-21 0 -35.5 14.5t-14.5 35.5v7q0 21 14.5 35.5
t35.5 14.5h7q21 0 35.5 14.5t14.5 35.5v7v0z" />
    <glyph glyph-name="two" unicode="2" 
d="M478 692q0 -21 14.5 -35.5t35.5 -14.5h7q21 0 35.5 -14.5t14.5 -35.5v-57v-57q0 -21 -14.5 -35.5t-35.5 -14.5h-7q-21 0 -35.5 -14.5t-14.5 -35.5v-7q0 -21 -14.5 -35.5t-35.5 -14.5h-7q-21 0 -35.5 -14.5t-14.5 -35.5v-7q0 -21 -14.5 -35.5t-35.5 -14.5h-7
q-21 0 -35.5 -14.5t-14.5 -35.5v-7q0 -21 14.5 -35.5t35.5 -14.5h57h107h57q21 0 35.5 -14.5t14.5 -35.5v-7q0 -21 -14.5 -35.5t-35.5 -14.5h-57h-107h-107h-107h-57q-21 0 -35.5 14.5t-14.5 35.5v7q0 21 14.5 35.5t35.5 14.5h7q21 0 35.5 14.5t14.5 35.5v7q0 21 14.5 35.5
t35.5 14.5h7q21 0 35.5 14.5t14.5 35.5v7q0 21 14.5 35.5t35.5 14.5h7q21 0 35.5 14.5t14.5 35.5v7q0 21 14.5 35.5t35.5 14.5h7q21 0 35.5 14.5t14.5 35.5v57v57q0 21 -14.5 35.5t-35.5 14.5h-57h-107h-57q-21 0 -35.5 -14.5t-14.5 -35.5v-57v-57q0 -21 -14.5 -35.5
t-35.5 -14.5h-7q-21 0 -35.5 14.5t-14.5 35.5v57v57q0 21 14.5 35.5t35.5 14.5h7q21 0 35.5 14.5t14.5 35.5v7q0 21 14.5 35.5t35.5 14.5h57h107h57q21 0 35.5 -14.5t14.5 -35.5v-7v0z" />
    <glyph glyph-name="three" unicode="3" 
d="M478 692q0 -21 14.5 -35.5t35.5 -14.5h7q21 0 35.5 -14.5t14.5 -35.5v-57v-57q0 -21 -14.5 -35.5t-35.5 -14.5h-7q-21 0 -35.5 -14.5t-14.5 -35.5v-7q0 -21 14.5 -35.5t35.5 -14.5h7q21 0 35.5 -14.5t14.5 -35.5v-57v-57q0 -21 -14.5 -35.5t-35.5 -14.5h-7
q-21 0 -35.5 -14.5t-14.5 -35.5v-7q0 -21 -14.5 -35.5t-35.5 -14.5h-57h-107h-57q-21 0 -35.5 14.5t-14.5 35.5v7q0 21 -14.5 35.5t-35.5 14.5h-7q-21 0 -35.5 14.5t-14.5 35.5v7q0 21 14.5 35.5t35.5 14.5h7q21 0 35.5 -14.5t14.5 -35.5v-7q0 -21 14.5 -35.5t35.5 -14.5h57
h107h57q21 0 35.5 14.5t14.5 35.5v57v57q0 21 -14.5 35.5t-35.5 14.5h-57h-57q-21 0 -35.5 14.5t-14.5 35.5v7q0 21 14.5 35.5t35.5 14.5h57h57q21 0 35.5 14.5t14.5 35.5v57v57q0 21 -14.5 35.5t-35.5 14.5h-57h-107h-57q-21 0 -35.5 -14.5t-14.5 -35.5v-7
q0 -21 -14.5 -35.5t-35.5 -14.5h-7q-21 0 -35.5 14.5t-14.5 35.5v7q0 21 14.5 35.5t35.5 14.5h7q21 0 35.5 14.5t14.5 35.5v7q0 21 14.5 35.5t35.5 14.5h57h107h57q21 0 35.5 -14.5t14.5 -35.5v-7v0z" />
    <glyph glyph-name="four" unicode="4" 
d="M478 264q0 -21 14.5 -35.5t35.5 -14.5h7q21 0 35.5 -14.5t14.5 -35.5v-7q0 -21 -14.5 -35.5t-35.5 -14.5h-7q-21 0 -35.5 -14.5t-14.5 -35.5v-7q0 -21 -14.5 -35.5t-35.5 -14.5h-7q-21 0 -35.5 14.5t-14.5 35.5v7q0 21 -14.5 35.5t-35.5 14.5h-57h-107h-57
q-21 0 -35.5 14.5t-14.5 35.5v57v107v107v57q0 21 14.5 35.5t35.5 14.5h7q21 0 35.5 14.5t14.5 35.5v7q0 21 14.5 35.5t35.5 14.5h7q21 0 35.5 14.5t14.5 35.5v7q0 21 14.5 35.5t35.5 14.5h57h57q21 0 35.5 -14.5t14.5 -35.5v-57v-107v-107v-107v-57zM264 214h57
q21 0 35.5 14.5t14.5 35.5v57v107v107v57q0 21 -14.5 35.5t-35.5 14.5h-7q-21 0 -35.5 -14.5t-14.5 -35.5v-7q0 -21 -14.5 -35.5t-35.5 -14.5h-7q-21 0 -35.5 -14.5t-14.5 -35.5v-57v-107v-57q0 -21 14.5 -35.5t35.5 -14.5h57z" />
    <glyph glyph-name="five" unicode="5" 
d="M264 642h-57q-21 0 -35.5 -14.5t-14.5 -35.5v-7q0 -21 14.5 -35.5t35.5 -14.5h57h107h57q21 0 35.5 -14.5t14.5 -35.5v-7q0 -21 14.5 -35.5t35.5 -14.5h7q21 0 35.5 -14.5t14.5 -35.5v-57v-107v-57q0 -21 -14.5 -35.5t-35.5 -14.5h-7q-21 0 -35.5 -14.5t-14.5 -35.5v-7
q0 -21 -14.5 -35.5t-35.5 -14.5h-57h-107h-57q-21 0 -35.5 14.5t-14.5 35.5v7q0 21 -14.5 35.5t-35.5 14.5h-7q-21 0 -35.5 14.5t-14.5 35.5v57v57q0 21 14.5 35.5t35.5 14.5h7q21 0 35.5 -14.5t14.5 -35.5v-57v-57q0 -21 14.5 -35.5t35.5 -14.5h57h107h57q21 0 35.5 14.5
t14.5 35.5v57v107v57q0 21 -14.5 35.5t-35.5 14.5h-57h-107h-57q-21 0 -35.5 14.5t-14.5 35.5v7q0 21 -14.5 35.5t-35.5 14.5h-7q-21 0 -35.5 14.5t-14.5 35.5v57v57q0 21 14.5 35.5t35.5 14.5h57h107h107h107h57q21 0 35.5 -14.5t14.5 -35.5v-7q0 -21 -14.5 -35.5
t-35.5 -14.5h-57h-107h-107z" />
    <glyph glyph-name="six" unicode="6" 
d="M207 642q-21 0 -35.5 -14.5t-14.5 -35.5v-57v-57q0 -21 14.5 -35.5t35.5 -14.5h57h107h57q21 0 35.5 -14.5t14.5 -35.5v-7q0 -21 14.5 -35.5t35.5 -14.5h7q21 0 35.5 -14.5t14.5 -35.5v-57v-57q0 -21 -14.5 -35.5t-35.5 -14.5h-7q-21 0 -35.5 -14.5t-14.5 -35.5v-7
q0 -21 -14.5 -35.5t-35.5 -14.5h-57h-107h-57q-21 0 -35.5 14.5t-14.5 35.5v7q0 21 -14.5 35.5t-35.5 14.5h-7q-21 0 -35.5 14.5t-14.5 35.5v57v107v107v107v57q0 21 14.5 35.5t35.5 14.5h7q21 0 35.5 14.5t14.5 35.5v7q0 21 14.5 35.5t35.5 14.5h57h107h107h57
q21 0 35.5 -14.5t14.5 -35.5v-7q0 -21 -14.5 -35.5t-35.5 -14.5h-57h-107h-107h-57zM264 321h-57q-21 0 -35.5 -14.5t-14.5 -35.5v-57v-57q0 -21 14.5 -35.5t35.5 -14.5h57h107h57q21 0 35.5 14.5t14.5 35.5v57v57q0 21 -14.5 35.5t-35.5 14.5h-57h-107z" />
    <glyph glyph-name="seven" unicode="7" 
d="M478 749h57q20 0 35 -14.5t15 -35.5v-57v-107v-57q0 -21 -15 -35.5t-35 -14.5h-7q-21 0 -35.5 -14.5t-14.5 -35.5v-7q0 -21 -15 -35.5t-35 -14.5h-7q-21 0 -35.5 -14.5t-14.5 -35.5v-7q0 -21 -15 -35.5t-35 -14.5h-7q-21 0 -35.5 -14.5t-14.5 -35.5v-7q0 -21 -15 -35.5
t-35 -14.5h-7q-21 0 -35.5 -14.5t-14.5 -35.5v-7q0 -21 -15 -35.5t-35 -14.5h-7q-21 0 -35.5 14.5t-14.5 35.5v7q0 21 14.5 35.5t35.5 14.5h7q20 0 35 14.5t15 35.5v7q0 21 14.5 35.5t35.5 14.5h7q20 0 35 14.5t15 35.5v7q0 21 14.5 35.5t35.5 14.5h7q20 0 35 14.5t15 35.5
v7q0 21 14.5 35.5t35.5 14.5h7q20 0 35 14.5t15 35.5v57v57q0 21 -15 35.5t-35 14.5h-57h-107h-57q-21 0 -35.5 -14.5t-14.5 -35.5v-7q0 -21 -15 -35.5t-35 -14.5h-7q-21 0 -35.5 14.5t-14.5 35.5v57v57q0 21 14.5 35.5t35.5 14.5h57h107h107h107z" />
    <glyph glyph-name="eight" unicode="8" 
d="M478 692q0 -21 14.5 -35.5t35.5 -14.5h7q21 0 35.5 -14.5t14.5 -35.5v-57v-57q0 -21 -14.5 -35.5t-35.5 -14.5h-7q-21 0 -35.5 -14.5t-14.5 -35.5v-7q0 -21 14.5 -35.5t35.5 -14.5h7q21 0 35.5 -14.5t14.5 -35.5v-57v-57q0 -21 -14.5 -35.5t-35.5 -14.5h-7
q-21 0 -35.5 -14.5t-14.5 -35.5v-7q0 -21 -14.5 -35.5t-35.5 -14.5h-57h-107h-57q-21 0 -35.5 14.5t-14.5 35.5v7q0 21 -14.5 35.5t-35.5 14.5h-7q-21 0 -35.5 14.5t-14.5 35.5v57v57q0 21 14.5 35.5t35.5 14.5h7q21 0 35.5 14.5t14.5 35.5v7q0 21 -14.5 35.5t-35.5 14.5h-7
q-21 0 -35.5 14.5t-14.5 35.5v57v57q0 21 14.5 35.5t35.5 14.5h7q21 0 35.5 14.5t14.5 35.5v7q0 21 14.5 35.5t35.5 14.5h57h107h57q21 0 35.5 -14.5t14.5 -35.5v-7zM478 214v57q0 21 -14.5 35.5t-35.5 14.5h-57h-107h-57q-21 0 -35.5 -14.5t-14.5 -35.5v-57v-57
q0 -21 14.5 -35.5t35.5 -14.5h57h107h57q21 0 35.5 14.5t14.5 35.5v57zM428 428q21 0 35.5 14.5t14.5 35.5v57v57q0 21 -14.5 35.5t-35.5 14.5h-57h-107h-57q-21 0 -35.5 -14.5t-14.5 -35.5v-57v-57q0 -21 14.5 -35.5t35.5 -14.5h57h107h57z" />
    <glyph glyph-name="nine" unicode="9" 
d="M478 692q0 -21 14.5 -35.5t35.5 -14.5h7q21 0 35.5 -14.5t14.5 -35.5v-57v-107v-107v-107v-57q0 -21 -14.5 -35.5t-35.5 -14.5h-7q-21 0 -35.5 -14.5t-14.5 -35.5v-7q0 -21 -14.5 -35.5t-35.5 -14.5h-57h-107h-57q-21 0 -35.5 14.5t-14.5 35.5v7q0 21 -14.5 35.5
t-35.5 14.5h-7q-21 0 -35.5 14.5t-14.5 35.5v7q0 21 14.5 35.5t35.5 14.5h7q21 0 35.5 -14.5t14.5 -35.5v-7q0 -21 14.5 -35.5t35.5 -14.5h57h107h57q21 0 35.5 14.5t14.5 35.5v57v57q0 21 -14.5 35.5t-35.5 14.5h-57h-107h-57q-21 0 -35.5 14.5t-14.5 35.5v7
q0 21 -14.5 35.5t-35.5 14.5h-7q-21 0 -35.5 14.5t-14.5 35.5v57v57q0 21 14.5 35.5t35.5 14.5h7q21 0 35.5 14.5t14.5 35.5v7q0 21 14.5 35.5t35.5 14.5h57h107h57q21 0 35.5 -14.5t14.5 -35.5v-7zM478 428v107v57q0 21 -14.5 35.5t-35.5 14.5h-57h-107h-57
q-21 0 -35.5 -14.5t-14.5 -35.5v-57v-57q0 -21 14.5 -35.5t35.5 -14.5h57h107h107z" />
    <glyph glyph-name="zero" unicode="0" 
d="M478 692q0 -21 14.5 -35.5t35.5 -14.5h7q21 0 35.5 -14.5t14.5 -35.5v-57v-107v-105v-2v-107v-2v-55q0 -21 -14.5 -35.5t-35.5 -14.5h-7q-21 0 -35.5 -14.5t-14.5 -35.5v-7q0 -21 -14.5 -35.5t-35.5 -14.5h-57h-107h-57q-21 0 -35.5 14.5t-14.5 35.5v7q0 21 -14.5 35.5
t-35.5 14.5h-7q-21 0 -35.5 14.5t-14.5 35.5v57v107v107v107v57q0 21 14.5 35.5t35.5 14.5h7q21 0 35.5 14.5t14.5 35.5v7q0 21 14.5 35.5t35.5 14.5h57h107h57q21 0 35.5 -14.5t14.5 -35.5v-7zM157 535v-107v-57q0 -21 14.5 -35.5t35.5 -14.5h7q21 0 35.5 14.5t14.5 35.5v7
q0 21 14.5 35.5t35.5 14.5h7q21 0 35.5 14.5t14.5 35.5v7q0 21 14.5 35.5t35.5 14.5h7q21 0 35.5 14.5t14.5 35.5v7q0 21 -14.5 35.5t-35.5 14.5h-57h-107h-57q-21 0 -35.5 -14.5t-14.5 -35.5v-57zM478 323v55q0 21 -14.5 35.5t-35.5 14.5h-7q-21 0 -35.5 -14.5t-14.5 -35.5
v-7q0 -21 -14.5 -35.5t-35.5 -14.5h-7q-21 0 -35.5 -14.5t-14.5 -35.5v-7q0 -21 -14.5 -35.5t-35.5 -14.5h-57v-57q0 -21 14.5 -35.5t35.5 -14.5h57h107h57q21 0 35.5 14.5t14.5 35.5v55v2v107v2z" />
    <glyph glyph-name="numbersign" unicode="#" horiz-adv-x="956" 
d="M799 585q0 -21 14.5 -35.5t35.5 -14.5h7q21 0 35.5 -14.5t14.5 -35.5v-7q0 -21 -14.5 -35.5t-35.5 -14.5h-57h-57q-21 0 -35.5 -14.5t-14.5 -35.5v-57v-57q0 -21 14.5 -35.5t35.5 -14.5h7q21 0 35.5 -14.5t14.5 -35.5v-7q0 -21 -14.5 -35.5t-35.5 -14.5h-57h-103h-2
q-1 0 -1.5 -14.5t-0.5 -35.5v-7q0 -21 -14.5 -35.5t-35.5 -14.5h-7q-21 0 -35.5 14.5t-14.5 35.5v57h-107h-57q-21 0 -35.5 -14.5t-14.5 -35.5v-7q0 -21 -14.5 -35.5t-35.5 -14.5h-7q-21 0 -35.5 14.5t-14.5 35.5v57h-57q-21 0 -35.5 14.5t-14.5 35.5v7q0 21 14.5 35.5
t35.5 14.5h57h57q21 0 35.5 14.5t14.5 35.5v57v57q0 21 -14.5 35.5t-35.5 14.5h-7q-21 0 -35.5 14.5t-14.5 35.5v7q0 21 14.5 35.5t35.5 14.5h57h57q21 0 35.5 14.5t14.5 35.5v7q0 21 14.5 35.5t35.5 14.5h7q21 0 35.5 -14.5t14.5 -35.5v-7q0 -21 14.5 -35.5t35.5 -14.5h57
h2h55q21 0 35.5 14.5t14.5 35.5v7q0 21 14.5 35.5t35.5 14.5h7q21 0 35.5 -14.5t14.5 -35.5v-7zM585 321v57q0 21 -14.5 35.5t-35.5 14.5h-57h-57q-21 0 -35.5 -14.5t-14.5 -35.5v-57v-57q0 -21 14.5 -35.5t35.5 -14.5h57h9h49q20 0 34.5 14.5t14.5 35.5v57z" />
    <glyph glyph-name="dollar" unicode="$" 
d="M585 586q0 -21 -15 -35.5t-35 -14.5h-7q-21 0 -35.5 14.5t-14.5 35.5v7q0 21 -15 35.5t-35 14.5h-7q-21 0 -35.5 -14.5t-14.5 -35.5v-57v-57q0 -21 14.5 -35.5t35.5 -14.5h7q20 0 35 -14.5t15 -35.5v-7q0 -21 14.5 -35.5t35.5 -14.5h7q20 0 35 -14.5t15 -35.5v-57v-1v-57
q0 -21 -15 -35.5t-35 -14.5h-7q-21 0 -35.5 -14.5t-14.5 -35.5v-7q0 -21 -15 -35.5t-35 -14.5h-7q-21 0 -35.5 -14.5t-14.5 -35.5v-6q0 -21 -15 -35.5t-35 -14.5h-7q-21 0 -35.5 14.5t-14.5 35.5v6q0 21 -15 35.5t-35 14.5h-7q-21 0 -35.5 14.5t-14.5 35.5v7q0 21 -15 35.5
t-35 14.5h-7q-21 0 -35.5 14.5t-14.5 35.5v8q0 21 14.5 35.5t35.5 14.5h7q20 0 35 -14.5t15 -35.5v-7q0 -21 14.5 -35.5t35.5 -14.5h7q20 0 35 14.5t15 35.5v57v56q0 21 -15 35.5t-35 14.5h-7q-21 0 -35.5 14.5t-14.5 35.5v8q0 21 -15 35.5t-35 14.5h-7q-21 0 -35.5 14.5
t-14.5 35.5v57v57q0 21 14.5 35.5t35.5 14.5h7q20 0 35 14.5t15 35.5v7q0 21 14.5 35.5t35.5 14.5h7q20 0 35 14.5t15 35.5v7q0 21 14.5 35.5t35.5 14.5h7q20 0 35 -14.5t15 -35.5v-7q0 -21 14.5 -35.5t35.5 -14.5h7q20 0 35 -14.5t15 -35.5v-7q0 -21 14.5 -35.5t35.5 -14.5
h7q20 0 35 -14.5t15 -35.5v-7zM478 271q0 21 -15 35.5t-35 14.5h-7q-21 0 -35.5 -14.5t-14.5 -35.5v-56v-57q0 -21 14.5 -35.5t35.5 -14.5h7q20 0 35 14.5t15 35.5v56v1v56zM214 429q20 0 35 14.5t15 35.5v57v57q0 21 -15 35.5t-35 14.5h-7q-21 0 -35.5 -14.5t-14.5 -35.5
v-57v-57q0 -21 14.5 -35.5t35.5 -14.5h7z" />
    <glyph glyph-name="percent" unicode="%" horiz-adv-x="849" 
d="M749 214q20 0 35 -14.5t15 -35.5v-7q0 -21 -15 -35.5t-35 -14.5h-7q-21 0 -35.5 -14.5t-14.5 -35.5v-7q0 -21 -15 -35.5t-35 -14.5h-7q-21 0 -35.5 14.5t-14.5 35.5v7q0 21 -15 35.5t-35 14.5h-7q-21 0 -35.5 14.5t-14.5 35.5v7q0 21 14.5 35.5t35.5 14.5h7q20 0 35 14.5
t15 35.5v7q0 21 14.5 35.5t35.5 14.5h7q20 0 35 -14.5t15 -35.5v-7q0 -21 14.5 -35.5t35.5 -14.5h7zM689 162q0 20 -14.5 35t-35.5 15h-4q-21 0 -35.5 -15t-14.5 -35v-3q0 -20 14.5 -35t35.5 -15h4q21 0 35.5 15t14.5 35v3zM100 535q-21 0 -35.5 14.5t-14.5 35.5v7
q0 21 14.5 35.5t35.5 14.5h7q20 0 35 14.5t15 35.5v7q0 21 14.5 35.5t35.5 14.5h7q20 0 35 -14.5t15 -35.5v-7q0 -21 14.5 -35.5t35.5 -14.5h7q20 0 35 -14.5t15 -35.5v-7q0 -21 -15 -35.5t-35 -14.5h-7q-21 0 -35.5 -14.5t-14.5 -35.5v-7q0 -21 -15 -35.5t-35 -14.5h-7
q-21 0 -35.5 14.5t-14.5 35.5v7q0 21 -15 35.5t-35 14.5h-7zM157 587q0 -20 14.5 -35t35.5 -15h4q21 0 35.5 15t14.5 35v3q0 20 -14.5 35t-35.5 15h-4q-21 0 -35.5 -15t-14.5 -35v-3zM749 749q21 0 35.5 -14.5t14.5 -35.5v-7q0 -21 -14.5 -35.5t-35.5 -14.5h-7
q-20 0 -35 -15t-15 -35v-7q0 -21 -14.5 -35.5t-35.5 -14.5h-7q-20 0 -35 -15t-15 -35v-7q0 -21 -14.5 -35.5t-35.5 -14.5h-7q-20 0 -35 -15t-15 -35v-7q0 -21 -14.5 -35.5t-35.5 -14.5h-7q-20 0 -35 -15t-15 -35v-7q0 -21 -14.5 -35.5t-35.5 -14.5h-7q-20 0 -35 -15t-15 -35
v-7q0 -21 -14.5 -35.5t-35.5 -14.5h-7q-20 0 -35 -15t-15 -35v-7q0 -21 -14.5 -35.5t-35.5 -14.5h-7q-21 0 -35.5 14.5t-14.5 35.5v7q0 21 14.5 35.5t35.5 14.5h7q20 0 35 15t15 35v7q0 21 14.5 35.5t35.5 14.5h7q20 0 35 15t15 35v7q0 21 14.5 35.5t35.5 14.5h7q20 0 35 15
t15 35v7q0 21 14.5 35.5t35.5 14.5h7q20 0 35 15t15 35v7q0 21 14.5 35.5t35.5 14.5h7q20 0 35 15t15 35v7q0 21 14.5 35.5t35.5 14.5h7q20 0 35 15t15 35v7q0 21 14.5 35.5t35.5 14.5h7z" />
    <glyph glyph-name="ampersand" unicode="&#x26;" horiz-adv-x="742" 
d="M692 264q0 -21 -15 -35.5t-35 -14.5h-7q-21 0 -35.5 -14.5t-14.5 -35.5v-7q0 -21 14.5 -35.5t35.5 -14.5h7q20 0 35 -14.5t15 -35.5v-7q0 -21 -15 -35.5t-35 -14.5h-15q-20 0 -35 14.5t-15 35.5v7q0 21 -14.5 35.5t-34.5 14.5t-34 -14.5t-14 -35.5v-7q0 -21 -15 -35.5
t-35 -14.5h-59h-107h-57q-21 0 -35.5 14.5t-14.5 35.5v7q0 21 -15 35.5t-35 14.5h-7q-21 0 -35.5 14.5t-14.5 35.5v57v57q0 21 14.5 35.5t35.5 14.5h7q20 0 35 14.5t15 35.5v7q0 21 -15 35.5t-35 14.5h-7q-21 0 -35.5 14.5t-14.5 35.5v57v57q0 21 14.5 35.5t35.5 14.5h7
q20 0 35 14.5t15 35.5v7q0 21 14.5 35.5t35.5 14.5h57h58q20 0 35 -14.5t15 -35.5v-7q0 -21 14.5 -35.5t35.5 -14.5h6q20 0 35 -14.5t15 -35.5v-57v-57q0 -21 -15 -35.5t-35 -14.5h-5q-21 0 -35.5 -14.5t-14.5 -35.5v-7q0 -21 14.5 -35.5t35.5 -14.5h5q20 0 35 -14.5
t15 -35.5v-7q0 -21 14.5 -35.5t35.5 -14.5q20 0 34.5 14.5t14.5 35.5v7q0 21 15 35.5t35 14.5h15q20 0 35 -14.5t15 -35.5v-7zM163 535v-57q0 -21 15 -35.5t35 -14.5h52h56q20 0 35 14.5t15 35.5v57v57q0 21 -15 35.5t-35 14.5h-57h-51q-20 0 -35 -14.5t-15 -35.5v-57z
M428 107q20 0 35 14.5t15 35.5v7q0 21 -15 35.5t-35 14.5h-7q-21 0 -35.5 14.5t-14.5 35.5v7q0 21 -15 35.5t-35 14.5h-56h-52q-20 0 -35 -14.5t-15 -35.5v-57v-57q0 -21 15 -35.5t35 -14.5h51h107h57z" />
    <glyph glyph-name="quotesingle" unicode="'" horiz-adv-x="207" 
d="M157 747v-57q0 -21 -14.5 -35.5t-35.5 -14.5h-7q-20 0 -35 14.5t-15 35.5v57v57q0 21 15 35.5t35 14.5h7q21 0 35.5 -14.5t14.5 -35.5v-57z" />
    <glyph glyph-name="parenleft" unicode="(" horiz-adv-x="314" 
d="M157 692v7q0 21 14.5 35.5t35.5 14.5h7q21 0 35.5 -14.5t14.5 -35.5v-7q0 -21 -14.5 -35.5t-35.5 -14.5h-7q-21 0 -35.5 -14.5t-14.5 -35.5v-57v-107v-107v-107v-51q0 -21 14.5 -35.5t35.5 -14.5h7q21 0 35.5 -14.5t14.5 -35.5v-13q0 -21 -14.5 -35.5t-35.5 -14.5h-7
q-21 0 -35.5 14.5t-14.5 35.5v7q0 21 -14.5 35.5t-35.5 14.5h-7q-21 0 -35.5 14.5t-14.5 35.5v57v107v107v107v57q0 21 14.5 35.5t35.5 14.5h7q21 0 35.5 14.5t14.5 35.5z" />
    <glyph glyph-name="parenright" unicode=")" horiz-adv-x="314" 
d="M157 692q0 -21 14.5 -35.5t35.5 -14.5h7q21 0 35.5 -14.5t14.5 -35.5v-57v-107v-107v-107v-57q0 -21 -14.5 -35.5t-35.5 -14.5h-7q-21 0 -35.5 -14.5t-14.5 -35.5v-7q0 -21 -14.5 -35.5t-35.5 -14.5h-7q-21 0 -35.5 14.5t-14.5 35.5v13q0 21 14.5 35.5t35.5 14.5h7
q21 0 35.5 14.5t14.5 35.5v51v107v107v107v57q0 21 -14.5 35.5t-35.5 14.5h-7q-21 0 -35.5 14.5t-14.5 35.5v7q0 21 14.5 35.5t35.5 14.5h7q21 0 35.5 -14.5t14.5 -35.5v-7v0z" />
    <glyph glyph-name="asterisk" unicode="*" 
d="M478 583q0 -21 -14.5 -35.5t-35.5 -14.5h-7q-21 0 -35.5 -14.5t-14.5 -35.5v-7q0 -21 14.5 -35.5t35.5 -14.5h7q21 0 35.5 -14.5t14.5 -35.5v-7q0 -21 14.5 -35.5t35.5 -14.5h7q21 0 35.5 -14.5t14.5 -35.5v-7q0 -21 -14.5 -35.5t-35.5 -14.5h-7q-21 0 -35.5 14.5
t-14.5 35.5v7q0 21 -14.5 35.5t-35.5 14.5h-7q-21 0 -35.5 -14.5t-14.5 -35.5v-7q0 -21 -14.5 -35.5t-35.5 -14.5h-7q-21 0 -35.5 14.5t-14.5 35.5v7q0 21 -14.5 35.5t-35.5 14.5h-6q-21 0 -35.5 -14.5t-14.5 -35.5v-7q0 -21 -14.5 -35.5t-35.5 -14.5h-8q-21 0 -35.5 14.5
t-14.5 35.5v7q0 21 14.5 35.5t35.5 14.5h7q21 0 35.5 14.5t14.5 35.5v7q0 21 14.5 35.5t35.5 14.5h7q21 0 35.5 14.5t14.5 35.5v7q0 21 -14.5 35.5t-35.5 14.5h-7q-21 0 -35.5 14.5t-14.5 35.5v7q0 21 -14.5 35.5t-35.5 14.5h-7q-21 0 -35.5 14.5t-14.5 35.5v7
q0 21 14.5 35.5t35.5 14.5h7q21 0 35.5 -14.5t14.5 -35.5v-7q0 -21 14.5 -35.5t35.5 -14.5h7q21 0 35.5 14.5t14.5 35.5v7q0 21 14.5 35.5t35.5 14.5h7q21 0 35.5 -14.5t14.5 -35.5v-7q0 -21 14.5 -35.5t35.5 -14.5h7q21 0 35.5 14.5t14.5 35.5v7q0 21 14.5 35.5t35.5 14.5
h7q21 0 35.5 -14.5t14.5 -35.5v-7q0 -21 -14.5 -35.5t-35.5 -14.5h-7q-21 0 -35.5 -14.5t-14.5 -35.5v-7v0z" />
    <glyph glyph-name="plus" unicode="+" 
d="M478 358h57q21 0 35.5 -14.5t14.5 -35.5v-7q0 -21 -14.5 -35.5t-35.5 -14.5h-57h-57q-21 0 -35.5 -14.5t-14.5 -35.5v-57v-57q0 -21 -14.5 -35.5t-35.5 -14.5h-7q-21 0 -35.5 14.5t-14.5 35.5v57v57q0 21 -14.5 35.5t-35.5 14.5h-57h-57q-21 0 -35.5 14.5t-14.5 35.5v7
q0 21 14.5 35.5t35.5 14.5h57h57q21 0 35.5 14.5t14.5 35.5v57v57q0 21 14.5 35.5t35.5 14.5h7q21 0 35.5 -14.5t14.5 -35.5v-57v-57q0 -21 14.5 -35.5t35.5 -14.5h57z" />
    <glyph glyph-name="comma" unicode="," horiz-adv-x="314" 
d="M157 58q0 21 14.5 35.5t35.5 14.5h7q21 0 35.5 -14.5t14.5 -35.5v-57v-57q0 -21 -14.5 -35.5t-35.5 -14.5h-7q-21 0 -35.5 -14.5t-14.5 -35.5v-7q0 -21 -14.5 -35.5t-35.5 -14.5h-7q-21 0 -35.5 14.5t-14.5 35.5v7q0 21 14.5 35.5t35.5 14.5h7q21 0 35.5 14.5t14.5 35.5
v57v57v0z" />
    <glyph glyph-name="hyphen" unicode="-" 
d="M371 358h164q21 0 35.5 -14.5t14.5 -35.5v-7q0 -21 -14.5 -35.5t-35.5 -14.5h-164h-107h-107h-57q-21 0 -35.5 14.5t-14.5 35.5v7q0 21 14.5 35.5t35.5 14.5h57h107h107z" />
    <glyph glyph-name="period" unicode="." horiz-adv-x="207" 
d="M50 57q0 21 14.5 35.5t35.5 14.5h7q21 0 35.5 -14.5t14.5 -35.5v-7q0 -21 -14.5 -35.5t-35.5 -14.5h-7q-21 0 -35.5 14.5t-14.5 35.5v7v0z" />
    <glyph glyph-name="slash" unicode="/" horiz-adv-x="421" 
d="M264 699q0 21 14.5 35.5t35.5 14.5h7q20 0 35 -14.5t15 -35.5v-57v-57q0 -21 -15 -35.5t-35 -14.5h-7q-21 0 -35.5 -14.5t-14.5 -35.5v-57v-107v-57q0 -21 -15 -35.5t-35 -14.5h-7q-21 0 -35.5 -14.5t-14.5 -35.5v-57v-57q0 -21 -15 -35.5t-35 -14.5h-7q-21 0 -35.5 14.5
t-14.5 35.5v57v57q0 21 14.5 35.5t35.5 14.5h7q20 0 35 14.5t15 35.5v57v107v57q0 21 14.5 35.5t35.5 14.5h7q20 0 35 14.5t15 35.5v57v57v0z" />
    <glyph glyph-name="backslash" unicode="\" horiz-adv-x="421" 
d="M157 699v-57v-57q0 -21 15 -35.5t35 -14.5h7q21 0 35.5 -14.5t14.5 -35.5v-57v-107v-57q0 -21 15 -35.5t35 -14.5h7q21 0 35.5 -14.5t14.5 -35.5v-57v-57q0 -21 -14.5 -35.5t-35.5 -14.5h-7q-20 0 -35 14.5t-15 35.5v57v57q0 21 -14.5 35.5t-35.5 14.5h-7q-20 0 -35 14.5
t-15 35.5v57v107v57q0 21 -14.5 35.5t-35.5 14.5h-7q-20 0 -35 14.5t-15 35.5v57v57q0 21 15 35.5t35 14.5h7q21 0 35.5 -14.5t14.5 -35.5z" />
    <glyph glyph-name="exclam" unicode="!" horiz-adv-x="207" 
d="M50 699q0 21 14.5 35.5t35.5 14.5h7q21 0 35.5 -14.5t14.5 -35.5v-57v-107v-107v-107v-57q0 -21 -14.5 -35.5t-35.5 -14.5h-7q-21 0 -35.5 14.5t-14.5 35.5v57v107v107v107v57zM100 0q-21 0 -35.5 14.5t-14.5 35.5v7q0 21 14.5 35.5t35.5 14.5h7q21 0 35.5 -14.5
t14.5 -35.5v-7q0 -21 -14.5 -35.5t-35.5 -14.5h-7z" />
    <glyph glyph-name="greater" unicode="&#x3e;" horiz-adv-x="421" 
d="M264 481q0 -21 14.5 -35.5t35.5 -14.5h7q20 0 35 -14.5t15 -35.5v-7q0 -21 -15 -35.5t-35 -14.5h-7q-21 0 -35.5 -14.5t-14.5 -35.5v-7q0 -21 -15 -35.5t-35 -14.5h-7q-21 0 -35.5 -14.5t-14.5 -35.5v-7q0 -21 -15 -35.5t-35 -14.5h-7q-21 0 -35.5 14.5t-14.5 35.5v7
q0 21 14.5 35.5t35.5 14.5h7q20 0 35 14.5t15 35.5v7q0 21 14.5 35.5t35.5 14.5h7q20 0 35 14.5t15 35.5v7q0 21 -15 35.5t-35 14.5h-7q-21 0 -35.5 14.5t-14.5 35.5v7q0 21 -15 35.5t-35 14.5h-7q-21 0 -35.5 14.5t-14.5 35.5v7q0 21 14.5 35.5t35.5 14.5h7q20 0 35 -14.5
t15 -35.5v-7q0 -21 14.5 -35.5t35.5 -14.5h7q20 0 35 -14.5t15 -35.5v-7v0z" />
    <glyph glyph-name="less" unicode="&#x3c;" horiz-adv-x="421" 
d="M157 481v7q0 21 15 35.5t35 14.5h7q21 0 35.5 14.5t14.5 35.5v7q0 21 15 35.5t35 14.5h7q21 0 35.5 -14.5t14.5 -35.5v-7q0 -21 -14.5 -35.5t-35.5 -14.5h-7q-20 0 -35 -14.5t-15 -35.5v-7q0 -21 -14.5 -35.5t-35.5 -14.5h-7q-20 0 -35 -14.5t-15 -35.5v-7
q0 -21 15 -35.5t35 -14.5h7q21 0 35.5 -14.5t14.5 -35.5v-7q0 -21 15 -35.5t35 -14.5h7q21 0 35.5 -14.5t14.5 -35.5v-7q0 -21 -14.5 -35.5t-35.5 -14.5h-7q-20 0 -35 14.5t-15 35.5v7q0 21 -14.5 35.5t-35.5 14.5h-7q-20 0 -35 14.5t-15 35.5v7q0 21 -14.5 35.5t-35.5 14.5
h-7q-20 0 -35 14.5t-15 35.5v7q0 21 15 35.5t35 14.5h7q21 0 35.5 14.5t14.5 35.5z" />
    <glyph glyph-name="quotedbl" unicode="&#x22;" horiz-adv-x="528" 
d="M371 699q0 21 14.5 35.5t35.5 14.5h7q21 0 35.5 -14.5t14.5 -35.5v-57v-57q0 -21 -14.5 -35.5t-35.5 -14.5h-7q-21 0 -35.5 -14.5t-14.5 -35.5v-7q0 -21 -14.5 -35.5t-35.5 -14.5h-7q-21 0 -35.5 14.5t-14.5 35.5v7q0 21 14.5 35.5t35.5 14.5h7q21 0 35.5 14.5t14.5 35.5
v57v57zM157 699q0 21 14.5 35.5t35.5 14.5h7q21 0 35.5 -14.5t14.5 -35.5v-57v-57q0 -21 -14.5 -35.5t-35.5 -14.5h-7q-21 0 -35.5 -14.5t-14.5 -35.5v-7q0 -21 -14.5 -35.5t-35.5 -14.5h-7q-21 0 -35.5 14.5t-14.5 35.5v7q0 21 14.5 35.5t35.5 14.5h7q21 0 35.5 14.5
t14.5 35.5v57v57z" />
    <glyph glyph-name="quotedblright" unicode="&#x201d;" horiz-adv-x="528" 
d="M371 699q0 21 14.5 35.5t35.5 14.5h7q21 0 35.5 -14.5t14.5 -35.5v-57v-57q0 -21 -14.5 -35.5t-35.5 -14.5h-7q-21 0 -35.5 -14.5t-14.5 -35.5v-7q0 -21 -14.5 -35.5t-35.5 -14.5h-7q-21 0 -35.5 14.5t-14.5 35.5v7q0 21 14.5 35.5t35.5 14.5h7q21 0 35.5 14.5t14.5 35.5
v57v57zM157 699q0 21 14.5 35.5t35.5 14.5h7q21 0 35.5 -14.5t14.5 -35.5v-57v-57q0 -21 -14.5 -35.5t-35.5 -14.5h-7q-21 0 -35.5 -14.5t-14.5 -35.5v-7q0 -21 -14.5 -35.5t-35.5 -14.5h-7q-21 0 -35.5 14.5t-14.5 35.5v7q0 21 14.5 35.5t35.5 14.5h7q21 0 35.5 14.5
t14.5 35.5v57v57z" />
    <glyph glyph-name="quotedblleft" unicode="&#x201c;" horiz-adv-x="528" 
d="M157 586q0 -21 -14.5 -35.5t-35.5 -14.5h-7q-21 0 -35.5 14.5t-14.5 35.5v57v57q0 21 14.5 35.5t35.5 14.5h7q21 0 35.5 14.5t14.5 35.5v7q0 21 14.5 35.5t35.5 14.5h7q21 0 35.5 -14.5t14.5 -35.5v-7q0 -21 -14.5 -35.5t-35.5 -14.5h-7q-21 0 -35.5 -14.5t-14.5 -35.5
v-57v-57zM371 586q0 -21 -14.5 -35.5t-35.5 -14.5h-7q-21 0 -35.5 14.5t-14.5 35.5v57v57q0 21 14.5 35.5t35.5 14.5h7q21 0 35.5 14.5t14.5 35.5v7q0 21 14.5 35.5t35.5 14.5h7q21 0 35.5 -14.5t14.5 -35.5v-7q0 -21 -14.5 -35.5t-35.5 -14.5h-7q-21 0 -35.5 -14.5
t-14.5 -35.5v-57v-57z" />
    <glyph glyph-name="at" unicode="@" horiz-adv-x="849" 
d="M692 585q0 -21 14.5 -35.5t35.5 -14.5h7q21 0 35.5 -14.5t14.5 -35.5v-57v-107v-57q0 -21 -14.5 -35.5t-35.5 -14.5h-7q-21 0 -35.5 -14.5t-14.5 -35.5v-7q0 -21 -14.5 -35.5t-35.5 -14.5h-57h-107h-57q-21 0 -35.5 14.5t-14.5 35.5v7q0 21 -14.5 35.5t-35.5 14.5h-7
q-21 0 -35.5 14.5t-14.5 35.5v57v57q0 21 14.5 35.5t35.5 14.5h7q21 0 35.5 14.5t14.5 35.5v7q0 21 14.5 35.5t35.5 14.5h7q21 0 35.5 -14.5t14.5 -35.5v-7q0 -21 14.5 -35.5t35.5 -14.5h7q21 0 35.5 -14.5t14.5 -35.5v-57v-57q0 -21 14.5 -35.5t35.5 -14.5h7
q21 0 35.5 14.5t14.5 35.5v57v107v57q0 21 -14.5 35.5t-35.5 14.5h-7q-21 0 -35.5 14.5t-14.5 35.5v7q0 21 -14.5 35.5t-35.5 14.5h-57h-107h-57q-21 0 -35.5 -14.5t-14.5 -35.5v-7q0 -21 -14.5 -35.5t-35.5 -14.5h-7q-21 0 -35.5 -14.5t-14.5 -35.5v-57v-107v-107v-57
q0 -21 14.5 -35.5t35.5 -14.5h7q21 0 35.5 -14.5t14.5 -35.5v-7q0 -21 -14.5 -35.5t-35.5 -14.5h-7q-21 0 -35.5 14.5t-14.5 35.5v7q0 21 -14.5 35.5t-35.5 14.5h-7q-21 0 -35.5 14.5t-14.5 35.5v57v107v107v57q0 21 14.5 35.5t35.5 14.5h7q21 0 35.5 14.5t14.5 35.5v7
q0 21 14.5 35.5t35.5 14.5h7q21 0 35.5 14.5t14.5 35.5v7q0 21 14.5 35.5t35.5 14.5h57h107h57q21 0 35.5 -14.5t14.5 -35.5v-7q0 -21 14.5 -35.5t35.5 -14.5h7q21 0 35.5 -14.5t14.5 -35.5v-7zM371 264q0 -21 14.5 -35.5t35.5 -14.5h7q21 0 35.5 14.5t14.5 35.5v57v57
q0 21 -14.5 35.5t-35.5 14.5h-7q-21 0 -35.5 -14.5t-14.5 -35.5v-57v-57z" />
    <glyph glyph-name="fraction" unicode="&#x2044;" horiz-adv-x="421" 
d="M264 803q0 21 14.5 35.5t35.5 14.5h7q20 0 35 -14.5t15 -35.5v-57v-57q0 -21 -15 -35.5t-35 -14.5h-7q-21 0 -35.5 -14.5t-14.5 -35.5v-57v-107v-57q0 -21 -15 -35.5t-35 -14.5h-7q-21 0 -35.5 -14.5t-14.5 -35.5v-57v-57q0 -21 -15 -35.5t-35 -14.5h-7q-21 0 -35.5 14.5
t-14.5 35.5v57v57q0 21 14.5 35.5t35.5 14.5h7q20 0 35 14.5t15 35.5v57v107v57q0 21 14.5 35.5t35.5 14.5h7q20 0 35 14.5t15 35.5v57v57v0z" />
    <glyph glyph-name="colon" unicode=":" horiz-adv-x="207" 
d="M107 486h-7q-21 0 -35.5 14.5t-14.5 35.5v7q0 21 14.5 35.5t35.5 14.5h7q21 0 35.5 -14.5t14.5 -35.5v-7q0 -21 -14.5 -35.5t-35.5 -14.5zM107 58h-7q-21 0 -35.5 14.5t-14.5 35.5v7q0 21 14.5 35.5t35.5 14.5h7q21 0 35.5 -14.5t14.5 -35.5v-7q0 -21 -14.5 -35.5
t-35.5 -14.5z" />
    <glyph glyph-name="semicolon" unicode=";" horiz-adv-x="207" 
d="M50 542q0 21 14.5 35.5t35.5 14.5h7q21 0 35.5 -14.5t14.5 -35.5v-7q0 -21 -14.5 -35.5t-35.5 -14.5h-7q-21 0 -35.5 14.5t-14.5 35.5v7zM50 57v57q0 21 14.5 35.5t35.5 14.5h7q21 0 35.5 -14.5t14.5 -35.5v-57v-57q0 -21 -14.5 -35.5t-35.5 -14.5h-7q-21 0 -35.5 14.5
t-14.5 35.5v57z" />
    <glyph glyph-name="braceright" unicode="}" horiz-adv-x="421" 
d="M264 478q0 -21 14.5 -35.5t35.5 -14.5h7q21 0 35.5 -14.5t14.5 -35.5v-7q0 -21 -14.5 -35.5t-35.5 -14.5h-7q-21 0 -35.5 -14.5t-14.5 -35.5v-57v-107v-57q0 -21 -14.5 -35.5t-35.5 -14.5h-7q-21 0 -35.5 -14.5t-14.5 -35.5v-7q0 -21 -14.5 -35.5t-35.5 -14.5h-7
q-21 0 -35.5 14.5t-14.5 35.5v7q0 21 14.5 35.5t35.5 14.5h7q21 0 35.5 14.5t14.5 35.5v57v107v107v107v107v107v57q0 21 -14.5 35.5t-35.5 14.5h-7q-21 0 -35.5 14.5t-14.5 35.5v7q0 21 14.5 35.5t35.5 14.5h7q21 0 35.5 -14.5t14.5 -35.5v-7q0 -21 14.5 -35.5t35.5 -14.5
h7q21 0 35.5 -14.5t14.5 -35.5v-57v-107v-57v0z" />
    <glyph glyph-name="braceleft" unicode="{" horiz-adv-x="421" 
d="M157 478v57v107v57q0 21 14.5 35.5t35.5 14.5h7q21 0 35.5 14.5t14.5 35.5v7q0 21 14.5 35.5t35.5 14.5h7q21 0 35.5 -14.5t14.5 -35.5v-7q0 -21 -14.5 -35.5t-35.5 -14.5h-7q-21 0 -35.5 -14.5t-14.5 -35.5v-57v-107v-107v-107v-107v-107v-57q0 -21 14.5 -35.5
t35.5 -14.5h7q21 0 35.5 -14.5t14.5 -35.5v-7q0 -21 -14.5 -35.5t-35.5 -14.5h-7q-21 0 -35.5 14.5t-14.5 35.5v7q0 21 -14.5 35.5t-35.5 14.5h-7q-21 0 -35.5 14.5t-14.5 35.5v57v107v57q0 21 -14.5 35.5t-35.5 14.5h-7q-21 0 -35.5 14.5t-14.5 35.5v7q0 21 14.5 35.5
t35.5 14.5h7q21 0 35.5 14.5t14.5 35.5z" />
    <glyph glyph-name="bracketright" unicode="]" horiz-adv-x="314" 
d="M207 856h7q21 0 35.5 -14.5t14.5 -35.5v-57v-107v-8v-99v-107v-107v-107v-107v-107v-57q0 -21 -14.5 -35.5t-35.5 -14.5h-7h-100h-7q-21 0 -35.5 14.5t-14.5 35.5v7q0 21 14.5 35.5t35.5 14.5h7q21 0 35.5 14.5t14.5 35.5v57v107v107v107v107v99v8v57q0 21 -14.5 35.5
t-35.5 14.5h-7q-21 0 -35.5 14.5t-14.5 35.5v7q0 21 14.5 35.5t35.5 14.5h7h100z" />
    <glyph glyph-name="bracketleft" unicode="[" horiz-adv-x="314" 
d="M207 856h7q21 0 35.5 -14.5t14.5 -35.5v-7q0 -21 -14.5 -35.5t-35.5 -14.5h-7q-21 0 -35.5 -14.5t-14.5 -35.5v-57v-8v-99v-107v-107v-107v-107v-57q0 -21 14.5 -35.5t35.5 -14.5h7q21 0 35.5 -14.5t14.5 -35.5v-7q0 -21 -14.5 -35.5t-35.5 -14.5h-7h-100h-7
q-21 0 -35.5 14.5t-14.5 35.5v57v107v107v107v107v107v99v8v107v57q0 21 14.5 35.5t35.5 14.5h7h100z" />
    <glyph glyph-name="asciitilde" unicode="~" horiz-adv-x="528" 
d="M371 359q0 21 14.5 35.5t35.5 14.5h7q21 0 35.5 -14.5t14.5 -35.5v-7q0 -21 -14.5 -35.5t-35.5 -14.5h-7q-21 0 -35.5 -14.5t-14.5 -35.5v-7q0 -21 -14.5 -35.5t-35.5 -14.5h-7q-21 0 -35.5 14.5t-14.5 35.5v7q0 21 -14.5 35.5t-35.5 14.5h-7q-21 0 -35.5 -14.5
t-14.5 -35.5v-7q0 -21 -14.5 -35.5t-35.5 -14.5h-7q-21 0 -35.5 14.5t-14.5 35.5v7q0 21 14.5 35.5t35.5 14.5h7q21 0 35.5 14.5t14.5 35.5v7q0 21 14.5 35.5t35.5 14.5h7q21 0 35.5 -14.5t14.5 -35.5v-7q0 -21 14.5 -35.5t35.5 -14.5h7q21 0 35.5 14.5t14.5 35.5v7v0z" />
    <glyph glyph-name="asciicircum" unicode="^" 
d="M214 641q21 0 35.5 14.5t14.5 35.5v7q0 20 14.5 35t35.5 15h7q21 0 35.5 -15t14.5 -35v-7q0 -21 14.5 -35.5t35.5 -14.5h7q21 0 35.5 -15t14.5 -35v-7q0 -21 14.5 -35.5t35.5 -14.5h7q21 0 35.5 -15t14.5 -35v-7q0 -21 -14.5 -35.5t-35.5 -14.5h-7q-21 0 -35.5 14.5
t-14.5 35.5v7q0 20 -14.5 35t-35.5 15h-7q-21 0 -35.5 14.5t-14.5 35.5v7q0 20 -14.5 35t-35.5 15h-7q-21 0 -35.5 -15t-14.5 -35v-7q0 -21 -14.5 -35.5t-35.5 -14.5h-7q-21 0 -35.5 -15t-14.5 -35v-7q0 -21 -14.5 -35.5t-35.5 -14.5h-7q-21 0 -35.5 14.5t-14.5 35.5v7
q0 20 14.5 35t35.5 15h7q21 0 35.5 14.5t14.5 35.5v7q0 20 14.5 35t35.5 15h7v0z" />
    <glyph glyph-name="equal" unicode="=" 
d="M371 407h164q21 0 35.5 -14.5t14.5 -35.5v-7q0 -21 -14.5 -35.5t-35.5 -14.5h-164h-107h-107h-57q-21 0 -35.5 14.5t-14.5 35.5v7q0 21 14.5 35.5t35.5 14.5h57h107h107zM371 193h164q21 0 35.5 -14.5t14.5 -35.5v-7q0 -21 -14.5 -35.5t-35.5 -14.5h-164h-107h-107h-57
q-21 0 -35.5 14.5t-14.5 35.5v7q0 21 14.5 35.5t35.5 14.5h57h107h107z" />
    <glyph glyph-name="question" unicode="?" 
d="M478 699q0 -20 14.5 -35t35.5 -15h7q21 0 35.5 -14.5t14.5 -35.5v-64v-64q0 -20 -14.5 -35t-35.5 -15h-7q-21 0 -35.5 -14.5t-14.5 -35.5t-14.5 -35.5t-35.5 -14.5h-7q-21 0 -35.5 -14.5t-14.5 -35.5v-7q0 -21 -14.5 -35.5t-35.5 -14.5h-7q-21 0 -35.5 14.5t-14.5 35.5
v57v57q0 21 14.5 35.5t35.5 14.5h57h57q21 0 35.5 14.5t14.5 35.5v57v57q0 21 -14.5 35.5t-35.5 14.5h-57h-4h-103h-57q-21 0 -35.5 -14.5t-14.5 -35.5v-7q0 -21 -14.5 -35.5t-35.5 -14.5h-7q-21 0 -35.5 14.5t-14.5 35.5v7q0 21 14.5 35.5t35.5 14.5h7q21 0 35.5 14.5
t14.5 35.5v7q0 21 14.5 35.5t35.5 14.5h57h103h4h57q21 0 35.5 -14.5t14.5 -35.5zM314 0q-21 0 -35.5 14.5t-14.5 35.5v7q0 21 14.5 35.5t35.5 14.5h7q21 0 35.5 -14.5t14.5 -35.5v-7q0 -21 -14.5 -35.5t-35.5 -14.5h-7z" />
    <glyph glyph-name="quoteright" unicode="&#x2019;" horiz-adv-x="314" 
d="M157 699q0 21 14.5 35.5t35.5 14.5h7q21 0 35.5 -14.5t14.5 -35.5v-57v-57q0 -21 -14.5 -35.5t-35.5 -14.5h-7q-21 0 -35.5 -14.5t-14.5 -35.5v-7q0 -21 -14.5 -35.5t-35.5 -14.5h-7q-21 0 -35.5 14.5t-14.5 35.5v7q0 21 14.5 35.5t35.5 14.5h7q21 0 35.5 14.5t14.5 35.5
v57v57v0z" />
    <glyph glyph-name="quoteleft" unicode="&#x2018;" horiz-adv-x="314" 
d="M157 586q0 -21 -14.5 -35.5t-35.5 -14.5h-7q-21 0 -35.5 14.5t-14.5 35.5v57v57q0 21 14.5 35.5t35.5 14.5h7q21 0 35.5 14.5t14.5 35.5v7q0 21 14.5 35.5t35.5 14.5h7q21 0 35.5 -14.5t14.5 -35.5v-7q0 -21 -14.5 -35.5t-35.5 -14.5h-7q-21 0 -35.5 -14.5t-14.5 -35.5
v-57v-57v0z" />
    <glyph glyph-name="underscore" unicode="_" 
d="M371 0h164q21 0 35.5 -14.5t14.5 -35.5v-7q0 -21 -14.5 -35.5t-35.5 -14.5h-164h-107h-107h-57q-21 0 -35.5 14.5t-14.5 35.5v7q0 21 14.5 35.5t35.5 14.5h57h107h107z" />
    <glyph glyph-name="grave" unicode="`" horiz-adv-x="438" 
d="M297 853l-40 41l-40 40q-15 15 -35.5 15t-35.5 -15l-5 -5q-15 -15 -35.5 -15t-35.5 15l-5 5q-15 15 -15 35.5t15 35.5l5 5q15 14 35.5 14t35.5 -14l5 -5q15 -15 35.5 -15t35.5 15l4 5q15 14 35.5 14t35.5 -14l40 -41l41 -40q15 -15 15 -35.5t-15 -35.5l-5 -5
q-15 -14 -35.5 -14t-35.5 14z" />
    <glyph glyph-name="quotedblbase" unicode="&#x201e;" horiz-adv-x="528" 
d="M371 57q0 21 14.5 35.5t35.5 14.5h7q21 0 35.5 -14.5t14.5 -35.5v-57v-57q0 -21 -14.5 -35.5t-35.5 -14.5h-7q-21 0 -35.5 -14.5t-14.5 -35.5v-7q0 -21 -14.5 -35.5t-35.5 -14.5h-7q-21 0 -35.5 14.5t-14.5 35.5v7q0 21 14.5 35.5t35.5 14.5h7q21 0 35.5 14.5t14.5 35.5
v57v57zM157 57q0 21 14.5 35.5t35.5 14.5h7q21 0 35.5 -14.5t14.5 -35.5v-57v-57q0 -21 -14.5 -35.5t-35.5 -14.5h-7q-21 0 -35.5 -14.5t-14.5 -35.5v-7q0 -21 -14.5 -35.5t-35.5 -14.5h-7q-21 0 -35.5 14.5t-14.5 35.5v7q0 21 14.5 35.5t35.5 14.5h7q21 0 35.5 14.5
t14.5 35.5v57v57z" />
    <glyph glyph-name="quotesinglbase" unicode="&#x201a;" horiz-adv-x="314" 
d="M157 57q0 21 14.5 35.5t35.5 14.5h7q21 0 35.5 -14.5t14.5 -35.5v-57v-57q0 -21 -14.5 -35.5t-35.5 -14.5h-7q-21 0 -35.5 -14.5t-14.5 -35.5v-7q0 -21 -14.5 -35.5t-35.5 -14.5h-7q-21 0 -35.5 14.5t-14.5 35.5v7q0 21 14.5 35.5t35.5 14.5h7q21 0 35.5 14.5t14.5 35.5
v57v57v0z" />
    <glyph glyph-name="bar" unicode="|" horiz-adv-x="207" 
d="M50 807q0 20 14.5 35t35.5 15h7q21 0 35.5 -15t14.5 -35v-57v-107v-107v-107v-107v-107v-107v-103v-4v-57q0 -21 -14.5 -35.5t-35.5 -14.5h-7q-21 0 -35.5 14.5t-14.5 35.5v57v4v103v107v107v107v107v107v107v57v0z" />
    <glyph glyph-name="bullet" unicode="&#x2022;" horiz-adv-x="397" 
d="M50 312q0 29 10.5 54.5t29.5 44t44.5 29.5t54.5 11h19q29 0 54.5 -11t44 -29.5t29.5 -44t11 -54.5v-19q0 -29 -11 -54.5t-29.5 -44.5t-44 -29.5t-54.5 -10.5h-19q-29 0 -54.5 10.5t-44.5 29.5t-29.5 44.5t-10.5 54.5v19v0z" />
    <glyph glyph-name="endash" unicode="&#x2013;" 
d="M371 358h164q21 0 35.5 -14.5t14.5 -35.5v-7q0 -21 -14.5 -35.5t-35.5 -14.5h-164h-107h-107h-57q-21 0 -35.5 14.5t-14.5 35.5v7q0 21 14.5 35.5t35.5 14.5h57h107h107z" />
    <glyph glyph-name="emdash" unicode="&#x2014;" horiz-adv-x="855" 
d="M371 358h384q21 0 35.5 -14.5t14.5 -35.5v-7q0 -21 -14.5 -35.5t-35.5 -14.5h-384h-107h-107h-57q-21 0 -35.5 14.5t-14.5 35.5v7q0 21 14.5 35.5t35.5 14.5h57h107h107z" />
    <glyph glyph-name="threequarters" unicode="&#xbe;" horiz-adv-x="1596" 
d="M478 692q0 -21 14.5 -35.5t35.5 -14.5h7q21 0 35.5 -14.5t14.5 -35.5v-57v-57q0 -21 -14.5 -35.5t-35.5 -14.5h-7q-21 0 -35.5 -14.5t-14.5 -35.5v-7q0 -21 14.5 -35.5t35.5 -14.5h7q21 0 35.5 -14.5t14.5 -35.5v-57v-57q0 -21 -14.5 -35.5t-35.5 -14.5h-7
q-21 0 -35.5 -14.5t-14.5 -35.5v-7q0 -21 -14.5 -35.5t-35.5 -14.5h-57h-107h-57q-21 0 -35.5 14.5t-14.5 35.5v7q0 21 -14.5 35.5t-35.5 14.5h-7q-21 0 -35.5 14.5t-14.5 35.5v7q0 21 14.5 35.5t35.5 14.5h7q21 0 35.5 -14.5t14.5 -35.5v-7q0 -21 14.5 -35.5t35.5 -14.5h57
h107h57q21 0 35.5 14.5t14.5 35.5v57v57q0 21 -14.5 35.5t-35.5 14.5h-57h-57q-21 0 -35.5 14.5t-14.5 35.5v7q0 21 14.5 35.5t35.5 14.5h57h57q21 0 35.5 14.5t14.5 35.5v57v57q0 21 -14.5 35.5t-35.5 14.5h-57h-107h-57q-21 0 -35.5 -14.5t-14.5 -35.5v-7
q0 -21 -14.5 -35.5t-35.5 -14.5h-7q-21 0 -35.5 14.5t-14.5 35.5v7q0 21 14.5 35.5t35.5 14.5h7q21 0 35.5 14.5t14.5 35.5v7q0 21 14.5 35.5t35.5 14.5h57h107h57q21 0 35.5 -14.5t14.5 -35.5v-7v0zM858 699q0 21 14.5 35.5t35.5 14.5h7q20 0 35 -14.5t15 -35.5v-57v-57
q0 -21 -15 -35.5t-35 -14.5h-7q-21 0 -35.5 -14.5t-14.5 -35.5v-57v-107v-57q0 -21 -15 -35.5t-35 -14.5h-7q-21 0 -35.5 -14.5t-14.5 -35.5v-57v-57q0 -21 -15 -35.5t-35 -14.5h-7q-21 0 -35.5 14.5t-14.5 35.5v57v57q0 21 14.5 35.5t35.5 14.5h7q20 0 35 14.5t15 35.5v57
v107v57q0 21 14.5 35.5t35.5 14.5h7q20 0 35 14.5t15 35.5v57v57v0zM1439 264q0 -21 14.5 -35.5t35.5 -14.5h7q21 0 35.5 -14.5t14.5 -35.5v-7q0 -21 -14.5 -35.5t-35.5 -14.5h-7q-21 0 -35.5 -14.5t-14.5 -35.5v-7q0 -21 -14.5 -35.5t-35.5 -14.5h-7q-21 0 -35.5 14.5
t-14.5 35.5v7q0 21 -14.5 35.5t-35.5 14.5h-57h-107h-57q-21 0 -35.5 14.5t-14.5 35.5v57v107v107v57q0 21 14.5 35.5t35.5 14.5h7q21 0 35.5 14.5t14.5 35.5v7q0 21 14.5 35.5t35.5 14.5h7q21 0 35.5 14.5t14.5 35.5v7q0 21 14.5 35.5t35.5 14.5h57h57q21 0 35.5 -14.5
t14.5 -35.5v-57v-107v-107v-107v-57zM1225 214h57q21 0 35.5 14.5t14.5 35.5v57v107v107v57q0 21 -14.5 35.5t-35.5 14.5h-7q-21 0 -35.5 -14.5t-14.5 -35.5v-7q0 -21 -14.5 -35.5t-35.5 -14.5h-7q-21 0 -35.5 -14.5t-14.5 -35.5v-57v-107v-57q0 -21 14.5 -35.5t35.5 -14.5
h57z" />
    <glyph glyph-name="onehalf" unicode="&#xbd;" horiz-adv-x="1271" 
d="M157 699q0 21 14.5 35.5t35.5 14.5h7q21 0 35.5 -14.5t14.5 -35.5v-57v-107v-107v-107v-107v-107v-57q0 -21 -14.5 -35.5t-35.5 -14.5h-7q-21 0 -35.5 14.5t-14.5 35.5v57v107v107v107v57q0 21 -14.5 35.5t-35.5 14.5h-7q-21 0 -35.5 14.5t-14.5 35.5v7q0 21 14.5 35.5
t35.5 14.5h7q21 0 35.5 14.5t14.5 35.5v7v0zM528 699q0 21 14.5 35.5t35.5 14.5h7q20 0 35 -14.5t15 -35.5v-57v-57q0 -21 -15 -35.5t-35 -14.5h-7q-21 0 -35.5 -14.5t-14.5 -35.5v-57v-107v-57q0 -21 -15 -35.5t-35 -14.5h-7q-21 0 -35.5 -14.5t-14.5 -35.5v-57v-57
q0 -21 -15 -35.5t-35 -14.5h-7q-21 0 -35.5 14.5t-14.5 35.5v57v57q0 21 14.5 35.5t35.5 14.5h7q20 0 35 14.5t15 35.5v57v107v57q0 21 14.5 35.5t35.5 14.5h7q20 0 35 14.5t15 35.5v57v57v0zM1114 692q0 -21 14.5 -35.5t35.5 -14.5h7q21 0 35.5 -14.5t14.5 -35.5v-57v-57
q0 -21 -14.5 -35.5t-35.5 -14.5h-7q-21 0 -35.5 -14.5t-14.5 -35.5v-7q0 -21 -14.5 -35.5t-35.5 -14.5h-7q-21 0 -35.5 -14.5t-14.5 -35.5v-7q0 -21 -14.5 -35.5t-35.5 -14.5h-7q-21 0 -35.5 -14.5t-14.5 -35.5v-7q0 -21 14.5 -35.5t35.5 -14.5h57h107h57q21 0 35.5 -14.5
t14.5 -35.5v-7q0 -21 -14.5 -35.5t-35.5 -14.5h-57h-107h-107h-107h-57q-21 0 -35.5 14.5t-14.5 35.5v7q0 21 14.5 35.5t35.5 14.5h7q21 0 35.5 14.5t14.5 35.5v7q0 21 14.5 35.5t35.5 14.5h7q21 0 35.5 14.5t14.5 35.5v7q0 21 14.5 35.5t35.5 14.5h7q21 0 35.5 14.5
t14.5 35.5v7q0 21 14.5 35.5t35.5 14.5h7q21 0 35.5 14.5t14.5 35.5v57v57q0 21 -14.5 35.5t-35.5 14.5h-57h-107h-57q-21 0 -35.5 -14.5t-14.5 -35.5v-57v-57q0 -21 -14.5 -35.5t-35.5 -14.5h-7q-21 0 -35.5 14.5t-14.5 35.5v57v57q0 21 14.5 35.5t35.5 14.5h7
q21 0 35.5 14.5t14.5 35.5v7q0 21 14.5 35.5t35.5 14.5h57h107h57q21 0 35.5 -14.5t14.5 -35.5v-7v0z" />
    <glyph glyph-name="onequarter" unicode="&#xbc;" horiz-adv-x="1266" 
d="M157 699q0 21 14.5 35.5t35.5 14.5h7q21 0 35.5 -14.5t14.5 -35.5v-57v-107v-107v-107v-107v-107v-57q0 -21 -14.5 -35.5t-35.5 -14.5h-7q-21 0 -35.5 14.5t-14.5 35.5v57v107v107v107v57q0 21 -14.5 35.5t-35.5 14.5h-7q-21 0 -35.5 14.5t-14.5 35.5v7q0 21 14.5 35.5
t35.5 14.5h7q21 0 35.5 14.5t14.5 35.5v7v0zM528 699q0 21 14.5 35.5t35.5 14.5h7q20 0 35 -14.5t15 -35.5v-57v-57q0 -21 -15 -35.5t-35 -14.5h-7q-21 0 -35.5 -14.5t-14.5 -35.5v-57v-107v-57q0 -21 -15 -35.5t-35 -14.5h-7q-21 0 -35.5 -14.5t-14.5 -35.5v-57v-57
q0 -21 -15 -35.5t-35 -14.5h-7q-21 0 -35.5 14.5t-14.5 35.5v57v57q0 21 14.5 35.5t35.5 14.5h7q20 0 35 14.5t15 35.5v57v107v57q0 21 14.5 35.5t35.5 14.5h7q20 0 35 14.5t15 35.5v57v57v0zM1109 264q0 -21 14.5 -35.5t35.5 -14.5h7q21 0 35.5 -14.5t14.5 -35.5v-7
q0 -21 -14.5 -35.5t-35.5 -14.5h-7q-21 0 -35.5 -14.5t-14.5 -35.5v-7q0 -21 -14.5 -35.5t-35.5 -14.5h-7q-21 0 -35.5 14.5t-14.5 35.5v7q0 21 -14.5 35.5t-35.5 14.5h-57h-107h-57q-21 0 -35.5 14.5t-14.5 35.5v57v107v107v57q0 21 14.5 35.5t35.5 14.5h7q21 0 35.5 14.5
t14.5 35.5v7q0 21 14.5 35.5t35.5 14.5h7q21 0 35.5 14.5t14.5 35.5v7q0 21 14.5 35.5t35.5 14.5h57h57q21 0 35.5 -14.5t14.5 -35.5v-57v-107v-107v-107v-57zM895 214h57q21 0 35.5 14.5t14.5 35.5v57v107v107v57q0 21 -14.5 35.5t-35.5 14.5h-7q-21 0 -35.5 -14.5
t-14.5 -35.5v-7q0 -21 -14.5 -35.5t-35.5 -14.5h-7q-21 0 -35.5 -14.5t-14.5 -35.5v-57v-107v-57q0 -21 14.5 -35.5t35.5 -14.5h57z" />
    <glyph glyph-name="guillemotright" unicode="&#xbb;" horiz-adv-x="691" 
d="M534 481q0 -21 14.5 -35.5t35.5 -14.5h7q20 0 35 -14.5t15 -35.5v-7q0 -21 -15 -35.5t-35 -14.5h-7q-21 0 -35.5 -14.5t-14.5 -35.5v-7q0 -21 -15 -35.5t-35 -14.5h-7q-21 0 -35.5 -14.5t-14.5 -35.5v-7q0 -21 -15 -35.5t-35 -14.5h-7q-21 0 -35.5 14.5t-14.5 35.5v7
q0 21 14.5 35.5t35.5 14.5h7q20 0 35 14.5t15 35.5v7q0 21 14.5 35.5t35.5 14.5h7q20 0 35 14.5t15 35.5v7q0 21 -15 35.5t-35 14.5h-7q-21 0 -35.5 14.5t-14.5 35.5v7q0 21 -15 35.5t-35 14.5h-7q-21 0 -35.5 14.5t-14.5 35.5v7q0 21 14.5 35.5t35.5 14.5h7q20 0 35 -14.5
t15 -35.5v-7q0 -21 14.5 -35.5t35.5 -14.5h7q20 0 35 -14.5t15 -35.5v-7zM264 481q0 -21 14.5 -35.5t35.5 -14.5h7q20 0 35 -14.5t15 -35.5v-7q0 -21 -15 -35.5t-35 -14.5h-7q-21 0 -35.5 -14.5t-14.5 -35.5v-7q0 -21 -15 -35.5t-35 -14.5h-7q-21 0 -35.5 -14.5t-14.5 -35.5
v-7q0 -21 -15 -35.5t-35 -14.5h-7q-21 0 -35.5 14.5t-14.5 35.5v7q0 21 14.5 35.5t35.5 14.5h7q20 0 35 14.5t15 35.5v7q0 21 14.5 35.5t35.5 14.5h7q20 0 35 14.5t15 35.5v7q0 21 -15 35.5t-35 14.5h-7q-21 0 -35.5 14.5t-14.5 35.5v7q0 21 -15 35.5t-35 14.5h-7
q-21 0 -35.5 14.5t-14.5 35.5v7q0 21 14.5 35.5t35.5 14.5h7q20 0 35 -14.5t15 -35.5v-7q0 -21 14.5 -35.5t35.5 -14.5h7q20 0 35 -14.5t15 -35.5v-7z" />
    <glyph glyph-name="ordmasculine" unicode="&#xba;" 
d="M478 585q0 -21 14.5 -35.5t35.5 -14.5h7q20 0 35 -14.5t15 -35.5v-57v-2v-105v-107v-58q0 -21 -15 -35.5t-35 -14.5h-7q-21 0 -35.5 -14.5t-14.5 -35.5v-6q0 -21 -15 -35.5t-35 -14.5h-57h-107h-57q-21 0 -35.5 14.5t-14.5 35.5v6q0 21 -15 35.5t-35 14.5h-7
q-21 0 -35.5 14.5t-14.5 35.5v57v107v106v2v57q0 21 14.5 35.5t35.5 14.5h7q20 0 35 14.5t15 35.5v7q0 21 14.5 35.5t35.5 14.5h57h107h57q20 0 35 -14.5t15 -35.5v-7zM478 428v57q0 21 -15 35.5t-35 14.5h-57h-107h-57q-21 0 -35.5 -14.5t-14.5 -35.5v-57v-2v-106v-107v-56
q0 -21 14.5 -35.5t35.5 -14.5h57h107h57q20 0 35 14.5t15 35.5v57v107v105v2z" />
    <glyph glyph-name="onesuperior" unicode="&#xb9;" horiz-adv-x="314" 
d="M157 699q0 21 14.5 35.5t35.5 14.5h7q21 0 35.5 -14.5t14.5 -35.5v-57v-107v-107v-107v-107v-107v-57q0 -21 -14.5 -35.5t-35.5 -14.5h-7q-21 0 -35.5 14.5t-14.5 35.5v57v107v107v107v57q0 21 -14.5 35.5t-35.5 14.5h-7q-21 0 -35.5 14.5t-14.5 35.5v7q0 21 14.5 35.5
t35.5 14.5h7q21 0 35.5 14.5t14.5 35.5v7v0z" />
    <glyph glyph-name="cedilla" unicode="&#xb8;" horiz-adv-x="314" 
d="M157 -80q0 21 14.5 35.5t35.5 14.5h7q21 0 35.5 -14.5t14.5 -35.5v-57v-57q0 -21 -14.5 -35.5t-35.5 -14.5h-7q-21 0 -35.5 -14.5t-14.5 -35.5v-7q0 -21 -14.5 -35.5t-35.5 -14.5h-7q-21 0 -35.5 14.5t-14.5 35.5v7q0 21 14.5 35.5t35.5 14.5h7q21 0 35.5 14.5t14.5 35.5
v57v57v0z" />
    <glyph glyph-name="periodcentered" unicode="&#xb7;" horiz-adv-x="833" 
 />
    <glyph glyph-name="questiondown" unicode="&#xbf;" 
d="M478 50.043q0 19.998 14.5 34.998q14.5 14.999 35.5 14.999h7q21 0 35.5 14.499t14.5 35.4971v63.9961v63.9961q0 19.999 -14.5 34.998t-35.5 14.999h-7q-21 0 -35.5 14.499t-14.5 35.498t-14.5 35.498t-35.5 14.499h-7q-21 0 -35.5 14.499t-14.5 35.498v6.99902
q0 20.999 -14.5 35.498t-35.5 14.499h-7q-21 0 -35.5 -14.499t-14.5 -35.498v-56.9961v-56.9961q0 -20.999 14.5 -35.498t35.5 -14.499h57h57q21 0 35.5 -14.499t14.5 -35.498v-56.9971v-56.9961q0 -20.999 -14.5 -35.498t-35.5 -14.499h-57h-4h-103h-57q-21 0 -35.5 14.499
t-14.5 35.498v7q0 20.998 -14.5 35.4971t-35.5 14.499h-7q-21 0 -35.5 -14.499t-14.5 -35.4971v-7q0 -20.999 14.5 -35.498t35.5 -14.499h7q21 0 35.5 -14.499t14.5 -35.498v-6.99902q0 -20.999 14.5 -35.498t35.5 -14.499h57h103h4h57q21 0 35.5 14.499t14.5 35.498z
M314 749q-21 0 -35.5 -14.499t-14.5 -35.498v-6.99902q0 -20.999 14.5 -35.498t35.5 -14.499h7q21 0 35.5 14.499t14.5 35.498v6.99902q0 20.999 -14.5 35.498t-35.5 14.499h-7z" />
    <glyph glyph-name="Ydieresis" unicode="&#x178;" horiz-adv-x="638" 
d="M481 906v7q0 21 14.5 35.5t35.5 14.5h7q21 0 35.5 -14.5t14.5 -35.5v-7q0 -21 -14.5 -35.5t-35.5 -14.5h-7q-21 0 -35.5 14.5t-14.5 35.5zM53 906v7q0 21 14.5 35.5t35.5 14.5h7q21 0 35.5 -14.5t14.5 -35.5v-7q0 -21 -14.5 -35.5t-35.5 -14.5h-7q-21 0 -35.5 14.5
t-14.5 35.5zM478 699v-57v-107v-57q0 -21 -15 -35.5t-35 -14.5h-7q-21 0 -35.5 -14.5t-14.5 -35.5v-7q0 -21 -15 -35.5t-35 -14.5h-7q-21 0 -35.5 14.5t-14.5 35.5v7q0 20 -15 35t-35 15h-7q-21 0 -35.5 14.5t-14.5 35.5v57v107v57q0 20 -15 35t-35 15h-7q-21 0 -35.5 -15
t-14.5 -35v-57v-107v-57q0 -21 14.5 -35.5t35.5 -14.5h7q20 0 35 -15t15 -35v-7q0 -21 14.5 -35.5t35.5 -14.5h7q20 0 35 -15t15 -35v-57v-57q0 -21 -15 -35.5t-35 -14.5h-7q-21 0 -35.5 -14.5t-14.5 -35.5v-7q0 -21 14.5 -35.5t35.5 -14.5h57h107h57q20 0 35 14.5t15 35.5
v7q0 21 -15 35.5t-35 14.5h-7q-21 0 -35.5 14.5t-14.5 35.5v57v57q0 21 14.5 35.5t35.5 14.5h7q20 0 35 14.5t15 35.5v7q0 21 14.5 35.5t35.5 14.5h7q20 0 35 14.5t15 35.5v57v107v57q0 21 -15 35.5t-35 14.5h-7q-21 0 -35.5 -14.5t-14.5 -35.5z" />
    <glyph glyph-name="scaron" unicode="&#x161;" 
d="M585 479q0 -21 -15 -35.5t-35 -14.5h-7q-21 0 -35.5 14.5t-14.5 35.5v7q0 21 -15 35.5t-35 14.5h-57h-107h-57q-21 0 -35.5 -14.5t-14.5 -35.5v-7q0 -21 14.5 -35.5t35.5 -14.5h7q21 0 35.5 -14.5t14.5 -35.5v-7q0 -21 14.5 -35.5t35.5 -14.5h57h57q20 0 35 -14.5
t15 -35.5v-7q0 -21 14.5 -35.5t35.5 -14.5h7q20 0 35 -14.5t15 -35.5v-8q0 -21 -15 -35.5t-35 -14.5h-7q-21 0 -35.5 -14.5t-14.5 -35.5v-7q0 -21 -15 -35.5t-35 -14.5h-57h-107h-57q-21 0 -35.5 14.5t-14.5 35.5v7q0 21 -15 35.5t-35 14.5h-7q-21 0 -35.5 14.5t-14.5 35.5
v8q0 21 14.5 35.5t35.5 14.5h7q20 0 35 -14.5t15 -35.5v-7q0 -21 14.5 -35.5t35.5 -14.5h57h107h57q20 0 35 14.5t15 35.5v7q0 21 -15 35.5t-35 14.5h-57h-57q-21 0 -35.5 14.5t-14.5 35.5v7q0 21 -15 35.5t-35 14.5h-7q-21 0 -35.5 14.5t-14.5 35.5v7q0 21 -14.5 35.5
t-35.5 14.5h-7q-21 0 -35.5 14.5t-14.5 35.5v7q0 21 14.5 35.5t35.5 14.5h7q20 0 35 14.5t15 35.5v7q0 21 14.5 35.5t35.5 14.5h57h107h57q20 0 35 -14.5t15 -35.5v-7q0 -21 14.5 -35.5t35.5 -14.5h7q20 0 35 -14.5t15 -35.5v-7v0z" />
    <glyph glyph-name="OE" unicode="&#x152;" horiz-adv-x="1080" 
d="M495 692q0 -21 14.5 -35.5t35.5 -14.5h7q21 0 35.5 -14.5t14.5 -35.5v-57v-107v-107v-107v-59q0 -21 -14.5 -35.5t-35.5 -14.5h-5q-20 0 -35 -15t-15 -35v-5q0 -21 -14.5 -35.5t-35.5 -14.5h-59h-107h-57q-21 0 -35.5 14.5t-14.5 35.5v6q0 21 -14.5 35.5t-35.5 14.5h-7
q-21 0 -35.5 14.5t-14.5 35.5v57v107v108v107v57q0 21 14.5 35.5t35.5 14.5h7q21 0 35.5 14.5t14.5 35.5v7q0 21 14.5 35.5t35.5 14.5h57h107h57q21 0 35.5 -14.5t14.5 -35.5v-7zM495 428v107v57q0 21 -14.5 35.5t-35.5 14.5h-57h-107h-57q-21 0 -35.5 -14.5t-14.5 -35.5
v-57v-107v-108v-107v-56q0 -21 14.5 -35.5t35.5 -14.5h57h107h57q21 0 35.5 14.5t14.5 35.5v57v107v107zM709 214h-57q-21 0 -35.5 -14.5t-14.5 -35.5v-7q0 -21 14.5 -35.5t35.5 -14.5h57h107h107h57q21 0 35.5 -14.5t14.5 -35.5v-7q0 -21 -14.5 -35.5t-35.5 -14.5h-57h-107
h-107h-57q-21 0 -35.5 14.5t-14.5 35.5v7q0 21 -14.5 35.5t-35.5 14.5h-7q-21 0 -35.5 14.5t-14.5 35.5v57v107v107v107v57q0 21 14.5 35.5t35.5 14.5h7q21 0 35.5 14.5t14.5 35.5v7q0 21 14.5 35.5t35.5 14.5h57h107h107h57q21 0 35.5 -14.5t14.5 -35.5v-7
q0 -21 -14.5 -35.5t-35.5 -14.5h-57h-107h-107h-57q-21 0 -35.5 -14.5t-14.5 -35.5v-57v-107v-57q0 -21 14.5 -35.5t35.5 -14.5h57h107h107h57q21 0 35.5 -14.5t14.5 -35.5v-7q0 -21 -14.5 -35.5t-35.5 -14.5h-57h-107h-107z" />
    <glyph glyph-name="Scaron" unicode="&#x160;" 
d="M585 586q0 -21 -14.5 -35.5t-35.5 -14.5h-7q-21 0 -35.5 14.5t-14.5 35.5v7q0 21 -14.5 35.5t-35.5 14.5h-57h-107h-57q-21 0 -35.5 -14.5t-14.5 -35.5v-57v-57q0 -21 14.5 -35.5t35.5 -14.5h57h107h57q21 0 35.5 -14.5t14.5 -35.5v-7q0 -21 14.5 -35.5t35.5 -14.5h7
q21 0 35.5 -14.5t14.5 -35.5v-57v-1v-57q0 -21 -14.5 -35.5t-35.5 -14.5h-7q-21 0 -35.5 -14.5t-14.5 -35.5v-7q0 -21 -14.5 -35.5t-35.5 -14.5h-57h-107h-57q-21 0 -35.5 14.5t-14.5 35.5v7q0 21 -14.5 35.5t-35.5 14.5h-7q-21 0 -35.5 14.5t-14.5 35.5v8q0 21 14.5 35.5
t35.5 14.5h7q21 0 35.5 -14.5t14.5 -35.5v-7q0 -21 14.5 -35.5t35.5 -14.5h57h107h57q21 0 35.5 14.5t14.5 35.5v56v1v56q0 21 -14.5 35.5t-35.5 14.5h-57h-107h-57q-21 0 -35.5 14.5t-14.5 35.5v8q0 21 -14.5 35.5t-35.5 14.5h-7q-21 0 -35.5 14.5t-14.5 35.5v57v57
q0 21 14.5 35.5t35.5 14.5h7q21 0 35.5 14.5t14.5 35.5v7q0 21 14.5 35.5t35.5 14.5h57h107h57q21 0 35.5 -14.5t14.5 -35.5v-7q0 -21 14.5 -35.5t35.5 -14.5h7q21 0 35.5 -14.5t14.5 -35.5v-7v0z" />
    <glyph glyph-name="perthousand" unicode="&#x2030;" horiz-adv-x="421" 
d="M264 803q0 21 14.5 35.5t35.5 14.5h7q20 0 35 -14.5t15 -35.5v-57v-57q0 -21 -15 -35.5t-35 -14.5h-7q-21 0 -35.5 -14.5t-14.5 -35.5v-57v-107v-57q0 -21 -15 -35.5t-35 -14.5h-7q-21 0 -35.5 -14.5t-14.5 -35.5v-57v-57q0 -21 -15 -35.5t-35 -14.5h-7q-21 0 -35.5 14.5
t-14.5 35.5v57v57q0 21 14.5 35.5t35.5 14.5h7q20 0 35 14.5t15 35.5v57v107v57q0 21 14.5 35.5t35.5 14.5h7q20 0 35 14.5t15 35.5v57v57v0z" />
    <glyph glyph-name="circumflex" unicode="&#x2c6;" horiz-adv-x="421" 
d="M264 1014q0 -21 15 -35.5t35 -14.5h7q21 0 35.5 -15t14.5 -35v-7q0 -21 -14.5 -35.5t-35.5 -14.5h-7q-20 0 -35 14.5t-15 35.5v7q0 20 -14.5 35t-35.5 15h-7q-20 0 -35 -15t-15 -35v-7q0 -21 -14.5 -35.5t-35.5 -14.5h-7q-20 0 -35 14.5t-15 35.5v7q0 20 15 35t35 15h7
q21 0 35.5 14.5t14.5 35.5v7q0 20 15 35t35 15h7q21 0 35.5 -15t14.5 -35v-7v0z" />
    <glyph glyph-name="daggerdbl" unicode="&#x2021;" 
d="M52 807q0 20 14.5 35t35.5 15h7q21 0 35.5 -15t14.5 -35v-57v-107v-107v-107v-107v-107v-107v-103v-4v-57q0 -21 -14.5 -35.5t-35.5 -14.5h-7q-21 0 -35.5 14.5t-14.5 35.5v57v4v103v107v107v107v107v107v107v57zM371 407h164q21 0 35.5 -14.5t14.5 -35.5v-7
q0 -21 -14.5 -35.5t-35.5 -14.5h-164h-107h-107h-57q-21 0 -35.5 14.5t-14.5 35.5v7q0 21 14.5 35.5t35.5 14.5h57h107h107zM371 193h164q21 0 35.5 -14.5t14.5 -35.5v-7q0 -21 -14.5 -35.5t-35.5 -14.5h-164h-107h-107h-57q-21 0 -35.5 14.5t-14.5 35.5v7q0 21 14.5 35.5
t35.5 14.5h57h107h107z" />
    <glyph glyph-name="dagger" unicode="&#x2020;" horiz-adv-x="665" 
d="M50 807q0 20 14.5 35t35.5 15h7q21 0 35.5 -15t14.5 -35v-57v-107v-107v-107v-107v-107v-107v-103v-4v-57q0 -21 -14.5 -35.5t-35.5 -14.5h-7q-21 0 -35.5 14.5t-14.5 35.5v57v4v103v107v107v107v107v107v107v57zM401 358h164q21 0 35.5 -14.5t14.5 -35.5v-7
q0 -21 -14.5 -35.5t-35.5 -14.5h-164h-107h-107h-57q-21 0 -35.5 14.5t-14.5 35.5v7q0 21 14.5 35.5t35.5 14.5h57h107h107z" />
    <glyph glyph-name="ellipsis" unicode="&#x2026;" horiz-adv-x="561" 
d="M50 57q0 21 14.5 35.5t35.5 14.5h7q21 0 35.5 -14.5t14.5 -35.5v-7q0 -21 -14.5 -35.5t-35.5 -14.5h-7q-21 0 -35.5 14.5t-14.5 35.5v7zM227 57q0 21 14.5 35.5t35.5 14.5h7q21 0 35.5 -14.5t14.5 -35.5v-7q0 -21 -14.5 -35.5t-35.5 -14.5h-7q-21 0 -35.5 14.5
t-14.5 35.5v7zM404 57q0 21 14.5 35.5t35.5 14.5h7q21 0 35.5 -14.5t14.5 -35.5v-7q0 -21 -14.5 -35.5t-35.5 -14.5h-7q-21 0 -35.5 14.5t-14.5 35.5v7z" />
    <glyph glyph-name="florin" unicode="&#x192;" 
d="M585 692q0 -21 -14.5 -35.5t-35.5 -14.5h-7q-21 0 -35.5 14.5t-14.5 35.5v7q0 21 -14.5 35.5t-35.5 14.5h-57h-57q-21 0 -35.5 -14.5t-14.5 -35.5v-57v-107v-107v-107h107h107h57q21 0 35.5 -14.5t14.5 -35.5v-7q0 -21 -14.5 -35.5t-35.5 -14.5h-57h-107h-57
q-21 0 -35.5 -14.5t-14.5 -35.5v-57v-57q0 -21 -14.5 -35.5t-35.5 -14.5h-7q-21 0 -35.5 14.5t-14.5 35.5v57v57q0 21 -14.5 35.5t-35.5 14.5h-7q-21 0 -35.5 14.5t-14.5 35.5v7q0 21 14.5 35.5t35.5 14.5h7q21 0 35.5 14.5t14.5 35.5v57v107v107v57q0 21 14.5 35.5
t35.5 14.5h7q21 0 35.5 14.5t14.5 35.5v7q0 21 14.5 35.5t35.5 14.5h57h57q21 0 35.5 -14.5t14.5 -35.5v-7q0 -21 14.5 -35.5t35.5 -14.5h7q21 0 35.5 -14.5t14.5 -35.5v-7v0z" />
    <glyph glyph-name="registered" unicode="&#xae;" horiz-adv-x="833" 
 />
    <glyph glyph-name="plusminus" unicode="&#xb1;" 
d="M478 528h57q21 0 35.5 -14.5t14.5 -35.5v-7q0 -21 -14.5 -35.5t-35.5 -14.5h-57h-57q-21 0 -35.5 -14.5t-14.5 -35.5v-57v-57q0 -21 -14.5 -35.5t-35.5 -14.5h-7q-21 0 -35.5 14.5t-14.5 35.5v57v57q0 21 -14.5 35.5t-35.5 14.5h-57h-57q-21 0 -35.5 14.5t-14.5 35.5v7
q0 21 14.5 35.5t35.5 14.5h57h57q21 0 35.5 14.5t14.5 35.5v57v57q0 21 14.5 35.5t35.5 14.5h7q21 0 35.5 -14.5t14.5 -35.5v-57v-57q0 -21 14.5 -35.5t35.5 -14.5h57zM371 108h164q21 0 35.5 -14.5t14.5 -35.5v-7q0 -21 -14.5 -35.5t-35.5 -14.5h-164h-107h-107h-57
q-21 0 -35.5 14.5t-14.5 35.5v7q0 21 14.5 35.5t35.5 14.5h57h107h107z" />
    <glyph glyph-name="twosuperior" unicode="&#xb2;" 
d="M478 692q0 -21 14.5 -35.5t35.5 -14.5h7q21 0 35.5 -14.5t14.5 -35.5v-57v-57q0 -21 -14.5 -35.5t-35.5 -14.5h-7q-21 0 -35.5 -14.5t-14.5 -35.5v-7q0 -21 -14.5 -35.5t-35.5 -14.5h-7q-21 0 -35.5 -14.5t-14.5 -35.5v-7q0 -21 -14.5 -35.5t-35.5 -14.5h-7
q-21 0 -35.5 -14.5t-14.5 -35.5v-7q0 -21 14.5 -35.5t35.5 -14.5h57h107h57q21 0 35.5 -14.5t14.5 -35.5v-7q0 -21 -14.5 -35.5t-35.5 -14.5h-57h-107h-107h-107h-57q-21 0 -35.5 14.5t-14.5 35.5v7q0 21 14.5 35.5t35.5 14.5h7q21 0 35.5 14.5t14.5 35.5v7q0 21 14.5 35.5
t35.5 14.5h7q21 0 35.5 14.5t14.5 35.5v7q0 21 14.5 35.5t35.5 14.5h7q21 0 35.5 14.5t14.5 35.5v7q0 21 14.5 35.5t35.5 14.5h7q21 0 35.5 14.5t14.5 35.5v57v57q0 21 -14.5 35.5t-35.5 14.5h-57h-107h-57q-21 0 -35.5 -14.5t-14.5 -35.5v-57v-57q0 -21 -14.5 -35.5
t-35.5 -14.5h-7q-21 0 -35.5 14.5t-14.5 35.5v57v57q0 21 14.5 35.5t35.5 14.5h7q21 0 35.5 14.5t14.5 35.5v7q0 21 14.5 35.5t35.5 14.5h57h107h57q21 0 35.5 -14.5t14.5 -35.5v-7v0z" />
    <glyph glyph-name="threesuperior" unicode="&#xb3;" 
d="M478 692q0 -21 14.5 -35.5t35.5 -14.5h7q21 0 35.5 -14.5t14.5 -35.5v-57v-57q0 -21 -14.5 -35.5t-35.5 -14.5h-7q-21 0 -35.5 -14.5t-14.5 -35.5v-7q0 -21 14.5 -35.5t35.5 -14.5h7q21 0 35.5 -14.5t14.5 -35.5v-57v-57q0 -21 -14.5 -35.5t-35.5 -14.5h-7
q-21 0 -35.5 -14.5t-14.5 -35.5v-7q0 -21 -14.5 -35.5t-35.5 -14.5h-57h-107h-57q-21 0 -35.5 14.5t-14.5 35.5v7q0 21 -14.5 35.5t-35.5 14.5h-7q-21 0 -35.5 14.5t-14.5 35.5v7q0 21 14.5 35.5t35.5 14.5h7q21 0 35.5 -14.5t14.5 -35.5v-7q0 -21 14.5 -35.5t35.5 -14.5h57
h107h57q21 0 35.5 14.5t14.5 35.5v57v57q0 21 -14.5 35.5t-35.5 14.5h-57h-57q-21 0 -35.5 14.5t-14.5 35.5v7q0 21 14.5 35.5t35.5 14.5h57h57q21 0 35.5 14.5t14.5 35.5v57v57q0 21 -14.5 35.5t-35.5 14.5h-57h-107h-57q-21 0 -35.5 -14.5t-14.5 -35.5v-7
q0 -21 -14.5 -35.5t-35.5 -14.5h-7q-21 0 -35.5 14.5t-14.5 35.5v7q0 21 14.5 35.5t35.5 14.5h7q21 0 35.5 14.5t14.5 35.5v7q0 21 14.5 35.5t35.5 14.5h57h107h57q21 0 35.5 -14.5t14.5 -35.5v-7v0z" />
    <glyph glyph-name="acute" unicode="&#xb4;" horiz-adv-x="314" 
d="M157 826q0 -21 -14.5 -35.5t-35.5 -14.5h-7q-21 0 -35.5 14.5t-14.5 35.5v57v57q0 21 14.5 35.5t35.5 14.5h7q21 0 35.5 14.5t14.5 35.5v7q0 21 14.5 35.5t35.5 14.5h7q21 0 35.5 -14.5t14.5 -35.5v-7q0 -21 -14.5 -35.5t-35.5 -14.5h-7q-21 0 -35.5 -14.5t-14.5 -35.5
v-57v-57v0z" />
    <glyph glyph-name="paragraph" unicode="&#xb6;" horiz-adv-x="833" 
 />
    <glyph glyph-name="degree" unicode="&#xb0;" horiz-adv-x="421" 
d="M321 750q20 0 35 -14.5t15 -35.5v-7q0 -21 -15 -35.5t-35 -14.5h-7q-21 0 -35.5 -14.5t-14.5 -35.5v-7q0 -21 -15 -35.5t-35 -14.5h-7q-21 0 -35.5 14.5t-14.5 35.5v7q0 21 -15 35.5t-35 14.5h-7q-21 0 -35.5 14.5t-14.5 35.5v7q0 21 14.5 35.5t35.5 14.5h7q20 0 35 14.5
t15 35.5v7q0 21 14.5 35.5t35.5 14.5h7q20 0 35 -14.5t15 -35.5v-7q0 -21 14.5 -35.5t35.5 -14.5h7zM261 698q0 20 -14.5 35t-35.5 15h-4q-21 0 -35.5 -15t-14.5 -35v-3q0 -20 14.5 -35t35.5 -15h4q21 0 35.5 15t14.5 35v3z" />
    <glyph glyph-name="ordfeminine" unicode="&#xaa;" 
d="M478 585q0 -21 14.5 -35.5t35.5 -14.5h7q21 0 35.5 -14.5t14.5 -35.5v-57v-107v-107v-107v-57q0 -21 -14.5 -35.5t-35.5 -14.5h-57h-107h-107h-58q-20 0 -35 14.5t-15 35.5v6q0 21 -14.5 35.5t-35.5 14.5h-6q-21 0 -35.5 14.5t-14.5 35.5v57v58q0 21 14.5 35.5t35.5 14.5
h57h107h107h57q21 0 35.5 14.5t14.5 35.5v57v57q0 21 -14.5 35.5t-35.5 14.5h-57h-107h-57q-21 0 -35.5 -14.5t-14.5 -35.5v-7q0 -21 -14.5 -35.5t-35.5 -14.5h-7q-21 0 -35.5 14.5t-14.5 35.5v8q0 20 14.5 35t35.5 15h7q21 0 35.5 14.5t14.5 35.5v6q0 21 14.5 35.5
t35.5 14.5h57h107h57q21 0 35.5 -14.5t14.5 -35.5v-7zM428 107q21 0 35.5 14.5t14.5 35.5v7q0 21 -14.5 35.5t-35.5 14.5h-57h-107h-57h-35.5t-14.5 -1v-56q0 -21 14.5 -35.5t35.5 -14.5h57h107h57z" />
    <glyph glyph-name="currency" unicode="&#xa4;" horiz-adv-x="833" 
 />
    <glyph glyph-name="sterling" unicode="&#xa3;" horiz-adv-x="636" 
d="M478 107h57q21 0 35.5 -14.5t14.5 -35.5v-7q0 -21 -14.5 -35.5t-35.5 -14.5h-57h-107h-107h-57q-21 0 -35.5 14.5t-14.5 35.5v7q0 21 -14.5 35.5t-35.5 14.5h-7q-21 0 -35.5 14.5t-14.5 35.5v57v107v107v107v57v100v7q0 21 14.5 35.5t35.5 14.5h7q21 0 35.5 -14.5
t14.5 -35.5v-57v-107v-107v-107v-107v-57q0 -21 14.5 -35.5t35.5 -14.5h57h107h107zM372 462h164q21 0 35.5 -14.5t14.5 -35.5v-7q0 -21 -14.5 -35.5t-35.5 -14.5h-164h-107h-107h-57q-21 0 -35.5 14.5t-14.5 35.5v7q0 21 14.5 35.5t35.5 14.5h57h107h107z" />
    <glyph glyph-name="cent" unicode="&#xa2;" 
d="M585 478q0 -21 -14.5 -35.5t-35.5 -14.5h-7q-21 0 -35.5 14.5t-14.5 35.5v7q0 21 -14.5 35.5t-35.5 14.5h-57h-107h-57q-21 0 -35.5 -14.5t-14.5 -35.5v-57v-107v-107v-57q0 -21 14.5 -35.5t35.5 -14.5h57h107h57q21 0 35.5 14.5t14.5 35.5v7q0 21 14.5 35.5t35.5 14.5h7
q21 0 35.5 -14.5t14.5 -35.5v-7q0 -21 -14.5 -35.5t-35.5 -14.5h-7q-21 0 -35.5 -14.5t-14.5 -35.5v-7q0 -21 -14.5 -35.5t-35.5 -14.5h-57h-107h-107h-57q-21 0 -35.5 14.5t-14.5 35.5v57v107v107v107v57q0 21 14.5 35.5t35.5 14.5h7q21 0 35.5 14.5t14.5 35.5v7
q0 21 14.5 35.5t35.5 14.5h57h107h57q21 0 35.5 -14.5t14.5 -35.5v-7q0 -21 14.5 -35.5t35.5 -14.5h7q21 0 35.5 -14.5t14.5 -35.5v-7zM264 807q0 20 14.5 35t35.5 15h7q21 0 35.5 -15t14.5 -35v-57v-107v-107v-107v-107v-107v-107v-103v-4v-57q0 -21 -14.5 -35.5
t-35.5 -14.5h-7q-21 0 -35.5 14.5t-14.5 35.5v57v4v103v107v107v107v107v107v107v57z" />
    <glyph glyph-name="exclamdown" unicode="&#xa1;" horiz-adv-x="207" 
d="M50 699q0 21 14.5 35.5t35.5 14.5h7q21 0 35.5 -14.5t14.5 -35.5v-57v-107v-107v-107v-57q0 -21 -14.5 -35.5t-35.5 -14.5h-7q-21 0 -35.5 14.5t-14.5 35.5v57v107v107v107v57zM100 0q-21 0 -35.5 14.5t-14.5 35.5v7q0 21 14.5 35.5t35.5 14.5h7q21 0 35.5 -14.5
t14.5 -35.5v-7q0 -21 -14.5 -35.5t-35.5 -14.5h-7z" />
    <glyph glyph-name="Aacute" unicode="&#xc1;" 
d="M478 692q0 -21 14.5 -35.5t35.5 -14.5h7q21 0 35.5 -14.5t14.5 -35.5v-57v-107v-107v-107v-107v-57q0 -21 -14.5 -35.5t-35.5 -14.5h-7q-21 0 -35.5 14.5t-14.5 35.5v57v57q0 21 -14.5 35.5t-35.5 14.5h-57h-107h-57q-21 0 -35.5 -15t-14.5 -36v-57v-57
q0 -21 -14.5 -35.5t-35.5 -14.5h-7q-21 0 -35.5 14.5t-14.5 35.5v57v107v107v108v107v57q0 21 14.5 35.5t35.5 14.5h7q21 0 35.5 14.5t14.5 35.5v7q0 21 14.5 35.5t35.5 14.5h57h107h57q21 0 35.5 -14.5t14.5 -35.5v-7zM478 535v57q0 21 -14.5 35.5t-35.5 14.5h-57h-107h-57
q-21 0 -35.5 -14.5t-14.5 -35.5v-57v-107v-57q0 -21 14.5 -35.5t35.5 -14.5h57h107h57q21 0 35.5 14.5t14.5 35.5v57v107zM192 826q0 -21 -14.5 -35.5t-35.5 -14.5h-7q-21 0 -35.5 14.5t-14.5 35.5v57v57q0 21 14.5 35.5t35.5 14.5h7q21 0 35.5 14.5t14.5 35.5v7
q0 21 14.5 35.5t35.5 14.5h7q21 0 35.5 -14.5t14.5 -35.5v-7q0 -21 -14.5 -35.5t-35.5 -14.5h-7q-21 0 -35.5 -14.5t-14.5 -35.5v-57v-57v0z" />
    <glyph glyph-name="AE" unicode="&#xc6;" horiz-adv-x="1061" 
d="M478 692q0 -21 14.5 -35.5t35.5 -14.5h7q21 0 35.5 -14.5t14.5 -35.5v-57v-107v-107v-107v-107v-57q0 -21 -14.5 -35.5t-35.5 -14.5h-7q-21 0 -35.5 14.5t-14.5 35.5v57v57q0 21 -14.5 35.5t-35.5 14.5h-57h-107h-57q-21 0 -35.5 -15t-14.5 -36v-57v-57
q0 -21 -14.5 -35.5t-35.5 -14.5h-7q-21 0 -35.5 14.5t-14.5 35.5v57v107v107v108v107v57q0 21 14.5 35.5t35.5 14.5h7q21 0 35.5 14.5t14.5 35.5v7q0 21 14.5 35.5t35.5 14.5h57h107h57q21 0 35.5 -14.5t14.5 -35.5v-7zM478 535v57q0 21 -14.5 35.5t-35.5 14.5h-57h-107h-57
q-21 0 -35.5 -14.5t-14.5 -35.5v-57v-107v-57q0 -21 14.5 -35.5t35.5 -14.5h57h107h57q21 0 35.5 14.5t14.5 35.5v57v107zM692 214h-57q-21 0 -35.5 -14.5t-14.5 -35.5v-7q0 -21 14.5 -35.5t35.5 -14.5h57h107h107h57q21 0 35.5 -14.5t14.5 -35.5v-7q0 -21 -14.5 -35.5
t-35.5 -14.5h-57h-107h-107h-57q-21 0 -35.5 14.5t-14.5 35.5v7q0 21 -14.5 35.5t-35.5 14.5h-7q-21 0 -35.5 14.5t-14.5 35.5v57v107v107v107v57q0 21 14.5 35.5t35.5 14.5h7q21 0 35.5 14.5t14.5 35.5v7q0 21 14.5 35.5t35.5 14.5h57h107h107h57q21 0 35.5 -14.5
t14.5 -35.5v-7q0 -21 -14.5 -35.5t-35.5 -14.5h-57h-107h-107h-57q-21 0 -35.5 -14.5t-14.5 -35.5v-57v-107v-57q0 -21 14.5 -35.5t35.5 -14.5h57h107h107h57q21 0 35.5 -14.5t14.5 -35.5v-7q0 -21 -14.5 -35.5t-35.5 -14.5h-57h-107h-107z" />
    <glyph glyph-name="Ccedilla" unicode="&#xc7;" horiz-adv-x="657" 
d="M607 585q0 -21 -14.5 -35.5t-35.5 -14.5h-7q-21 0 -35.5 14.5t-14.5 35.5v7q0 21 -14.5 35.5t-35.5 14.5h-57h-107h-57q-21 0 -35.5 -14.5t-14.5 -35.5v-57v-107v-107v-107v-57q0 -21 14.5 -35.5t35.5 -14.5h57h107h57q21 0 35.5 14.5t14.5 35.5v7q0 21 14.5 35.5
t35.5 14.5h7q21 0 35.5 -14.5t14.5 -35.5v-7q0 -21 -14.5 -35.5t-35.5 -14.5h-7q-21 0 -35.5 -14.5t-14.5 -35.5v-7q0 -21 -14.5 -35.5t-35.5 -14.5h-57h-107h-107h-57q-21 0 -35.5 14.5t-14.5 35.5v57v107v107v107v107v57q0 21 14.5 35.5t35.5 14.5h7q21 0 35.5 14.5
t14.5 35.5v7q0 21 14.5 35.5t35.5 14.5h57h107h57q21 0 35.5 -14.5t14.5 -35.5v-7q0 -21 14.5 -35.5t35.5 -14.5h7q21 0 35.5 -14.5t14.5 -35.5v-7v0zM157 -80q0 21 14.5 35.5t35.5 14.5h7q21 0 35.5 -14.5t14.5 -35.5v-57v-57q0 -21 -14.5 -35.5t-35.5 -14.5h-7
q-21 0 -35.5 -14.5t-14.5 -35.5v-7q0 -21 -14.5 -35.5t-35.5 -14.5h-7q-21 0 -35.5 14.5t-14.5 35.5v7q0 21 14.5 35.5t35.5 14.5h7q21 0 35.5 14.5t14.5 35.5v57v57v0z" />
    <glyph glyph-name="Egrave" unicode="&#xc8;" 
d="M264 214h-57q-21 0 -35.5 -14.5t-14.5 -35.5v-7q0 -21 14.5 -35.5t35.5 -14.5h57h107h107h57q21 0 35.5 -14.5t14.5 -35.5v-7q0 -21 -14.5 -35.5t-35.5 -14.5h-57h-107h-107h-57q-21 0 -35.5 14.5t-14.5 35.5v7q0 21 -14.5 35.5t-35.5 14.5h-7q-21 0 -35.5 14.5
t-14.5 35.5v57v107v107v107v57q0 21 14.5 35.5t35.5 14.5h7q21 0 35.5 14.5t14.5 35.5v7q0 21 14.5 35.5t35.5 14.5h57h107h107h57q21 0 35.5 -14.5t14.5 -35.5v-7q0 -21 -14.5 -35.5t-35.5 -14.5h-57h-107h-107h-57q-21 0 -35.5 -14.5t-14.5 -35.5v-57v-107v-57
q0 -21 14.5 -35.5t35.5 -14.5h57h107h107h57q21 0 35.5 -14.5t14.5 -35.5v-7q0 -21 -14.5 -35.5t-35.5 -14.5h-57h-107h-107zM395 875l-40 41l-40 40q-15 15 -35.5 15t-35.5 -15l-5 -5q-15 -15 -35.5 -15t-35.5 15l-5 5q-15 15 -15 35.5t15 35.5l5 5q15 14 35.5 14t35.5 -14
l5 -5q15 -15 35.5 -15t35.5 15l4 5q15 14 35.5 14t35.5 -14l40 -41l41 -40q15 -15 15 -35.5t-15 -35.5l-5 -5q-15 -14 -35.5 -14t-35.5 14z" />
    <glyph glyph-name="Eacute" unicode="&#xc9;" 
d="M264 214h-57q-21 0 -35.5 -14.5t-14.5 -35.5v-7q0 -21 14.5 -35.5t35.5 -14.5h57h107h107h57q21 0 35.5 -14.5t14.5 -35.5v-7q0 -21 -14.5 -35.5t-35.5 -14.5h-57h-107h-107h-57q-21 0 -35.5 14.5t-14.5 35.5v7q0 21 -14.5 35.5t-35.5 14.5h-7q-21 0 -35.5 14.5
t-14.5 35.5v57v107v107v107v57q0 21 14.5 35.5t35.5 14.5h7q21 0 35.5 14.5t14.5 35.5v7q0 21 14.5 35.5t35.5 14.5h57h107h107h57q21 0 35.5 -14.5t14.5 -35.5v-7q0 -21 -14.5 -35.5t-35.5 -14.5h-57h-107h-107h-57q-21 0 -35.5 -14.5t-14.5 -35.5v-57v-107v-57
q0 -21 14.5 -35.5t35.5 -14.5h57h107h107h57q21 0 35.5 -14.5t14.5 -35.5v-7q0 -21 -14.5 -35.5t-35.5 -14.5h-57h-107h-107zM193 826q0 -21 -14.5 -35.5t-35.5 -14.5h-7q-21 0 -35.5 14.5t-14.5 35.5v57v57q0 21 14.5 35.5t35.5 14.5h7q21 0 35.5 14.5t14.5 35.5v7
q0 21 14.5 35.5t35.5 14.5h7q21 0 35.5 -14.5t14.5 -35.5v-7q0 -21 -14.5 -35.5t-35.5 -14.5h-7q-21 0 -35.5 -14.5t-14.5 -35.5v-57v-57v0z" />
    <glyph glyph-name="Ecircumflex" unicode="&#xca;" 
d="M264 214h-57q-21 0 -35.5 -14.5t-14.5 -35.5v-7q0 -21 14.5 -35.5t35.5 -14.5h57h107h107h57q21 0 35.5 -14.5t14.5 -35.5v-7q0 -21 -14.5 -35.5t-35.5 -14.5h-57h-107h-107h-57q-21 0 -35.5 14.5t-14.5 35.5v7q0 21 -14.5 35.5t-35.5 14.5h-7q-21 0 -35.5 14.5
t-14.5 35.5v57v107v107v107v57q0 21 14.5 35.5t35.5 14.5h7q21 0 35.5 14.5t14.5 35.5v7q0 21 14.5 35.5t35.5 14.5h57h107h107h57q21 0 35.5 -14.5t14.5 -35.5v-7q0 -21 -14.5 -35.5t-35.5 -14.5h-57h-107h-107h-57q-21 0 -35.5 -14.5t-14.5 -35.5v-57v-107v-57
q0 -21 14.5 -35.5t35.5 -14.5h57h107h107h57q21 0 35.5 -14.5t14.5 -35.5v-7q0 -21 -14.5 -35.5t-35.5 -14.5h-57h-107h-107zM370 1014q0 -21 15 -35.5t35 -14.5h7q21 0 35.5 -15t14.5 -35v-7q0 -21 -14.5 -35.5t-35.5 -14.5h-7q-20 0 -35 14.5t-15 35.5v7q0 20 -14.5 35
t-35.5 15h-7q-20 0 -35 -15t-15 -35v-7q0 -21 -14.5 -35.5t-35.5 -14.5h-7q-20 0 -35 14.5t-15 35.5v7q0 20 15 35t35 15h7q21 0 35.5 14.5t14.5 35.5v7q0 20 15 35t35 15h7q21 0 35.5 -15t14.5 -35v-7v0z" />
    <glyph glyph-name="Igrave" unicode="&#xcc;" 
d="M478 107h57q21 0 35.5 -14.5t14.5 -35.5v-7q0 -21 -14.5 -35.5t-35.5 -14.5h-57h-107h-107h-107h-57q-21 0 -35.5 14.5t-14.5 35.5v7q0 21 14.5 35.5t35.5 14.5h57h57q21 0 35.5 14.5t14.5 35.5v57v107v107v107v57q0 21 -14.5 35.5t-35.5 14.5h-57h-57q-21 0 -35.5 14.5
t-14.5 35.5v7q0 21 14.5 35.5t35.5 14.5h57h107h107h107h57q21 0 35.5 -14.5t14.5 -35.5v-7q0 -21 -14.5 -35.5t-35.5 -14.5h-57h-57q-21 0 -35.5 -14.5t-14.5 -35.5v-57v-107v-107v-107v-57q0 -21 14.5 -35.5t35.5 -14.5h57zM395 866l-40 41l-40 40q-15 15 -35.5 15
t-35.5 -15l-5 -5q-15 -15 -35.5 -15t-35.5 15l-5 5q-15 15 -15 35.5t15 35.5l5 5q15 14 35.5 14t35.5 -14l5 -5q15 -15 35.5 -15t35.5 15l4 5q15 14 35.5 14t35.5 -14l40 -41l41 -40q15 -15 15 -35.5t-15 -35.5l-5 -5q-15 -14 -35.5 -14t-35.5 14z" />
    <glyph glyph-name="Iacute" unicode="&#xcd;" 
d="M478 107h57q21 0 35.5 -14.5t14.5 -35.5v-7q0 -21 -14.5 -35.5t-35.5 -14.5h-57h-107h-107h-107h-57q-21 0 -35.5 14.5t-14.5 35.5v7q0 21 14.5 35.5t35.5 14.5h57h57q21 0 35.5 14.5t14.5 35.5v57v107v107v107v57q0 21 -14.5 35.5t-35.5 14.5h-57h-57q-21 0 -35.5 14.5
t-14.5 35.5v7q0 21 14.5 35.5t35.5 14.5h57h107h107h107h57q21 0 35.5 -14.5t14.5 -35.5v-7q0 -21 -14.5 -35.5t-35.5 -14.5h-57h-57q-21 0 -35.5 -14.5t-14.5 -35.5v-57v-107v-107v-107v-57q0 -21 14.5 -35.5t35.5 -14.5h57zM193 846q0 -21 -14.5 -35.5t-35.5 -14.5h-7
q-21 0 -35.5 14.5t-14.5 35.5v57v57q0 21 14.5 35.5t35.5 14.5h7q21 0 35.5 14.5t14.5 35.5v7q0 21 14.5 35.5t35.5 14.5h7q21 0 35.5 -14.5t14.5 -35.5v-7q0 -21 -14.5 -35.5t-35.5 -14.5h-7q-21 0 -35.5 -14.5t-14.5 -35.5v-57v-57v0z" />
    <glyph glyph-name="Icircumflex" unicode="&#xce;" 
d="M478 107h57q21 0 35.5 -14.5t14.5 -35.5v-7q0 -21 -14.5 -35.5t-35.5 -14.5h-57h-107h-107h-107h-57q-21 0 -35.5 14.5t-14.5 35.5v7q0 21 14.5 35.5t35.5 14.5h57h57q21 0 35.5 14.5t14.5 35.5v57v107v107v107v57q0 21 -14.5 35.5t-35.5 14.5h-57h-57q-21 0 -35.5 14.5
t-14.5 35.5v7q0 21 14.5 35.5t35.5 14.5h57h107h107h107h57q21 0 35.5 -14.5t14.5 -35.5v-7q0 -21 -14.5 -35.5t-35.5 -14.5h-57h-57q-21 0 -35.5 -14.5t-14.5 -35.5v-57v-107v-107v-107v-57q0 -21 14.5 -35.5t35.5 -14.5h57zM370 1014q0 -21 15 -35.5t35 -14.5h7
q21 0 35.5 -15t14.5 -35v-7q0 -21 -14.5 -35.5t-35.5 -14.5h-7q-20 0 -35 14.5t-15 35.5v7q0 20 -14.5 35t-35.5 15h-7q-20 0 -35 -15t-15 -35v-7q0 -21 -14.5 -35.5t-35.5 -14.5h-7q-20 0 -35 14.5t-15 35.5v7q0 20 15 35t35 15h7q21 0 35.5 14.5t14.5 35.5v7q0 20 15 35
t35 15h7q21 0 35.5 -15t14.5 -35v-7v0z" />
    <glyph glyph-name="Ntilde" unicode="&#xd1;" 
d="M478 642v57q0 21 14.5 35.5t35.5 14.5h7q21 0 35.5 -14.5t14.5 -35.5v-57v-107v-107v-107v-107v-107v-57q0 -21 -14.5 -35.5t-35.5 -14.5h-7q-21 0 -35.5 14.5t-14.5 35.5v57v57q0 21 -9.5 35.5t-34.5 14.5h-13q-21 0 -35.5 14.5t-14.5 35.5v7q0 21 -14.5 35.5
t-35.5 14.5h-8q-21 0 -35.5 14.5t-14.5 35.5v7q0 21 -15 35.5t-35 14.5h-13q-24 0 -33.5 -14.5t-9.5 -35.5v-57v-107v-107v-57q0 -21 -14.5 -35.5t-35.5 -14.5h-7q-21 0 -35.5 14.5t-14.5 35.5v57v107v107v107v107v107v57q0 21 14.5 35.5t35.5 14.5h7q21 0 35.5 -14.5
t14.5 -35.5v-57v-57q0 -21 14.5 -35.5t35.5 -14.5h7q21 0 35.5 -14.5t14.5 -35.5v-6q0 -20 14.5 -35t35.5 -15h7q21 0 35.5 -14.5t14.5 -35.5v-8q0 -21 14.5 -35.5t35.5 -14.5h7q21 0 35.5 14.5t14.5 35.5v57v107v107z" />
    <glyph glyph-name="Ograve" unicode="&#xd2;" 
d="M478 692q0 -21 14.5 -35.5t35.5 -14.5h7q21 0 35.5 -14.5t14.5 -35.5v-57v-107v-107v-107v-59q0 -21 -14.5 -35.5t-35.5 -14.5h-5q-20 0 -35 -15t-15 -35v-5q0 -21 -14.5 -35.5t-35.5 -14.5h-59h-107h-57q-21 0 -35.5 14.5t-14.5 35.5v6q0 21 -14.5 35.5t-35.5 14.5h-7
q-21 0 -35.5 14.5t-14.5 35.5v57v107v108v107v57q0 21 14.5 35.5t35.5 14.5h7q21 0 35.5 14.5t14.5 35.5v7q0 21 14.5 35.5t35.5 14.5h57h107h57q21 0 35.5 -14.5t14.5 -35.5v-7zM478 428v107v57q0 21 -14.5 35.5t-35.5 14.5h-57h-107h-57q-21 0 -35.5 -14.5t-14.5 -35.5
v-57v-107v-108v-107v-56q0 -21 14.5 -35.5t35.5 -14.5h57h107h57q21 0 35.5 14.5t14.5 35.5v57v107v107zM395 874l-40 41l-40 40q-15 15 -35.5 15t-35.5 -15l-5 -5q-15 -15 -35.5 -15t-35.5 15l-5 5q-15 15 -15 35.5t15 35.5l5 5q15 14 35.5 14t35.5 -14l5 -5
q15 -15 35.5 -15t35.5 15l4 5q15 14 35.5 14t35.5 -14l40 -41l41 -40q15 -15 15 -35.5t-15 -35.5l-5 -5q-15 -14 -35.5 -14t-35.5 14z" />
    <glyph glyph-name="Oacute" unicode="&#xd3;" 
d="M478 692q0 -21 14.5 -35.5t35.5 -14.5h7q21 0 35.5 -14.5t14.5 -35.5v-57v-107v-107v-107v-59q0 -21 -14.5 -35.5t-35.5 -14.5h-5q-20 0 -35 -15t-15 -35v-5q0 -21 -14.5 -35.5t-35.5 -14.5h-59h-107h-57q-21 0 -35.5 14.5t-14.5 35.5v6q0 21 -14.5 35.5t-35.5 14.5h-7
q-21 0 -35.5 14.5t-14.5 35.5v57v107v108v107v57q0 21 14.5 35.5t35.5 14.5h7q21 0 35.5 14.5t14.5 35.5v7q0 21 14.5 35.5t35.5 14.5h57h107h57q21 0 35.5 -14.5t14.5 -35.5v-7zM478 428v107v57q0 21 -14.5 35.5t-35.5 14.5h-57h-107h-57q-21 0 -35.5 -14.5t-14.5 -35.5
v-57v-107v-108v-107v-56q0 -21 14.5 -35.5t35.5 -14.5h57h107h57q21 0 35.5 14.5t14.5 35.5v57v107v107zM193 826q0 -21 -14.5 -35.5t-35.5 -14.5h-7q-21 0 -35.5 14.5t-14.5 35.5v57v57q0 21 14.5 35.5t35.5 14.5h7q21 0 35.5 14.5t14.5 35.5v7q0 21 14.5 35.5t35.5 14.5h7
q21 0 35.5 -14.5t14.5 -35.5v-7q0 -21 -14.5 -35.5t-35.5 -14.5h-7q-21 0 -35.5 -14.5t-14.5 -35.5v-57v-57v0z" />
    <glyph glyph-name="Ocircumflex" unicode="&#xd4;" 
d="M478 692q0 -21 14.5 -35.5t35.5 -14.5h7q21 0 35.5 -14.5t14.5 -35.5v-57v-107v-107v-107v-59q0 -21 -14.5 -35.5t-35.5 -14.5h-5q-20 0 -35 -15t-15 -35v-5q0 -21 -14.5 -35.5t-35.5 -14.5h-59h-107h-57q-21 0 -35.5 14.5t-14.5 35.5v6q0 21 -14.5 35.5t-35.5 14.5h-7
q-21 0 -35.5 14.5t-14.5 35.5v57v107v108v107v57q0 21 14.5 35.5t35.5 14.5h7q21 0 35.5 14.5t14.5 35.5v7q0 21 14.5 35.5t35.5 14.5h57h107h57q21 0 35.5 -14.5t14.5 -35.5v-7zM478 428v107v57q0 21 -14.5 35.5t-35.5 14.5h-57h-107h-57q-21 0 -35.5 -14.5t-14.5 -35.5
v-57v-107v-108v-107v-56q0 -21 14.5 -35.5t35.5 -14.5h57h107h57q21 0 35.5 14.5t14.5 35.5v57v107v107zM370 1014q0 -21 15 -35.5t35 -14.5h7q21 0 35.5 -15t14.5 -35v-7q0 -21 -14.5 -35.5t-35.5 -14.5h-7q-20 0 -35 14.5t-15 35.5v7q0 20 -14.5 35t-35.5 15h-7
q-20 0 -35 -15t-15 -35v-7q0 -21 -14.5 -35.5t-35.5 -14.5h-7q-20 0 -35 14.5t-15 35.5v7q0 20 15 35t35 15h7q21 0 35.5 14.5t14.5 35.5v7q0 20 15 35t35 15h7q21 0 35.5 -15t14.5 -35v-7v0z" />
    <glyph glyph-name="multiply" unicode="&#xd7;" horiz-adv-x="513" 
d="M368 269q7 -8 14 -15.5t13 -12.5q7 -7 13 -12l40 -40q15 -15 15 -35.5t-15 -35.5l-5 -5q-15 -15 -35.5 -15t-35.5 15l-27 27q-7 6 -13 13l-40 40q-15 15 -35.5 15t-35.5 -15l-40 -40l-40 -40q-15 -15 -35.5 -15t-35.5 15l-5 5q-15 15 -15 35.5t15 35.5l40 40l40 40
q15 15 15 35.5t-15 35.5l-40 40l-40 40q-15 15 -15 35.5t15 35.5l5 5q15 15 35.5 15t35.5 -15l40 -40l40 -40q15 -15 35.5 -15t35.5 15l40 40l40 40q15 15 35.5 15t35.5 -15l5 -5q15 -15 15 -35.5t-15 -35.5l-40 -40l-40 -40q-15 -15 -15 -35.5t15 -35.5z" />
    <glyph glyph-name="Oslash" unicode="&#xd8;" 
d="M478 692q0 -21 14.5 -35.5t35.5 -14.5h7q21 0 35.5 -14.5t14.5 -35.5v-57v-107v-107v-107v-59q0 -21 -14.5 -35.5t-35.5 -14.5h-5q-20 0 -35 -15t-15 -35v-5q0 -21 -14.5 -35.5t-35.5 -14.5h-59h-107h-57q-21 0 -35.5 14.5t-14.5 35.5v6q0 21 -14.5 35.5t-35.5 14.5h-7
q-21 0 -35.5 14.5t-14.5 35.5v57v107v108v107v57q0 21 14.5 35.5t35.5 14.5h7q21 0 35.5 14.5t14.5 35.5v7q0 21 14.5 35.5t35.5 14.5h57h107h57q21 0 35.5 -14.5t14.5 -35.5v-7zM478 428v107v57q0 21 -14.5 35.5t-35.5 14.5h-57h-107h-57q-21 0 -35.5 -14.5t-14.5 -35.5
v-57v-107v-108v-107v-56q0 -21 14.5 -35.5t35.5 -14.5h57h107h57q21 0 35.5 14.5t14.5 35.5v57v107v107zM371 699q0 21 14.5 35.5t35.5 14.5h7q20 0 35 -14.5t15 -35.5v-57v-57q0 -21 -15 -35.5t-35 -14.5h-7q-21 0 -35.5 -14.5t-14.5 -35.5v-57v-107v-57q0 -21 -15 -35.5
t-35 -14.5h-7q-21 0 -35.5 -14.5t-14.5 -35.5v-57v-57q0 -21 -15 -35.5t-35 -14.5h-7q-21 0 -35.5 14.5t-14.5 35.5v57v57q0 21 14.5 35.5t35.5 14.5h7q20 0 35 14.5t15 35.5v57v107v57q0 21 14.5 35.5t35.5 14.5h7q20 0 35 14.5t15 35.5v57v57v0z" />
    <glyph glyph-name="Uacute" unicode="&#xda;" 
d="M478 699q0 21 14.5 35.5t35.5 14.5h7q21 0 35.5 -14.5t14.5 -35.5v-57v-107v-107v-107v-107v-57q0 -21 -14.5 -35.5t-35.5 -14.5h-5q-21 0 -35.5 -14.5t-14.5 -35.5v-7q0 -21 -15 -35.5t-35 -14.5h-59h-107h-57q-21 0 -35.5 14.5t-14.5 35.5v7q0 21 -14.5 35.5
t-35.5 14.5h-7q-21 0 -35.5 14.5t-14.5 35.5v57v107v107v107v107v57q0 21 14.5 35.5t35.5 14.5h7q21 0 35.5 -14.5t14.5 -35.5v-57v-107v-107v-107v-107v-57q0 -21 14.5 -35.5t35.5 -14.5h57h107h57q21 0 35.5 14.5t14.5 35.5v57v107v107v107v107v57v0zM190 826
q0 -21 -14.5 -35.5t-35.5 -14.5h-7q-21 0 -35.5 14.5t-14.5 35.5v57v57q0 21 14.5 35.5t35.5 14.5h7q21 0 35.5 14.5t14.5 35.5v7q0 21 14.5 35.5t35.5 14.5h7q21 0 35.5 -14.5t14.5 -35.5v-7q0 -21 -14.5 -35.5t-35.5 -14.5h-7q-21 0 -35.5 -14.5t-14.5 -35.5v-57v-57v0z
" />
    <glyph glyph-name="Ucircumflex" unicode="&#xdb;" 
d="M478 699q0 21 14.5 35.5t35.5 14.5h7q21 0 35.5 -14.5t14.5 -35.5v-57v-107v-107v-107v-107v-57q0 -21 -14.5 -35.5t-35.5 -14.5h-5q-21 0 -35.5 -14.5t-14.5 -35.5v-7q0 -21 -15 -35.5t-35 -14.5h-59h-107h-57q-21 0 -35.5 14.5t-14.5 35.5v7q0 21 -14.5 35.5
t-35.5 14.5h-7q-21 0 -35.5 14.5t-14.5 35.5v57v107v107v107v107v57q0 21 14.5 35.5t35.5 14.5h7q21 0 35.5 -14.5t14.5 -35.5v-57v-107v-107v-107v-107v-57q0 -21 14.5 -35.5t35.5 -14.5h57h107h57q21 0 35.5 14.5t14.5 35.5v57v107v107v107v107v57v0zM367 1014
q0 -21 15 -35.5t35 -14.5h7q21 0 35.5 -15t14.5 -35v-7q0 -21 -14.5 -35.5t-35.5 -14.5h-7q-20 0 -35 14.5t-15 35.5v7q0 20 -14.5 35t-35.5 15h-7q-20 0 -35 -15t-15 -35v-7q0 -21 -14.5 -35.5t-35.5 -14.5h-7q-20 0 -35 14.5t-15 35.5v7q0 20 15 35t35 15h7
q21 0 35.5 14.5t14.5 35.5v7q0 20 15 35t35 15h7q21 0 35.5 -15t14.5 -35v-7v0z" />
    <glyph glyph-name="Yacute" unicode="&#xdd;" 
d="M478 699q0 21 14.5 35.5t35.5 14.5h7q20 0 35 -14.5t15 -35.5v-57v-107v-57q0 -21 -15 -35.5t-35 -14.5h-7q-21 0 -35.5 -14.5t-14.5 -35.5v-7q0 -21 -15 -35.5t-35 -14.5h-7q-21 0 -35.5 -14.5t-14.5 -35.5v-57v-57q0 -21 14.5 -35.5t35.5 -14.5h7q20 0 35 -14.5
t15 -35.5v-7q0 -21 -15 -35.5t-35 -14.5h-57h-107h-57q-21 0 -35.5 14.5t-14.5 35.5v7q0 21 14.5 35.5t35.5 14.5h7q20 0 35 14.5t15 35.5v57v57q0 20 -15 35t-35 15h-7q-21 0 -35.5 14.5t-14.5 35.5v7q0 20 -15 35t-35 15h-7q-21 0 -35.5 14.5t-14.5 35.5v57v107v57
q0 20 14.5 35t35.5 15h7q20 0 35 -15t15 -35v-57v-107v-57q0 -21 14.5 -35.5t35.5 -14.5h7q20 0 35 -15t15 -35v-7q0 -21 14.5 -35.5t35.5 -14.5h7q20 0 35 14.5t15 35.5v7q0 21 14.5 35.5t35.5 14.5h7q20 0 35 14.5t15 35.5v57v107v57v0zM159 826q0 -21 -14.5 -35.5
t-35.5 -14.5h-7q-21 0 -35.5 14.5t-14.5 35.5v57v57q0 21 14.5 35.5t35.5 14.5h7q21 0 35.5 14.5t14.5 35.5v7q0 21 14.5 35.5t35.5 14.5h7q21 0 35.5 -14.5t14.5 -35.5v-7q0 -21 -14.5 -35.5t-35.5 -14.5h-7q-21 0 -35.5 -14.5t-14.5 -35.5v-57v-57v0z" />
    <glyph glyph-name="germandbls" unicode="&#xdf;" horiz-adv-x="833" 
d="M630 264q0 -20 14.5 -35t35.5 -15h7q21 0 35.5 -14.5t14.5 -35.5v-7q0 -20 -14.5 -35t-35.5 -15h-7q-21 0 -35.5 -14.5t-14.5 -35.5v-7q0 -20 -14.5 -35t-35.5 -15h-57h-103h-4h-57q-21 0 -35.5 15t-14.5 35v7q0 21 14.5 35.5t35.5 14.5h57h4h103h57q21 0 35.5 15
t14.5 35v7q0 21 -14.5 35.5t-35.5 14.5h-7q-21 0 -35.5 15t-14.5 35v7q0 21 -14.5 35.5t-35.5 14.5h-53h-4h-57q-21 0 -35.5 15t-14.5 35v7q0 21 14.5 35.5t35.5 14.5h57h4h53q21 0 35.5 15t14.5 35v57v57q0 21 -14.5 35.5t-35.5 14.5h-53h-4h-107h-57q-21 0 -35.5 -14.5
t-14.5 -35.5v-57v-107v-107v-107v-107v-107v-56q0 -21 -14.5 -35.5t-35.5 -14.5h-7q-21 0 -35.5 14.5t-14.5 35.5v57v106v107v107v107v107v57q0 21 14.5 35.5t35.5 14.5h7q21 0 35.5 15t14.5 35v7q0 21 14.5 35.5t35.5 14.5h57h107h4h53q21 0 35.5 -14.5t14.5 -35.5v-7
q0 -20 14.5 -35t35.5 -15h7q21 0 35.5 -14.5t14.5 -35.5v-57v-57q0 -20 -14.5 -35t-35.5 -15h-7q-21 0 -35.5 -14.5t-14.5 -35.5v-7q0 -20 14.5 -35t35.5 -15h7q21 0 35.5 -14.5t14.5 -35.5v-7v0z" />
    <glyph glyph-name="ydieresis" unicode="&#xff;" 
d="M478 592q0 20 14.5 35t35.5 15h7q20 0 35 -15t15 -35v-57v-107v-107v-107v-57v-100v-7v-100v-7q0 -21 -15 -35.5t-35 -14.5h-7q-21 0 -35.5 -15t-14.5 -35v-7q0 -21 -15 -35.5t-35 -14.5h-57h-107h-107h-57q-21 0 -35.5 14.5t-14.5 35.5v7q0 20 14.5 35t35.5 15h57h107
h107h57q20 0 35 14.5t15 35.5v7q0 20 -15 35t-35 15h-57h-107h-57q-21 0 -35.5 14.5t-14.5 35.5v7q0 20 -14.5 35t-35.5 15h-7q-21 0 -35.5 14.5t-14.5 35.5v57v107v107v107v57q0 20 14.5 35t35.5 15h7q21 0 35.5 -15t14.5 -35v-57v-107v-107v-107v-57q0 -21 14.5 -35.5
t35.5 -14.5h57h107h57q20 0 35 14.5t15 35.5v57v107v107v107v57v0z" />
    <glyph glyph-name="thorn" unicode="&#xfe;" 
d="M265 807q0 20 14.5 35t35.5 15h7q21 0 35.5 -15t14.5 -35v-57v-107v-107v-107v-107v-107v-107v-103v-4v-57q0 -21 -14.5 -35.5t-35.5 -14.5h-7q-21 0 -35.5 14.5t-14.5 35.5v57v4v103v107v107v107v107v107v107v57zM478 585q0 -21 14.5 -35.5t35.5 -14.5h7
q21 0 35.5 -14.5t14.5 -35.5v-57v-107v-107v-57q0 -21 -14.5 -35.5t-35.5 -14.5h-7q-21 0 -35.5 -14.5t-14.5 -35.5v-7q0 -21 -14.5 -35.5t-35.5 -14.5h-57h-107h-107h-57q-21 0 -35.5 14.5t-14.5 35.5v57v107v107v107v107v107v107v57q0 21 14.5 35.5t35.5 14.5h7
q21 0 35.5 -14.5t14.5 -35.5v-57v-57q0 -21 14.5 -35.5t35.5 -14.5h57h107h57q21 0 35.5 -14.5t14.5 -35.5v-7zM478 428v57q0 21 -14.5 35.5t-35.5 14.5h-57h-107h-57q-21 0 -35.5 -14.5t-14.5 -35.5v-57v-107v-107v-57q0 -21 14.5 -35.5t35.5 -14.5h57h107h57
q21 0 35.5 14.5t14.5 35.5v57v107v107z" />
    <glyph glyph-name="yacute" unicode="&#xfd;" 
d="M478 592q0 20 14.5 35t35.5 15h7q20 0 35 -15t15 -35v-57v-107v-107v-107v-57v-100v-7v-100v-7q0 -21 -15 -35.5t-35 -14.5h-7q-21 0 -35.5 -15t-14.5 -35v-7q0 -21 -15 -35.5t-35 -14.5h-57h-107h-107h-57q-21 0 -35.5 14.5t-14.5 35.5v7q0 20 14.5 35t35.5 15h57h107
h107h57q20 0 35 14.5t15 35.5v7q0 20 -15 35t-35 15h-57h-107h-57q-21 0 -35.5 14.5t-14.5 35.5v7q0 20 -14.5 35t-35.5 15h-7q-21 0 -35.5 14.5t-14.5 35.5v57v107v107v107v57q0 20 14.5 35t35.5 15h7q21 0 35.5 -15t14.5 -35v-57v-107v-107v-107v-57q0 -21 14.5 -35.5
t35.5 -14.5h57h107h57q20 0 35 14.5t15 35.5v57v107v107v107v57v0zM175 826q0 -21 -14.5 -35.5t-35.5 -14.5h-7q-21 0 -35.5 14.5t-14.5 35.5v57v57q0 21 14.5 35.5t35.5 14.5h7q21 0 35.5 14.5t14.5 35.5v7q0 21 14.5 35.5t35.5 14.5h7q21 0 35.5 -14.5t14.5 -35.5v-7
q0 -21 -14.5 -35.5t-35.5 -14.5h-7q-21 0 -35.5 -14.5t-14.5 -35.5v-57v-57v0z" />
    <glyph glyph-name="ucircumflex" unicode="&#xfb;" 
d="M478 50q0 -21 14.5 -35.5t35.5 -14.5h7q20 0 35 -14.5t15 -35.5v-7q0 -21 -15 -35.5t-35 -14.5h-7q-21 0 -35.5 14.5t-14.5 35.5v7q0 21 -15 35.5t-35 14.5h-57h-107h-57q-21 0 -35.5 14.5t-14.5 35.5v6q0 21 -15 35.5t-35 14.5h-7q-21 0 -35.5 14.5t-14.5 35.5v57v107
v107v108v57q0 21 14.5 35.5t35.5 14.5h7q20 0 35 -14.5t15 -35.5v-57v-108v-107v-107v-56q0 -21 14.5 -35.5t35.5 -14.5h57h107h57q20 0 35 14.5t15 35.5v57v107v107v107v57q0 21 14.5 35.5t35.5 14.5h7q20 0 35 -14.5t15 -35.5v-57v-107v-107v-107v-57q0 -21 -15 -35.5
t-35 -14.5h-7q-21 0 -35.5 -14.5t-14.5 -35.5v-7v0zM374 1014q0 -21 15 -35.5t35 -14.5h7q21 0 35.5 -15t14.5 -35v-7q0 -21 -14.5 -35.5t-35.5 -14.5h-7q-20 0 -35 14.5t-15 35.5v7q0 20 -14.5 35t-35.5 15h-7q-20 0 -35 -15t-15 -35v-7q0 -21 -14.5 -35.5t-35.5 -14.5h-7
q-20 0 -35 14.5t-15 35.5v7q0 20 15 35t35 15h7q21 0 35.5 14.5t14.5 35.5v7q0 20 15 35t35 15h7q21 0 35.5 -15t14.5 -35v-7v0z" />
    <glyph glyph-name="uacute" unicode="&#xfa;" 
d="M478 50q0 -21 14.5 -35.5t35.5 -14.5h7q20 0 35 -14.5t15 -35.5v-7q0 -21 -15 -35.5t-35 -14.5h-7q-21 0 -35.5 14.5t-14.5 35.5v7q0 21 -15 35.5t-35 14.5h-57h-107h-57q-21 0 -35.5 14.5t-14.5 35.5v6q0 21 -15 35.5t-35 14.5h-7q-21 0 -35.5 14.5t-14.5 35.5v57v107
v107v108v57q0 21 14.5 35.5t35.5 14.5h7q20 0 35 -14.5t15 -35.5v-57v-108v-107v-107v-56q0 -21 14.5 -35.5t35.5 -14.5h57h107h57q20 0 35 14.5t15 35.5v57v107v107v107v57q0 21 14.5 35.5t35.5 14.5h7q20 0 35 -14.5t15 -35.5v-57v-107v-107v-107v-57q0 -21 -15 -35.5
t-35 -14.5h-7q-21 0 -35.5 -14.5t-14.5 -35.5v-7v0zM159 826q0 -21 -14.5 -35.5t-35.5 -14.5h-7q-21 0 -35.5 14.5t-14.5 35.5v57v57q0 21 14.5 35.5t35.5 14.5h7q21 0 35.5 14.5t14.5 35.5v7q0 21 14.5 35.5t35.5 14.5h7q21 0 35.5 -14.5t14.5 -35.5v-7q0 -21 -14.5 -35.5
t-35.5 -14.5h-7q-21 0 -35.5 -14.5t-14.5 -35.5v-57v-57v0z" />
    <glyph glyph-name="ugrave" unicode="&#xf9;" 
d="M478 50q0 -21 14.5 -35.5t35.5 -14.5h7q20 0 35 -14.5t15 -35.5v-7q0 -21 -15 -35.5t-35 -14.5h-7q-21 0 -35.5 14.5t-14.5 35.5v7q0 21 -15 35.5t-35 14.5h-57h-107h-57q-21 0 -35.5 14.5t-14.5 35.5v6q0 21 -15 35.5t-35 14.5h-7q-21 0 -35.5 14.5t-14.5 35.5v57v107
v107v108v57q0 21 14.5 35.5t35.5 14.5h7q20 0 35 -14.5t15 -35.5v-57v-108v-107v-107v-56q0 -21 14.5 -35.5t35.5 -14.5h57h107h57q20 0 35 14.5t15 35.5v57v107v107v107v57q0 21 14.5 35.5t35.5 14.5h7q20 0 35 -14.5t15 -35.5v-57v-107v-107v-107v-57q0 -21 -15 -35.5
t-35 -14.5h-7q-21 0 -35.5 -14.5t-14.5 -35.5v-7v0zM396 853l-40 41l-40 40q-15 15 -35.5 15t-35.5 -15l-5 -5q-15 -15 -35.5 -15t-35.5 15l-5 5q-15 15 -15 35.5t15 35.5l5 5q15 14 35.5 14t35.5 -14l5 -5q15 -15 35.5 -15t35.5 15l4 5q15 14 35.5 14t35.5 -14l40 -41
l41 -40q15 -15 15 -35.5t-15 -35.5l-5 -5q-15 -14 -35.5 -14t-35.5 14z" />
    <glyph glyph-name="oslash" unicode="&#xf8;" 
d="M478 585q0 -21 14.5 -35.5t35.5 -14.5h7q20 0 35 -14.5t15 -35.5v-57v-2v-105v-107v-58q0 -21 -15 -35.5t-35 -14.5h-7q-21 0 -35.5 -14.5t-14.5 -35.5v-6q0 -21 -15 -35.5t-35 -14.5h-57h-107h-57q-21 0 -35.5 14.5t-14.5 35.5v6q0 21 -15 35.5t-35 14.5h-7
q-21 0 -35.5 14.5t-14.5 35.5v57v107v106v2v57q0 21 14.5 35.5t35.5 14.5h7q20 0 35 14.5t15 35.5v7q0 21 14.5 35.5t35.5 14.5h57h107h57q20 0 35 -14.5t15 -35.5v-7zM478 428v57q0 21 -15 35.5t-35 14.5h-57h-107h-57q-21 0 -35.5 -14.5t-14.5 -35.5v-57v-2v-106v-107v-56
q0 -21 14.5 -35.5t35.5 -14.5h57h107h57q20 0 35 14.5t15 35.5v57v107v105v2zM371 699q0 21 14.5 35.5t35.5 14.5h7q20 0 35 -14.5t15 -35.5v-57v-57q0 -21 -15 -35.5t-35 -14.5h-7q-21 0 -35.5 -14.5t-14.5 -35.5v-57v-107v-57q0 -21 -15 -35.5t-35 -14.5h-7
q-21 0 -35.5 -14.5t-14.5 -35.5v-57v-57q0 -21 -15 -35.5t-35 -14.5h-7q-21 0 -35.5 14.5t-14.5 35.5v57v57q0 21 14.5 35.5t35.5 14.5h7q20 0 35 14.5t15 35.5v57v107v57q0 21 14.5 35.5t35.5 14.5h7q20 0 35 14.5t15 35.5v57v57v0z" />
    <glyph glyph-name="ocircumflex" unicode="&#xf4;" 
d="M478 585q0 -21 14.5 -35.5t35.5 -14.5h7q20 0 35 -14.5t15 -35.5v-57v-2v-105v-107v-58q0 -21 -15 -35.5t-35 -14.5h-7q-21 0 -35.5 -14.5t-14.5 -35.5v-6q0 -21 -15 -35.5t-35 -14.5h-57h-107h-57q-21 0 -35.5 14.5t-14.5 35.5v6q0 21 -15 35.5t-35 14.5h-7
q-21 0 -35.5 14.5t-14.5 35.5v57v107v106v2v57q0 21 14.5 35.5t35.5 14.5h7q20 0 35 14.5t15 35.5v7q0 21 14.5 35.5t35.5 14.5h57h107h57q20 0 35 -14.5t15 -35.5v-7zM478 428v57q0 21 -15 35.5t-35 14.5h-57h-107h-57q-21 0 -35.5 -14.5t-14.5 -35.5v-57v-2v-106v-107v-56
q0 -21 14.5 -35.5t35.5 -14.5h57h107h57q20 0 35 14.5t15 35.5v57v107v105v2zM373 1014q0 -21 15 -35.5t35 -14.5h7q21 0 35.5 -15t14.5 -35v-7q0 -21 -14.5 -35.5t-35.5 -14.5h-7q-20 0 -35 14.5t-15 35.5v7q0 20 -14.5 35t-35.5 15h-7q-20 0 -35 -15t-15 -35v-7
q0 -21 -14.5 -35.5t-35.5 -14.5h-7q-20 0 -35 14.5t-15 35.5v7q0 20 15 35t35 15h7q21 0 35.5 14.5t14.5 35.5v7q0 20 15 35t35 15h7q21 0 35.5 -15t14.5 -35v-7v0z" />
    <glyph glyph-name="ntilde" unicode="&#xf1;" 
d="M480 585q0 -21 15 -35.5t35 -14.5h5q21 0 35.5 -14.5t14.5 -35.5v-57v-107v-107v-107v-57q0 -21 -14.5 -35.5t-35.5 -14.5h-7q-21 0 -35.5 14.5t-14.5 35.5v57v107v107v107v57q0 21 -14.5 35.5t-35.5 14.5h-57h-105h-2h-57q-21 0 -35.5 -14.5t-14.5 -35.5v-57v-107v-107
v-107v-57q0 -21 -14.5 -35.5t-35.5 -14.5h-7q-21 0 -35.5 14.5t-14.5 35.5v57v107v107v107v57q0 21 14.5 35.5t35.5 14.5h7q21 0 35.5 14.5t14.5 35.5v7q0 21 -14.5 35.5t-35.5 14.5h-7q-21 0 -35.5 14.5t-14.5 35.5v7q0 21 14.5 35.5t35.5 14.5h7q21 0 35.5 -14.5
t14.5 -35.5v-7q0 -21 14.5 -35.5t35.5 -14.5h57h2h105h59q21 0 35.5 -14.5t14.5 -35.5v-7v0z" />
    <glyph glyph-name="ecircumflex" unicode="&#xea;" 
d="M535 214q21 0 35.5 -14.5t14.5 -35.5v-7q0 -21 -14.5 -35.5t-35.5 -14.5h-7q-21 0 -35.5 -14.5t-14.5 -35.5v-7q0 -21 -14.5 -35.5t-35.5 -14.5h-57h-107h-57q-21 0 -35.5 14.5t-14.5 35.5v7q0 21 -14.5 35.5t-35.5 14.5h-7q-21 0 -35.5 14.5t-14.5 35.5v57v107v107v57
q0 21 14.5 35.5t35.5 14.5h5q21 0 35.5 14.5t14.5 35.5v7q0 21 15 35.5t35 14.5h59h107h57q21 0 35.5 -14.5t14.5 -35.5v-6q0 -21 14.5 -35.5t35.5 -14.5h7q21 0 35.5 -14.5t14.5 -35.5v-57v-57q0 -21 -14.5 -35.5t-35.5 -14.5h-7h-35.5t-14.5 -1h-50h-57h-107h-57
q-21 0 -35.5 -14.5t-14.5 -35.5v-57v-57q0 -21 14.5 -35.5t35.5 -14.5h57h107h57q21 0 35.5 14.5t14.5 35.5v7q0 21 14.5 35.5t35.5 14.5h7zM207 535q-21 0 -35.5 -14.5t-14.5 -35.5v-7q0 -21 14.5 -35.5t35.5 -14.5h57h107h57h50v1v56q0 21 -14.5 35.5t-35.5 14.5h-57h-107
h-57zM362 1014q0 -21 15 -35.5t35 -14.5h7q21 0 35.5 -15t14.5 -35v-7q0 -21 -14.5 -35.5t-35.5 -14.5h-7q-20 0 -35 14.5t-15 35.5v7q0 20 -14.5 35t-35.5 15h-7q-20 0 -35 -15t-15 -35v-7q0 -21 -14.5 -35.5t-35.5 -14.5h-7q-20 0 -35 14.5t-15 35.5v7q0 20 15 35t35 15h7
q21 0 35.5 14.5t14.5 35.5v7q0 20 15 35t35 15h7q21 0 35.5 -15t14.5 -35v-7v0z" />
    <glyph glyph-name="eacute" unicode="&#xe9;" 
d="M535 214q21 0 35.5 -14.5t14.5 -35.5v-7q0 -21 -14.5 -35.5t-35.5 -14.5h-7q-21 0 -35.5 -14.5t-14.5 -35.5v-7q0 -21 -14.5 -35.5t-35.5 -14.5h-57h-107h-57q-21 0 -35.5 14.5t-14.5 35.5v7q0 21 -14.5 35.5t-35.5 14.5h-7q-21 0 -35.5 14.5t-14.5 35.5v57v107v107v57
q0 21 14.5 35.5t35.5 14.5h5q21 0 35.5 14.5t14.5 35.5v7q0 21 15 35.5t35 14.5h59h107h57q21 0 35.5 -14.5t14.5 -35.5v-6q0 -21 14.5 -35.5t35.5 -14.5h7q21 0 35.5 -14.5t14.5 -35.5v-57v-57q0 -21 -14.5 -35.5t-35.5 -14.5h-7h-35.5t-14.5 -1h-50h-57h-107h-57
q-21 0 -35.5 -14.5t-14.5 -35.5v-57v-57q0 -21 14.5 -35.5t35.5 -14.5h57h107h57q21 0 35.5 14.5t14.5 35.5v7q0 21 14.5 35.5t35.5 14.5h7zM207 535q-21 0 -35.5 -14.5t-14.5 -35.5v-7q0 -21 14.5 -35.5t35.5 -14.5h57h107h57h50v1v56q0 21 -14.5 35.5t-35.5 14.5h-57h-107
h-57zM185 826q0 -21 -14.5 -35.5t-35.5 -14.5h-7q-21 0 -35.5 14.5t-14.5 35.5v57v57q0 21 14.5 35.5t35.5 14.5h7q21 0 35.5 14.5t14.5 35.5v7q0 21 14.5 35.5t35.5 14.5h7q21 0 35.5 -14.5t14.5 -35.5v-7q0 -21 -14.5 -35.5t-35.5 -14.5h-7q-21 0 -35.5 -14.5t-14.5 -35.5
v-57v-57v0z" />
    <glyph glyph-name="egrave" unicode="&#xe8;" 
d="M535 214q21 0 35.5 -14.5t14.5 -35.5v-7q0 -21 -14.5 -35.5t-35.5 -14.5h-7q-21 0 -35.5 -14.5t-14.5 -35.5v-7q0 -21 -14.5 -35.5t-35.5 -14.5h-57h-107h-57q-21 0 -35.5 14.5t-14.5 35.5v7q0 21 -14.5 35.5t-35.5 14.5h-7q-21 0 -35.5 14.5t-14.5 35.5v57v107v107v57
q0 21 14.5 35.5t35.5 14.5h5q21 0 35.5 14.5t14.5 35.5v7q0 21 15 35.5t35 14.5h59h107h57q21 0 35.5 -14.5t14.5 -35.5v-6q0 -21 14.5 -35.5t35.5 -14.5h7q21 0 35.5 -14.5t14.5 -35.5v-57v-57q0 -21 -14.5 -35.5t-35.5 -14.5h-7h-35.5t-14.5 -1h-50h-57h-107h-57
q-21 0 -35.5 -14.5t-14.5 -35.5v-57v-57q0 -21 14.5 -35.5t35.5 -14.5h57h107h57q21 0 35.5 14.5t14.5 35.5v7q0 21 14.5 35.5t35.5 14.5h7zM207 535q-21 0 -35.5 -14.5t-14.5 -35.5v-7q0 -21 14.5 -35.5t35.5 -14.5h57h107h57h50v1v56q0 21 -14.5 35.5t-35.5 14.5h-57h-107
h-57zM395 853l-40 41l-40 40q-15 15 -35.5 15t-35.5 -15l-5 -5q-15 -15 -35.5 -15t-35.5 15l-5 5q-15 15 -15 35.5t15 35.5l5 5q15 14 35.5 14t35.5 -14l5 -5q15 -15 35.5 -15t35.5 15l4 5q15 14 35.5 14t35.5 -14l40 -41l41 -40q15 -15 15 -35.5t-15 -35.5l-5 -5
q-15 -14 -35.5 -14t-35.5 14z" />
    <glyph glyph-name="ccedilla" unicode="&#xe7;" horiz-adv-x="666" 
d="M616 478q0 -21 -14.5 -35.5t-35.5 -14.5h-7q-21 0 -35.5 14.5t-14.5 35.5v7q0 21 -14.5 35.5t-35.5 14.5h-57h-107h-57q-21 0 -35.5 -14.5t-14.5 -35.5v-57v-107v-107v-57q0 -21 14.5 -35.5t35.5 -14.5h57h107h57q21 0 35.5 14.5t14.5 35.5v7q0 21 14.5 35.5t35.5 14.5h7
q21 0 35.5 -14.5t14.5 -35.5v-7q0 -21 -14.5 -35.5t-35.5 -14.5h-7q-21 0 -35.5 -14.5t-14.5 -35.5v-7q0 -21 -14.5 -35.5t-35.5 -14.5h-57h-107h-107h-57q-21 0 -35.5 14.5t-14.5 35.5v57v107v107v107v57q0 21 14.5 35.5t35.5 14.5h7q21 0 35.5 14.5t14.5 35.5v7
q0 21 14.5 35.5t35.5 14.5h57h107h57q21 0 35.5 -14.5t14.5 -35.5v-7q0 -21 14.5 -35.5t35.5 -14.5h7q21 0 35.5 -14.5t14.5 -35.5v-7v0zM157 -80q0 21 14.5 35.5t35.5 14.5h7q21 0 35.5 -14.5t14.5 -35.5v-57v-57q0 -21 -14.5 -35.5t-35.5 -14.5h-7q-21 0 -35.5 -14.5
t-14.5 -35.5v-7q0 -21 -14.5 -35.5t-35.5 -14.5h-7q-21 0 -35.5 14.5t-14.5 35.5v7q0 21 14.5 35.5t35.5 14.5h7q21 0 35.5 14.5t14.5 35.5v57v57v0z" />
    <glyph glyph-name="ae" unicode="&#xe6;" horiz-adv-x="1074" 
d="M478 585q0 -21 14.5 -35.5t35.5 -14.5h7q21 0 35.5 -14.5t14.5 -35.5v-57v-107v-107v-107v-57q0 -21 -14.5 -35.5t-35.5 -14.5h-57h-107h-107h-58q-20 0 -35 14.5t-15 35.5v6q0 21 -14.5 35.5t-35.5 14.5h-6q-21 0 -35.5 14.5t-14.5 35.5v57v58q0 21 14.5 35.5t35.5 14.5
h57h107h107h57q21 0 35.5 14.5t14.5 35.5v57v57q0 21 -14.5 35.5t-35.5 14.5h-57h-107h-57q-21 0 -35.5 -14.5t-14.5 -35.5v-7q0 -21 -14.5 -35.5t-35.5 -14.5h-7q-21 0 -35.5 14.5t-14.5 35.5v8q0 20 14.5 35t35.5 15h7q21 0 35.5 14.5t14.5 35.5v6q0 21 14.5 35.5
t35.5 14.5h57h107h57q21 0 35.5 -14.5t14.5 -35.5v-7zM428 107q21 0 35.5 14.5t14.5 35.5v7q0 21 -14.5 35.5t-35.5 14.5h-57h-107h-57h-35.5t-14.5 -1v-56q0 -21 14.5 -35.5t35.5 -14.5h57h107h57zM969 214q21 0 35.5 -14.5t14.5 -35.5v-7q0 -21 -14.5 -35.5t-35.5 -14.5
h-7q-21 0 -35.5 -14.5t-14.5 -35.5v-7q0 -21 -14.5 -35.5t-35.5 -14.5h-57h-107h-57q-21 0 -35.5 14.5t-14.5 35.5v7q0 21 -14.5 35.5t-35.5 14.5h-7q-21 0 -35.5 14.5t-14.5 35.5v57v107v107v57q0 21 14.5 35.5t35.5 14.5h5q21 0 35.5 14.5t14.5 35.5v7q0 21 15 35.5
t35 14.5h59h107h57q21 0 35.5 -14.5t14.5 -35.5v-6q0 -21 14.5 -35.5t35.5 -14.5h7q21 0 35.5 -14.5t14.5 -35.5v-57v-57q0 -21 -14.5 -35.5t-35.5 -14.5h-7h-35.5t-14.5 -1h-50h-57h-107h-57q-21 0 -35.5 -14.5t-14.5 -35.5v-57v-57q0 -21 14.5 -35.5t35.5 -14.5h57h107h57
q21 0 35.5 14.5t14.5 35.5v7q0 21 14.5 35.5t35.5 14.5h7zM641 535q-21 0 -35.5 -14.5t-14.5 -35.5v-7q0 -21 14.5 -35.5t35.5 -14.5h57h107h57h50v1v56q0 21 -14.5 35.5t-35.5 14.5h-57h-107h-57z" />
    <glyph glyph-name="atilde" unicode="&#xe3;" 
d="M396 853l-40 41l-40 40q-15 15 -35.5 15t-35.5 -15l-5 -5q-15 -15 -35.5 -15t-35.5 15l-5 5q-15 15 -15 35.5t15 35.5l5 5q15 14 35.5 14t35.5 -14l5 -5q15 -15 35.5 -15t35.5 15l4 5q15 14 35.5 14t35.5 -14l40 -41l41 -40q15 -15 15 -35.5t-15 -35.5l-5 -5
q-15 -14 -35.5 -14t-35.5 14zM478 585v7q0 21 -14.5 35.5t-35.5 14.5h-57h-107h-57q-21 0 -35.5 -14.5t-14.5 -35.5v-6q0 -21 -14.5 -35.5t-35.5 -14.5h-7q-21 0 -35.5 -15t-14.5 -35v-8q0 -21 14.5 -35.5t35.5 -14.5h7q21 0 35.5 14.5t14.5 35.5v7q0 21 14.5 35.5
t35.5 14.5h57h107h57q21 0 35.5 -14.5t14.5 -35.5v-57v-57q0 -21 -14.5 -35.5t-35.5 -14.5h-57h-107h-107h-57q-21 0 -35.5 -14.5t-14.5 -35.5v-58v-57q0 -21 14.5 -35.5t35.5 -14.5h6q21 0 35.5 -14.5t14.5 -35.5v-6q0 -21 15 -35.5t35 -14.5h58h107h107h57q21 0 35.5 14.5
t14.5 35.5v57v107v107v107v57q0 21 -14.5 35.5t-35.5 14.5h-7q-21 0 -35.5 14.5t-14.5 35.5zM428 107h-57h-107h-57q-21 0 -35.5 14.5t-14.5 35.5v56q0 1 14.5 1h35.5h57h107h57q21 0 35.5 -14.5t14.5 -35.5v-7q0 -21 -14.5 -35.5t-35.5 -14.5z" />
    <glyph glyph-name="acircumflex" unicode="&#xe2;" 
d="M478 585q0 -21 14.5 -35.5t35.5 -14.5h7q21 0 35.5 -14.5t14.5 -35.5v-57v-107v-107v-107v-57q0 -21 -14.5 -35.5t-35.5 -14.5h-57h-107h-107h-58q-20 0 -35 14.5t-15 35.5v6q0 21 -14.5 35.5t-35.5 14.5h-6q-21 0 -35.5 14.5t-14.5 35.5v57v58q0 21 14.5 35.5t35.5 14.5
h57h107h107h57q21 0 35.5 14.5t14.5 35.5v57v57q0 21 -14.5 35.5t-35.5 14.5h-57h-107h-57q-21 0 -35.5 -14.5t-14.5 -35.5v-7q0 -21 -14.5 -35.5t-35.5 -14.5h-7q-21 0 -35.5 14.5t-14.5 35.5v8q0 20 14.5 35t35.5 15h7q21 0 35.5 14.5t14.5 35.5v6q0 21 14.5 35.5
t35.5 14.5h57h107h57q21 0 35.5 -14.5t14.5 -35.5v-7zM428 107q21 0 35.5 14.5t14.5 35.5v7q0 21 -14.5 35.5t-35.5 14.5h-57h-107h-57h-35.5t-14.5 -1v-56q0 -21 14.5 -35.5t35.5 -14.5h57h107h57zM345 1014q0 -21 15 -35.5t35 -14.5h7q21 0 35.5 -15t14.5 -35v-7
q0 -21 -14.5 -35.5t-35.5 -14.5h-7q-20 0 -35 14.5t-15 35.5v7q0 20 -14.5 35t-35.5 15h-7q-20 0 -35 -15t-15 -35v-7q0 -21 -14.5 -35.5t-35.5 -14.5h-7q-20 0 -35 14.5t-15 35.5v7q0 20 15 35t35 15h7q21 0 35.5 14.5t14.5 35.5v7q0 20 15 35t35 15h7q21 0 35.5 -15
t14.5 -35v-7v0z" />
    <glyph glyph-name="aacute" unicode="&#xe1;" 
d="M478 585q0 -21 14.5 -35.5t35.5 -14.5h7q21 0 35.5 -14.5t14.5 -35.5v-57v-107v-107v-107v-57q0 -21 -14.5 -35.5t-35.5 -14.5h-57h-107h-107h-58q-20 0 -35 14.5t-15 35.5v6q0 21 -14.5 35.5t-35.5 14.5h-6q-21 0 -35.5 14.5t-14.5 35.5v57v58q0 21 14.5 35.5t35.5 14.5
h57h107h107h57q21 0 35.5 14.5t14.5 35.5v57v57q0 21 -14.5 35.5t-35.5 14.5h-57h-107h-57q-21 0 -35.5 -14.5t-14.5 -35.5v-7q0 -21 -14.5 -35.5t-35.5 -14.5h-7q-21 0 -35.5 14.5t-14.5 35.5v8q0 20 14.5 35t35.5 15h7q21 0 35.5 14.5t14.5 35.5v6q0 21 14.5 35.5
t35.5 14.5h57h107h57q21 0 35.5 -14.5t14.5 -35.5v-7zM428 107q21 0 35.5 14.5t14.5 35.5v7q0 21 -14.5 35.5t-35.5 14.5h-57h-107h-57h-35.5t-14.5 -1v-56q0 -21 14.5 -35.5t35.5 -14.5h57h107h57zM168 826q0 -21 -14.5 -35.5t-35.5 -14.5h-7q-21 0 -35.5 14.5t-14.5 35.5
v57v57q0 21 14.5 35.5t35.5 14.5h7q21 0 35.5 14.5t14.5 35.5v7q0 21 14.5 35.5t35.5 14.5h7q21 0 35.5 -14.5t14.5 -35.5v-7q0 -21 -14.5 -35.5t-35.5 -14.5h-7q-21 0 -35.5 -14.5t-14.5 -35.5v-57v-57v0z" />
    <glyph glyph-name="agrave" unicode="&#xe0;" 
d="M396 853l-40 41l-40 40q-15 15 -35.5 15t-35.5 -15l-5 -5q-15 -15 -35.5 -15t-35.5 15l-5 5q-15 15 -15 35.5t15 35.5l5 5q15 14 35.5 14t35.5 -14l5 -5q15 -15 35.5 -15t35.5 15l4 5q15 14 35.5 14t35.5 -14l40 -41l41 -40q15 -15 15 -35.5t-15 -35.5l-5 -5
q-15 -14 -35.5 -14t-35.5 14zM478 585v7q0 21 -14.5 35.5t-35.5 14.5h-57h-107h-57q-21 0 -35.5 -14.5t-14.5 -35.5v-6q0 -21 -14.5 -35.5t-35.5 -14.5h-7q-21 0 -35.5 -15t-14.5 -35v-8q0 -21 14.5 -35.5t35.5 -14.5h7q21 0 35.5 14.5t14.5 35.5v7q0 21 14.5 35.5
t35.5 14.5h57h107h57q21 0 35.5 -14.5t14.5 -35.5v-57v-57q0 -21 -14.5 -35.5t-35.5 -14.5h-57h-107h-107h-57q-21 0 -35.5 -14.5t-14.5 -35.5v-58v-57q0 -21 14.5 -35.5t35.5 -14.5h6q21 0 35.5 -14.5t14.5 -35.5v-6q0 -21 15 -35.5t35 -14.5h58h107h107h57q21 0 35.5 14.5
t14.5 35.5v57v107v107v107v57q0 21 -14.5 35.5t-35.5 14.5h-7q-21 0 -35.5 14.5t-14.5 35.5zM428 107h-57h-107h-57q-21 0 -35.5 14.5t-14.5 35.5v56q0 1 14.5 1h35.5h57h107h57q21 0 35.5 -14.5t14.5 -35.5v-7q0 -21 -14.5 -35.5t-35.5 -14.5z" />
    <glyph glyph-name="dieresis" unicode="&#xa8;" horiz-adv-x="395" 
d="M238 866v7q0 21 14.5 35.5t35.5 14.5h7q21 0 35.5 -14.5t14.5 -35.5v-7q0 -21 -14.5 -35.5t-35.5 -14.5h-7q-21 0 -35.5 14.5t-14.5 35.5zM50 866v7q0 21 14.5 35.5t35.5 14.5h7q21 0 35.5 -14.5t14.5 -35.5v-7q0 -21 -14.5 -35.5t-35.5 -14.5h-7q-21 0 -35.5 14.5
t-14.5 35.5z" />
    <glyph glyph-name="brokenbar" unicode="&#xa6;" horiz-adv-x="833" 
 />
    <glyph glyph-name="uni00A0" unicode="&#xa0;" horiz-adv-x="0" 
 />
    <glyph glyph-name="dotlessi" unicode="&#x131;" 
d="M478 107h57q21 0 35.5 -14.5t14.5 -35.5v-7q0 -21 -14.5 -35.5t-35.5 -14.5h-57h-107h-107h-107h-57q-21 0 -35.5 14.5t-14.5 35.5v7q0 21 14.5 35.5t35.5 14.5h57h57q21 0 35.5 14.5t14.5 35.5v57v107v165q0 21 -14.5 35.5t-35.5 14.5h-7q-21 0 -35.5 14.5t-14.5 35.5v7
q0 21 14.5 35.5t35.5 14.5h57h107h57q21 0 35.5 -14.5t14.5 -35.5v-7q0 -21 -14.5 -35.5t-35.5 -14.5h-7q-21 0 -35.5 -14.5t-14.5 -35.5v-165v-107v-57q0 -21 14.5 -35.5t35.5 -14.5h57z" />
    <glyph glyph-name="caron" unicode="&#x2c7;" horiz-adv-x="450" 
d="M130 931l49 -29l49 -28q18 -11 37.5 -6t30.5 24l4 6q11 19 30.5 24t37.5 -6l7 -3q18 -11 23.5 -30.5t-5.5 -38.5l-4 -6q-11 -17 -30.5 -22.5t-37.5 4.5l-6 3q-19 11 -38.5 6t-30.5 -24l-3 -6q-11 -17 -30.5 -22.5t-37.5 4.5l-49 29l-50 28q-19 11 -24.5 30.5t5.5 38.5
l4 6q11 17 30.5 22.5t38.5 -4.5z" />
    <glyph glyph-name="hungarumlaut" unicode="&#x2dd;" horiz-adv-x="528" 
d="M371 699q0 21 14.5 35.5t35.5 14.5h7q21 0 35.5 -14.5t14.5 -35.5v-57v-57q0 -21 -14.5 -35.5t-35.5 -14.5h-7q-21 0 -35.5 -14.5t-14.5 -35.5v-7q0 -21 -14.5 -35.5t-35.5 -14.5h-7q-21 0 -35.5 14.5t-14.5 35.5v7q0 21 14.5 35.5t35.5 14.5h7q21 0 35.5 14.5t14.5 35.5
v57v57zM157 699q0 21 14.5 35.5t35.5 14.5h7q21 0 35.5 -14.5t14.5 -35.5v-57v-57q0 -21 -14.5 -35.5t-35.5 -14.5h-7q-21 0 -35.5 -14.5t-14.5 -35.5v-7q0 -21 -14.5 -35.5t-35.5 -14.5h-7q-21 0 -35.5 14.5t-14.5 35.5v7q0 21 14.5 35.5t35.5 14.5h7q21 0 35.5 14.5
t14.5 35.5v57v57z" />
    <glyph glyph-name="ring" unicode="&#x2da;" horiz-adv-x="833" 
 />
    <glyph glyph-name="fi" unicode="&#xfb01;" horiz-adv-x="1241" 
d="M585 692q0 -21 -14.5 -35.5t-35.5 -14.5h-7q-21 0 -35.5 14.5t-14.5 35.5v7q0 21 -14.5 35.5t-35.5 14.5h-57h-57q-21 0 -35.5 -14.5t-14.5 -35.5v-57v-107v-107v-107h107h107h57q21 0 35.5 -14.5t14.5 -35.5v-7q0 -21 -14.5 -35.5t-35.5 -14.5h-57h-107h-57
q-21 0 -35.5 -14.5t-14.5 -35.5v-57v-57q0 -21 -14.5 -35.5t-35.5 -14.5h-7q-21 0 -35.5 14.5t-14.5 35.5v57v57q0 21 -14.5 35.5t-35.5 14.5h-7q-21 0 -35.5 14.5t-14.5 35.5v7q0 21 14.5 35.5t35.5 14.5h7q21 0 35.5 14.5t14.5 35.5v57v107v107v57q0 21 14.5 35.5
t35.5 14.5h7q21 0 35.5 14.5t14.5 35.5v7q0 21 14.5 35.5t35.5 14.5h57h57q21 0 35.5 -14.5t14.5 -35.5v-7q0 -21 14.5 -35.5t35.5 -14.5h7q21 0 35.5 -14.5t14.5 -35.5v-7v0zM927 857q21 0 35.5 -14.5t14.5 -35.5v-7q0 -21 -14.5 -35.5t-35.5 -14.5h-7q-21 0 -35.5 14.5
t-14.5 35.5v7q0 21 14.5 35.5t35.5 14.5h7zM1084 107h57q21 0 35.5 -14.5t14.5 -35.5v-7q0 -21 -14.5 -35.5t-35.5 -14.5h-57h-107h-107h-107h-57q-21 0 -35.5 14.5t-14.5 35.5v7q0 21 14.5 35.5t35.5 14.5h57h57q21 0 35.5 14.5t14.5 35.5v57v107v165q0 21 -14.5 35.5
t-35.5 14.5h-7q-21 0 -35.5 14.5t-14.5 35.5v7q0 21 14.5 35.5t35.5 14.5h57h107h57q21 0 35.5 -14.5t14.5 -35.5v-7q0 -21 -14.5 -35.5t-35.5 -14.5h-7q-21 0 -35.5 -14.5t-14.5 -35.5v-165v-107v-57q0 -21 14.5 -35.5t35.5 -14.5h57z" />
    <glyph glyph-name="fl" unicode="&#xfb02;" horiz-adv-x="1145" 
d="M585 692q0 -21 -14.5 -35.5t-35.5 -14.5h-7q-21 0 -35.5 14.5t-14.5 35.5v7q0 21 -14.5 35.5t-35.5 14.5h-57h-57q-21 0 -35.5 -14.5t-14.5 -35.5v-57v-107v-107v-107h107h107h57q21 0 35.5 -14.5t14.5 -35.5v-7q0 -21 -14.5 -35.5t-35.5 -14.5h-57h-107h-57
q-21 0 -35.5 -14.5t-14.5 -35.5v-57v-57q0 -21 -14.5 -35.5t-35.5 -14.5h-7q-21 0 -35.5 14.5t-14.5 35.5v57v57q0 21 -14.5 35.5t-35.5 14.5h-7q-21 0 -35.5 14.5t-14.5 35.5v7q0 21 14.5 35.5t35.5 14.5h7q21 0 35.5 14.5t14.5 35.5v57v107v107v57q0 21 14.5 35.5
t35.5 14.5h7q21 0 35.5 14.5t14.5 35.5v7q0 21 14.5 35.5t35.5 14.5h57h57q21 0 35.5 -14.5t14.5 -35.5v-7q0 -21 14.5 -35.5t35.5 -14.5h7q21 0 35.5 -14.5t14.5 -35.5v-7v0zM988 107h57q21 0 35.5 -14.5t14.5 -35.5v-7q0 -21 -14.5 -35.5t-35.5 -14.5h-57h-57
q-21 0 -35.5 14.5t-14.5 35.5v7q0 21 -14.5 35.5t-35.5 14.5h-7q-21 0 -35.5 14.5t-14.5 35.5v57v107v107v215v57q0 21 -14.5 35.5t-35.5 14.5h-7q-21 0 -35.5 14.5t-14.5 35.5v7q0 21 14.5 35.5t35.5 14.5h57h5h52q21 0 35.5 -14.5t14.5 -35.5v-57v-107v-215v-107v-107v-57
q0 -21 14.5 -35.5t35.5 -14.5h57z" />
    <glyph glyph-name="Lslash" unicode="&#x141;" horiz-adv-x="636" 
d="M478 107h57q21 0 35.5 -14.5t14.5 -35.5v-7q0 -21 -14.5 -35.5t-35.5 -14.5h-57h-107h-107h-57q-21 0 -35.5 14.5t-14.5 35.5v7q0 21 -14.5 35.5t-35.5 14.5h-7q-21 0 -35.5 14.5t-14.5 35.5v57v107v107v107v57v100v7q0 21 14.5 35.5t35.5 14.5h7q21 0 35.5 -14.5
t14.5 -35.5v-57v-107v-107v-107v-107v-57q0 -21 14.5 -35.5t35.5 -14.5h57h107h107zM372 358h164q21 0 35.5 -14.5t14.5 -35.5v-7q0 -21 -14.5 -35.5t-35.5 -14.5h-164h-107h-107h-57q-21 0 -35.5 14.5t-14.5 35.5v7q0 21 14.5 35.5t35.5 14.5h57h107h107z" />
    <glyph glyph-name="lslash" unicode="&#x142;" 
d="M424 107h57q21 0 35.5 -14.5t14.5 -35.5v-7q0 -21 -14.5 -35.5t-35.5 -14.5h-57h-57q-21 0 -35.5 14.5t-14.5 35.5v7q0 21 -14.5 35.5t-35.5 14.5h-7q-21 0 -35.5 14.5t-14.5 35.5v57v107v107v215v57q0 21 -14.5 35.5t-35.5 14.5h-7q-21 0 -35.5 14.5t-14.5 35.5v7
q0 21 14.5 35.5t35.5 14.5h57h5h52q21 0 35.5 -14.5t14.5 -35.5v-57v-107v-215v-107v-107v-57q0 -21 14.5 -35.5t35.5 -14.5h57zM371 358h164q21 0 35.5 -14.5t14.5 -35.5v-7q0 -21 -14.5 -35.5t-35.5 -14.5h-164h-107h-107h-57q-21 0 -35.5 14.5t-14.5 35.5v7
q0 21 14.5 35.5t35.5 14.5h57h107h107z" />
    <glyph glyph-name="Zcaron" unicode="&#x17d;" 
d="M478 749h57q20 0 35 -14.5t15 -35.5v-57v-57q0 -21 -15 -35.5t-35 -14.5h-7q-21 0 -35.5 -14.5t-14.5 -35.5v-7q0 -21 -15 -35.5t-35 -14.5h-7q-21 0 -35.5 -14.5t-14.5 -35.5v-7q0 -21 -15 -35.5t-35 -14.5h-7q-21 0 -35.5 -14.5t-14.5 -35.5v-7q0 -21 -15 -35.5
t-35 -14.5h-7q-21 0 -35.5 -14.5t-14.5 -35.5v-7q0 -21 14.5 -35.5t35.5 -14.5h57h107h107h57q20 0 35 -14.5t15 -35.5v-7q0 -21 -15 -35.5t-35 -14.5h-57h-107h-107h-107h-57q-21 0 -35.5 14.5t-14.5 35.5v57v57q0 21 14.5 35.5t35.5 14.5h7q20 0 35 14.5t15 35.5v7
q0 21 14.5 35.5t35.5 14.5h7q20 0 35 14.5t15 35.5v7q0 21 14.5 35.5t35.5 14.5h7q20 0 35 14.5t15 35.5v7q0 21 14.5 35.5t35.5 14.5h7q20 0 35 14.5t15 35.5v7q0 21 -15 35.5t-35 14.5h-57h-107h-107h-57q-21 0 -35.5 14.5t-14.5 35.5v7q0 21 14.5 35.5t35.5 14.5h57h107
h107h107zM222 1035l49 -29l49 -28q18 -11 37.5 -6t30.5 24l4 6q11 19 30.5 24t37.5 -6l7 -3q18 -11 23.5 -30.5t-5.5 -38.5l-4 -6q-11 -17 -30.5 -22.5t-37.5 4.5l-6 3q-19 11 -38.5 6t-30.5 -24l-3 -6q-11 -17 -30.5 -22.5t-37.5 4.5l-49 29l-50 28q-19 11 -24.5 30.5
t5.5 38.5l4 6q11 17 30.5 22.5t38.5 -4.5z" />
    <glyph glyph-name="guilsinglright" unicode="&#x203a;" horiz-adv-x="421" 
d="M264 481q0 -21 14.5 -35.5t35.5 -14.5h7q20 0 35 -14.5t15 -35.5v-7q0 -21 -15 -35.5t-35 -14.5h-7q-21 0 -35.5 -14.5t-14.5 -35.5v-7q0 -21 -15 -35.5t-35 -14.5h-7q-21 0 -35.5 -14.5t-14.5 -35.5v-7q0 -21 -15 -35.5t-35 -14.5h-7q-21 0 -35.5 14.5t-14.5 35.5v7
q0 21 14.5 35.5t35.5 14.5h7q20 0 35 14.5t15 35.5v7q0 21 14.5 35.5t35.5 14.5h7q20 0 35 14.5t15 35.5v7q0 21 -15 35.5t-35 14.5h-7q-21 0 -35.5 14.5t-14.5 35.5v7q0 21 -15 35.5t-35 14.5h-7q-21 0 -35.5 14.5t-14.5 35.5v7q0 21 14.5 35.5t35.5 14.5h7q20 0 35 -14.5
t15 -35.5v-7q0 -21 14.5 -35.5t35.5 -14.5h7q20 0 35 -14.5t15 -35.5v-7v0z" />
    <glyph glyph-name="tilde" unicode="&#x2dc;" horiz-adv-x="833" 
d="M523 969q0 21 14.5 35.5t35.5 14.5h7q21 0 35.5 -14.5t14.5 -35.5v-7q0 -21 -14.5 -35.5t-35.5 -14.5h-7q-21 0 -35.5 -14.5t-14.5 -35.5v-7q0 -21 -14.5 -35.5t-35.5 -14.5h-7q-21 0 -35.5 14.5t-14.5 35.5v7q0 21 -14.5 35.5t-35.5 14.5h-7q-21 0 -35.5 -14.5
t-14.5 -35.5v-7q0 -21 -14.5 -35.5t-35.5 -14.5h-7q-21 0 -35.5 14.5t-14.5 35.5v7q0 21 14.5 35.5t35.5 14.5h7q21 0 35.5 14.5t14.5 35.5v7q0 21 14.5 35.5t35.5 14.5h7q21 0 35.5 -14.5t14.5 -35.5v-7q0 -21 14.5 -35.5t35.5 -14.5h7q21 0 35.5 14.5t14.5 35.5v7v0z" />
    <glyph glyph-name="trademark" unicode="&#x2122;" horiz-adv-x="1440" 
d="M478 749h57q21 0 35.5 -14.5t14.5 -35.5v-7q0 -21 -14.5 -35.5t-35.5 -14.5h-57h-57q-21 0 -35.5 -14.5t-14.5 -35.5v-57v-107v-107v-107v-107v-57q0 -21 -14.5 -35.5t-35.5 -14.5h-7q-21 0 -35.5 14.5t-14.5 35.5v57v107v107v107v107v57q0 21 -14.5 35.5t-35.5 14.5h-57
h-57q-21 0 -35.5 14.5t-14.5 35.5v7q0 21 14.5 35.5t35.5 14.5h57h107h107h107zM1333 749h7q21 0 35.5 -14.5t14.5 -35.5v-57v-107v-107v-107v-107v-107v-57q0 -21 -14.5 -35.5t-35.5 -14.5h-7q-20 0 -35 14.5t-15 35.5v57v107v107v107v107v57q0 21 -14.5 35.5t-35.5 14.5
h-6q-21 0 -35.5 -14.5t-14.5 -35.5v-7q0 -21 -14.5 -35.5t-35.5 -14.5h-7q-21 0 -35.5 -14.5t-14.5 -35.5v-57v-107v-107v-107v-57q0 -21 -14.5 -35.5t-35.5 -14.5h-7q-21 0 -35.5 14.5t-14.5 35.5v57v107v107v107v57q0 21 -14.5 35.5t-35.5 14.5h-7q-21 0 -35.5 14.5
t-14.5 35.5v7q0 21 -14.5 35.5t-35.5 14.5h-7q-21 0 -35.5 -14.5t-14.5 -35.5v-57v-107v-107v-107v-107v-57q0 -21 -14.5 -35.5t-35.5 -14.5h-7q-21 0 -35.5 14.5t-14.5 35.5v57v107v107v107v57v100v57v57q0 21 14.5 35.5t35.5 14.5h57h57q21 0 35.5 -14.5t14.5 -35.5v-4
q0 -20 14.5 -35t35.5 -15h7q21 0 35.5 -14.5t14.5 -35.5v-9q0 -21 14.5 -35.5t35.5 -14.5h7q21 0 35.5 14.5t14.5 35.5v9q0 21 14.5 35.5t35.5 14.5h6q21 0 35.5 15t14.5 35v4q0 21 15 35.5t35 14.5h7h100z" />
    <glyph glyph-name="guilsinglleft" unicode="&#x2039;" horiz-adv-x="421" 
d="M157 481v7q0 21 15 35.5t35 14.5h7q21 0 35.5 14.5t14.5 35.5v7q0 21 15 35.5t35 14.5h7q21 0 35.5 -14.5t14.5 -35.5v-7q0 -21 -14.5 -35.5t-35.5 -14.5h-7q-20 0 -35 -14.5t-15 -35.5v-7q0 -21 -14.5 -35.5t-35.5 -14.5h-7q-20 0 -35 -14.5t-15 -35.5v-7
q0 -21 15 -35.5t35 -14.5h7q21 0 35.5 -14.5t14.5 -35.5v-7q0 -21 15 -35.5t35 -14.5h7q21 0 35.5 -14.5t14.5 -35.5v-7q0 -21 -14.5 -35.5t-35.5 -14.5h-7q-20 0 -35 14.5t-15 35.5v7q0 21 -14.5 35.5t-35.5 14.5h-7q-20 0 -35 14.5t-15 35.5v7q0 21 -14.5 35.5t-35.5 14.5
h-7q-20 0 -35 14.5t-15 35.5v7q0 21 15 35.5t35 14.5h7q21 0 35.5 14.5t14.5 35.5z" />
    <glyph glyph-name="guillemotleft" unicode="&#xab;" horiz-adv-x="691" 
d="M157 481v7q0 21 15 35.5t35 14.5h7q21 0 35.5 14.5t14.5 35.5v7q0 21 15 35.5t35 14.5h7q21 0 35.5 -14.5t14.5 -35.5v-7q0 -21 -14.5 -35.5t-35.5 -14.5h-7q-20 0 -35 -14.5t-15 -35.5v-7q0 -21 -14.5 -35.5t-35.5 -14.5h-7q-20 0 -35 -14.5t-15 -35.5v-7
q0 -21 15 -35.5t35 -14.5h7q21 0 35.5 -14.5t14.5 -35.5v-7q0 -21 15 -35.5t35 -14.5h7q21 0 35.5 -14.5t14.5 -35.5v-7q0 -21 -14.5 -35.5t-35.5 -14.5h-7q-20 0 -35 14.5t-15 35.5v7q0 21 -14.5 35.5t-35.5 14.5h-7q-20 0 -35 14.5t-15 35.5v7q0 21 -14.5 35.5t-35.5 14.5
h-7q-20 0 -35 14.5t-15 35.5v7q0 21 15 35.5t35 14.5h7q21 0 35.5 14.5t14.5 35.5zM427 481v7q0 21 15 35.5t35 14.5h7q21 0 35.5 14.5t14.5 35.5v7q0 21 15 35.5t35 14.5h7q21 0 35.5 -14.5t14.5 -35.5v-7q0 -21 -14.5 -35.5t-35.5 -14.5h-7q-20 0 -35 -14.5t-15 -35.5v-7
q0 -21 -14.5 -35.5t-35.5 -14.5h-7q-20 0 -35 -14.5t-15 -35.5v-7q0 -21 15 -35.5t35 -14.5h7q21 0 35.5 -14.5t14.5 -35.5v-7q0 -21 15 -35.5t35 -14.5h7q21 0 35.5 -14.5t14.5 -35.5v-7q0 -21 -14.5 -35.5t-35.5 -14.5h-7q-20 0 -35 14.5t-15 35.5v7q0 21 -14.5 35.5
t-35.5 14.5h-7q-20 0 -35 14.5t-15 35.5v7q0 21 -14.5 35.5t-35.5 14.5h-7q-20 0 -35 14.5t-15 35.5v7q0 21 15 35.5t35 14.5h7q21 0 35.5 14.5t14.5 35.5z" />
    <glyph glyph-name="minus" unicode="&#x2212;" 
d="M371 358h164q21 0 35.5 -14.5t14.5 -35.5v-7q0 -21 -14.5 -35.5t-35.5 -14.5h-164h-107h-107h-57q-21 0 -35.5 14.5t-14.5 35.5v7q0 21 14.5 35.5t35.5 14.5h57h107h107z" />
    <glyph glyph-name="divide" unicode="&#xf7;" 
d="M321 486h-7q-21 0 -35.5 14.5t-14.5 35.5v7q0 21 14.5 35.5t35.5 14.5h7q21 0 35.5 -14.5t14.5 -35.5v-7q0 -21 -14.5 -35.5t-35.5 -14.5zM321 58h-7q-21 0 -35.5 14.5t-14.5 35.5v7q0 21 14.5 35.5t35.5 14.5h7q21 0 35.5 -14.5t14.5 -35.5v-7q0 -21 -14.5 -35.5
t-35.5 -14.5zM371 358h164q21 0 35.5 -14.5t14.5 -35.5v-7q0 -21 -14.5 -35.5t-35.5 -14.5h-164h-107h-107h-57q-21 0 -35.5 14.5t-14.5 35.5v7q0 21 14.5 35.5t35.5 14.5h57h107h107z" />
    <glyph glyph-name="glyph191" horiz-adv-x="0" 
 />
    <glyph glyph-name="glyph192" horiz-adv-x="0" 
 />
    <glyph glyph-name="glyph193" horiz-adv-x="0" 
 />
    <glyph glyph-name="A" unicode="A" 
d="M478 692q0 -21 14.5 -35.5t35.5 -14.5h7q21 0 35.5 -14.5t14.5 -35.5v-57v-107v-107v-107v-107v-57q0 -21 -14.5 -35.5t-35.5 -14.5h-7q-21 0 -35.5 14.5t-14.5 35.5v57v57q0 21 -14.5 35.5t-35.5 14.5h-57h-107h-57q-21 0 -35.5 -15t-14.5 -36v-57v-57
q0 -21 -14.5 -35.5t-35.5 -14.5h-7q-21 0 -35.5 14.5t-14.5 35.5v57v107v107v108v107v57q0 21 14.5 35.5t35.5 14.5h7q21 0 35.5 14.5t14.5 35.5v7q0 21 14.5 35.5t35.5 14.5h57h107h57q21 0 35.5 -14.5t14.5 -35.5v-7zM478 535v57q0 21 -14.5 35.5t-35.5 14.5h-57h-107h-57
q-21 0 -35.5 -14.5t-14.5 -35.5v-57v-107v-57q0 -21 14.5 -35.5t35.5 -14.5h57h107h57q21 0 35.5 14.5t14.5 35.5v57v107z" />
    <glyph glyph-name="B" unicode="B" 
d="M478 692q0 -21 14.5 -35.5t35.5 -14.5h7q21 0 35.5 -14.5t14.5 -35.5v-57v-57q0 -21 -14.5 -35.5t-35.5 -14.5h-7q-21 0 -35.5 -14.5t-14.5 -35.5v-7q0 -21 14.5 -35.5t35.5 -14.5h7q21 0 35.5 -14.5t14.5 -35.5v-57v-57q0 -21 -14.5 -35.5t-35.5 -14.5h-7
q-21 0 -35.5 -14.5t-14.5 -35.5v-7q0 -21 -14.5 -35.5t-35.5 -14.5h-57h-107h-107h-57q-21 0 -35.5 14.5t-14.5 35.5v57v107v107v107v107v57q0 21 14.5 35.5t35.5 14.5h7q21 0 35.5 14.5t14.5 35.5v7q0 21 14.5 35.5t35.5 14.5h57h107h57q21 0 35.5 -14.5t14.5 -35.5v-7z
M478 214v57q0 21 -14.5 35.5t-35.5 14.5h-57h-107h-57q-21 0 -35.5 -14.5t-14.5 -35.5v-57v-57q0 -21 14.5 -35.5t35.5 -14.5h57h107h57q21 0 35.5 14.5t14.5 35.5v57zM478 535v57q0 21 -14.5 35.5t-35.5 14.5h-57h-107h-57q-21 0 -35.5 -14.5t-14.5 -35.5v-57v-57
q0 -21 14.5 -35.5t35.5 -14.5h57h107h57q21 0 35.5 14.5t14.5 35.5v57z" />
    <glyph glyph-name="C" unicode="C" 
d="M585 585q0 -21 -14.5 -35.5t-35.5 -14.5h-7q-21 0 -35.5 14.5t-14.5 35.5v7q0 21 -14.5 35.5t-35.5 14.5h-57h-107h-57q-21 0 -35.5 -14.5t-14.5 -35.5v-57v-107v-107v-107v-57q0 -21 14.5 -35.5t35.5 -14.5h57h107h57q21 0 35.5 14.5t14.5 35.5v7q0 21 14.5 35.5
t35.5 14.5h7q21 0 35.5 -14.5t14.5 -35.5v-7q0 -21 -14.5 -35.5t-35.5 -14.5h-7q-21 0 -35.5 -14.5t-14.5 -35.5v-7q0 -21 -14.5 -35.5t-35.5 -14.5h-57h-107h-107h-57q-21 0 -35.5 14.5t-14.5 35.5v57v107v107v107v107v57q0 21 14.5 35.5t35.5 14.5h7q21 0 35.5 14.5
t14.5 35.5v7q0 21 14.5 35.5t35.5 14.5h57h107h57q21 0 35.5 -14.5t14.5 -35.5v-7q0 -21 14.5 -35.5t35.5 -14.5h7q21 0 35.5 -14.5t14.5 -35.5v-7v0z" />
    <glyph glyph-name="D" unicode="D" 
d="M478 478q0 -21 14.5 -35.5t35.5 -14.5h7q21 0 35.5 -14.5t14.5 -35.5v-57v-107v-57q0 -21 -14.5 -35.5t-35.5 -14.5h-7q-21 0 -35.5 -14.5t-14.5 -35.5v-7q0 -21 -14.5 -35.5t-35.5 -14.5h-56h-1h-107h-107h-57q-21 0 -35.5 14.5t-14.5 35.5v57v107v107v107v107v107v57
q0 21 14.5 35.5t35.5 14.5h57h57q21 0 35.5 -14.5t14.5 -35.5v-7q0 -21 14.5 -35.5t35.5 -14.5h7q21 0 35.5 -14.5t14.5 -35.5v-7q0 -21 14.5 -35.5t35.5 -14.5h7q21 0 35.5 -14.5t14.5 -35.5v-7zM478 321v57q0 21 -14.5 35.5t-35.5 14.5h-7q-21 0 -35.5 14.5t-14.5 35.5v7
q0 21 -14.5 35.5t-35.5 14.5h-7q-21 0 -35.5 14.5t-14.5 35.5v7q0 21 -14.5 35.5t-35.5 14.5h-7q-21 0 -35.5 -14.5t-14.5 -35.5v-57v-107v-107v-107v-57q0 -21 14.5 -35.5t35.5 -14.5h57h107h1h56q21 0 35.5 14.5t14.5 35.5v57v107z" />
    <glyph glyph-name="icircumflex" unicode="&#xee;" 
d="M478 107h57q21 0 35.5 -14.5t14.5 -35.5v-7q0 -21 -14.5 -35.5t-35.5 -14.5h-57h-107h-107h-107h-57q-21 0 -35.5 14.5t-14.5 35.5v7q0 21 14.5 35.5t35.5 14.5h57h57q21 0 35.5 14.5t14.5 35.5v57v107v165q0 21 -14.5 35.5t-35.5 14.5h-7q-21 0 -35.5 14.5t-14.5 35.5v7
q0 21 14.5 35.5t35.5 14.5h57h107h57q21 0 35.5 -14.5t14.5 -35.5v-7q0 -21 -14.5 -35.5t-35.5 -14.5h-7q-21 0 -35.5 -14.5t-14.5 -35.5v-165v-107v-57q0 -21 14.5 -35.5t35.5 -14.5h57zM371 1014q0 -21 15 -35.5t35 -14.5h7q21 0 35.5 -15t14.5 -35v-7q0 -21 -14.5 -35.5
t-35.5 -14.5h-7q-20 0 -35 14.5t-15 35.5v7q0 20 -14.5 35t-35.5 15h-7q-20 0 -35 -15t-15 -35v-7q0 -21 -14.5 -35.5t-35.5 -14.5h-7q-20 0 -35 14.5t-15 35.5v7q0 20 15 35t35 15h7q21 0 35.5 14.5t14.5 35.5v7q0 20 15 35t35 15h7q21 0 35.5 -15t14.5 -35v-7v0z" />
    <glyph glyph-name="idieresis" unicode="&#xef;" 
d="M478 107h57q21 0 35.5 -14.5t14.5 -35.5v-7q0 -21 -14.5 -35.5t-35.5 -14.5h-57h-107h-107h-107h-57q-21 0 -35.5 14.5t-14.5 35.5v7q0 21 14.5 35.5t35.5 14.5h57h57q21 0 35.5 14.5t14.5 35.5v57v107v165q0 21 -14.5 35.5t-35.5 14.5h-7q-21 0 -35.5 14.5t-14.5 35.5v7
q0 21 14.5 35.5t35.5 14.5h57h107h57q21 0 35.5 -14.5t14.5 -35.5v-7q0 -21 -14.5 -35.5t-35.5 -14.5h-7q-21 0 -35.5 -14.5t-14.5 -35.5v-165v-107v-57q0 -21 14.5 -35.5t35.5 -14.5h57zM358 866v7q0 21 14.5 35.5t35.5 14.5h7q21 0 35.5 -14.5t14.5 -35.5v-7
q0 -21 -14.5 -35.5t-35.5 -14.5h-7q-21 0 -35.5 14.5t-14.5 35.5zM170 866v7q0 21 14.5 35.5t35.5 14.5h7q21 0 35.5 -14.5t14.5 -35.5v-7q0 -21 -14.5 -35.5t-35.5 -14.5h-7q-21 0 -35.5 14.5t-14.5 35.5z" />
    <glyph glyph-name="section" unicode="&#xa7;" horiz-adv-x="833" 
 />
    <glyph glyph-name="copyright" unicode="&#xa9;" horiz-adv-x="833" 
 />
    <glyph glyph-name="logicalnot" unicode="&#xac;" horiz-adv-x="833" 
 />
    <glyph glyph-name="mu" unicode="&#xb5;" horiz-adv-x="833" 
 />
    <glyph glyph-name="mu" unicode="&#x3bc;" horiz-adv-x="833" 
 />
    <glyph glyph-name="Thorn" unicode="&#xde;" horiz-adv-x="833" 
d="M562 476q0 -21 14.5 -35.5t35.5 -14.5h7q21 0 35.5 -14.5t14.5 -35.5v-57v-107v-57q0 -21 -14.5 -35.5t-35.5 -14.5h-7q-21 0 -35.5 -14.5t-14.5 -35.5v-7q0 -21 -14.5 -35.5t-35.5 -14.5h-57h-107h-57h-35.5t-14.5 -1v-107v-57q0 -21 -14.5 -35.5t-35.5 -14.5h-7
q-21 0 -35.5 14.5t-14.5 35.5v57v107v107v107v108v107v107v107v57q0 21 14.5 35.5t35.5 14.5h7q21 0 35.5 -14.5t14.5 -35.5v-57v-57q0 -21 14.5 -35.5t35.5 -14.5h57h107h57q21 0 35.5 -14.5t14.5 -35.5v-7zM562 212v107v57q0 21 -14.5 35.5t-35.5 14.5h-57h-165
q-9 0 -17.5 -5t-16 -12.5t-11.5 -16.5t-4 -17v-164v-56q0 -21 14.5 -35.5t35.5 -14.5h57h107h57q21 0 35.5 14.5t14.5 35.5v57z" />
    <glyph glyph-name="Adieresis" unicode="&#xc4;" 
d="M478 692q0 -21 14.5 -35.5t35.5 -14.5h7q21 0 35.5 -14.5t14.5 -35.5v-57v-107v-107v-107v-107v-57q0 -21 -14.5 -35.5t-35.5 -14.5h-7q-21 0 -35.5 14.5t-14.5 35.5v57v57q0 21 -14.5 35.5t-35.5 14.5h-57h-107h-57q-21 0 -35.5 -15t-14.5 -36v-57v-57
q0 -21 -14.5 -35.5t-35.5 -14.5h-7q-21 0 -35.5 14.5t-14.5 35.5v57v107v107v108v107v57q0 21 14.5 35.5t35.5 14.5h7q21 0 35.5 14.5t14.5 35.5v7q0 21 14.5 35.5t35.5 14.5h57h107h57q21 0 35.5 -14.5t14.5 -35.5v-7zM478 535v57q0 21 -14.5 35.5t-35.5 14.5h-57h-107h-57
q-21 0 -35.5 -14.5t-14.5 -35.5v-57v-107v-57q0 -21 14.5 -35.5t35.5 -14.5h57h107h57q21 0 35.5 14.5t14.5 35.5v57v107zM358 861v7q0 21 14.5 35.5t35.5 14.5h7q21 0 35.5 -14.5t14.5 -35.5v-7q0 -21 -14.5 -35.5t-35.5 -14.5h-7q-21 0 -35.5 14.5t-14.5 35.5zM170 861v7
q0 21 14.5 35.5t35.5 14.5h7q21 0 35.5 -14.5t14.5 -35.5v-7q0 -21 -14.5 -35.5t-35.5 -14.5h-7q-21 0 -35.5 14.5t-14.5 35.5z" />
    <glyph glyph-name="Aring" unicode="&#xc5;" 
d="M311 927q21 0 35.5 -14.5t14.5 -35.5v-7q0 -21 -14.5 -35.5t-35.5 -14.5h-7q-21 0 -35.5 14.5t-14.5 35.5v7q0 21 14.5 35.5t35.5 14.5h7zM478 692q0 -21 14.5 -35.5t35.5 -14.5h7q21 0 35.5 -14.5t14.5 -35.5v-57v-107v-107v-107v-107v-57q0 -21 -14.5 -35.5
t-35.5 -14.5h-7q-21 0 -35.5 14.5t-14.5 35.5v57v57q0 21 -14.5 35.5t-35.5 14.5h-57h-107h-57q-21 0 -35.5 -15t-14.5 -36v-57v-57q0 -21 -14.5 -35.5t-35.5 -14.5h-7q-21 0 -35.5 14.5t-14.5 35.5v57v107v107v108v107v57q0 21 14.5 35.5t35.5 14.5h7q21 0 35.5 14.5
t14.5 35.5v7q0 21 14.5 35.5t35.5 14.5h57h107h57q21 0 35.5 -14.5t14.5 -35.5v-7zM478 535v57q0 21 -14.5 35.5t-35.5 14.5h-57h-107h-57q-21 0 -35.5 -14.5t-14.5 -35.5v-57v-107v-57q0 -21 14.5 -35.5t35.5 -14.5h57h107h57q21 0 35.5 14.5t14.5 35.5v57v107z" />
    <glyph glyph-name="Atilde" unicode="&#xc3;" 
d="M478 692q0 -21 14.5 -35.5t35.5 -14.5h7q21 0 35.5 -14.5t14.5 -35.5v-57v-107v-107v-107v-107v-57q0 -21 -14.5 -35.5t-35.5 -14.5h-7q-21 0 -35.5 14.5t-14.5 35.5v57v57q0 21 -14.5 35.5t-35.5 14.5h-57h-107h-57q-21 0 -35.5 -15t-14.5 -36v-57v-57
q0 -21 -14.5 -35.5t-35.5 -14.5h-7q-21 0 -35.5 14.5t-14.5 35.5v57v107v107v108v107v57q0 21 14.5 35.5t35.5 14.5h7q21 0 35.5 14.5t14.5 35.5v7q0 21 14.5 35.5t35.5 14.5h57h107h57q21 0 35.5 -14.5t14.5 -35.5v-7zM478 535v57q0 21 -14.5 35.5t-35.5 14.5h-57h-107h-57
q-21 0 -35.5 -14.5t-14.5 -35.5v-57v-107v-57q0 -21 14.5 -35.5t35.5 -14.5h57h107h57q21 0 35.5 14.5t14.5 35.5v57v107zM432 969q0 21 14.5 35.5t35.5 14.5h7q21 0 35.5 -14.5t14.5 -35.5v-7q0 -21 -14.5 -35.5t-35.5 -14.5h-7q-21 0 -35.5 -14.5t-14.5 -35.5v-7
q0 -21 -14.5 -35.5t-35.5 -14.5h-7q-21 0 -35.5 14.5t-14.5 35.5v7q0 21 -14.5 35.5t-35.5 14.5h-7q-21 0 -35.5 -14.5t-14.5 -35.5v-7q0 -21 -14.5 -35.5t-35.5 -14.5h-7q-21 0 -35.5 14.5t-14.5 35.5v7q0 21 14.5 35.5t35.5 14.5h7q21 0 35.5 14.5t14.5 35.5v7
q0 21 14.5 35.5t35.5 14.5h7q21 0 35.5 -14.5t14.5 -35.5v-7q0 -21 14.5 -35.5t35.5 -14.5h7q21 0 35.5 14.5t14.5 35.5v7v0z" />
    <glyph glyph-name="aring" unicode="&#xe5;" 
d="M311 927q21 0 35.5 -14.5t14.5 -35.5v-7q0 -21 -14.5 -35.5t-35.5 -14.5h-7q-21 0 -35.5 14.5t-14.5 35.5v7q0 21 14.5 35.5t35.5 14.5h7zM478 585q0 -21 14.5 -35.5t35.5 -14.5h7q21 0 35.5 -14.5t14.5 -35.5v-57v-107v-107v-107v-57q0 -21 -14.5 -35.5t-35.5 -14.5h-57
h-107h-107h-58q-20 0 -35 14.5t-15 35.5v6q0 21 -14.5 35.5t-35.5 14.5h-6q-21 0 -35.5 14.5t-14.5 35.5v57v58q0 21 14.5 35.5t35.5 14.5h57h107h107h57q21 0 35.5 14.5t14.5 35.5v57v57q0 21 -14.5 35.5t-35.5 14.5h-57h-107h-57q-21 0 -35.5 -14.5t-14.5 -35.5v-7
q0 -21 -14.5 -35.5t-35.5 -14.5h-7q-21 0 -35.5 14.5t-14.5 35.5v8q0 20 14.5 35t35.5 15h7q21 0 35.5 14.5t14.5 35.5v6q0 21 14.5 35.5t35.5 14.5h57h107h57q21 0 35.5 -14.5t14.5 -35.5v-7zM428 107q21 0 35.5 14.5t14.5 35.5v7q0 21 -14.5 35.5t-35.5 14.5h-57h-107h-57
h-35.5t-14.5 -1v-56q0 -21 14.5 -35.5t35.5 -14.5h57h107h57z" />
    <glyph glyph-name="adieresis" unicode="&#xe4;" 
d="M478 585q0 -21 14.5 -35.5t35.5 -14.5h7q21 0 35.5 -14.5t14.5 -35.5v-57v-107v-107v-107v-57q0 -21 -14.5 -35.5t-35.5 -14.5h-57h-107h-107h-58q-20 0 -35 14.5t-15 35.5v6q0 21 -14.5 35.5t-35.5 14.5h-6q-21 0 -35.5 14.5t-14.5 35.5v57v58q0 21 14.5 35.5t35.5 14.5
h57h107h107h57q21 0 35.5 14.5t14.5 35.5v57v57q0 21 -14.5 35.5t-35.5 14.5h-57h-107h-57q-21 0 -35.5 -14.5t-14.5 -35.5v-7q0 -21 -14.5 -35.5t-35.5 -14.5h-7q-21 0 -35.5 14.5t-14.5 35.5v8q0 20 14.5 35t35.5 15h7q21 0 35.5 14.5t14.5 35.5v6q0 21 14.5 35.5
t35.5 14.5h57h107h57q21 0 35.5 -14.5t14.5 -35.5v-7zM428 107q21 0 35.5 14.5t14.5 35.5v7q0 21 -14.5 35.5t-35.5 14.5h-57h-107h-57h-35.5t-14.5 -1v-56q0 -21 14.5 -35.5t35.5 -14.5h57h107h57zM358 866v7q0 21 14.5 35.5t35.5 14.5h7q21 0 35.5 -14.5t14.5 -35.5v-7
q0 -21 -14.5 -35.5t-35.5 -14.5h-7q-21 0 -35.5 14.5t-14.5 35.5zM170 866v7q0 21 14.5 35.5t35.5 14.5h7q21 0 35.5 -14.5t14.5 -35.5v-7q0 -21 -14.5 -35.5t-35.5 -14.5h-7q-21 0 -35.5 14.5t-14.5 35.5z" />
    <glyph glyph-name="Agrave" unicode="&#xc0;" 
d="M478 692q0 -21 14.5 -35.5t35.5 -14.5h7q21 0 35.5 -14.5t14.5 -35.5v-57v-107v-107v-107v-107v-57q0 -21 -14.5 -35.5t-35.5 -14.5h-7q-21 0 -35.5 14.5t-14.5 35.5v57v57q0 21 -14.5 35.5t-35.5 14.5h-57h-107h-57q-21 0 -35.5 -15t-14.5 -36v-57v-57
q0 -21 -14.5 -35.5t-35.5 -14.5h-7q-21 0 -35.5 14.5t-14.5 35.5v57v107v107v108v107v57q0 21 14.5 35.5t35.5 14.5h7q21 0 35.5 14.5t14.5 35.5v7q0 21 14.5 35.5t35.5 14.5h57h107h57q21 0 35.5 -14.5t14.5 -35.5v-7zM478 535v57q0 21 -14.5 35.5t-35.5 14.5h-57h-107h-57
q-21 0 -35.5 -14.5t-14.5 -35.5v-57v-107v-57q0 -21 14.5 -35.5t35.5 -14.5h57h107h57q21 0 35.5 14.5t14.5 35.5v57v107zM395 957l-40 41l-40 40q-15 15 -35.5 15t-35.5 -15l-5 -5q-15 -15 -35.5 -15t-35.5 15l-5 5q-15 15 -15 35.5t15 35.5l5 5q15 14 35.5 14t35.5 -14
l5 -5q15 -15 35.5 -15t35.5 15l4 5q15 14 35.5 14t35.5 -14l40 -41l41 -40q15 -15 15 -35.5t-15 -35.5l-5 -5q-15 -14 -35.5 -14t-35.5 14z" />
    <glyph glyph-name="Udieresis" unicode="&#xdc;" 
d="M478 699q0 21 14.5 35.5t35.5 14.5h7q21 0 35.5 -14.5t14.5 -35.5v-57v-107v-107v-107v-107v-57q0 -21 -14.5 -35.5t-35.5 -14.5h-5q-21 0 -35.5 -14.5t-14.5 -35.5v-7q0 -21 -15 -35.5t-35 -14.5h-59h-107h-57q-21 0 -35.5 14.5t-14.5 35.5v7q0 21 -14.5 35.5
t-35.5 14.5h-7q-21 0 -35.5 14.5t-14.5 35.5v57v107v107v107v107v57q0 21 14.5 35.5t35.5 14.5h7q21 0 35.5 -14.5t14.5 -35.5v-57v-107v-107v-107v-107v-57q0 -21 14.5 -35.5t35.5 -14.5h57h107h57q21 0 35.5 14.5t14.5 35.5v57v107v107v107v107v57v0zM358 970v7
q0 21 14.5 35.5t35.5 14.5h7q21 0 35.5 -14.5t14.5 -35.5v-7q0 -21 -14.5 -35.5t-35.5 -14.5h-7q-21 0 -35.5 14.5t-14.5 35.5zM170 970v7q0 21 14.5 35.5t35.5 14.5h7q21 0 35.5 -14.5t14.5 -35.5v-7q0 -21 -14.5 -35.5t-35.5 -14.5h-7q-21 0 -35.5 14.5t-14.5 35.5z" />
    <glyph glyph-name="udieresis" unicode="&#xfc;" 
d="M478 50q0 -21 14.5 -35.5t35.5 -14.5h7q20 0 35 -14.5t15 -35.5v-7q0 -21 -15 -35.5t-35 -14.5h-7q-21 0 -35.5 14.5t-14.5 35.5v7q0 21 -15 35.5t-35 14.5h-57h-107h-57q-21 0 -35.5 14.5t-14.5 35.5v6q0 21 -15 35.5t-35 14.5h-7q-21 0 -35.5 14.5t-14.5 35.5v57v107
v107v108v57q0 21 14.5 35.5t35.5 14.5h7q20 0 35 -14.5t15 -35.5v-57v-108v-107v-107v-56q0 -21 14.5 -35.5t35.5 -14.5h57h107h57q20 0 35 14.5t15 35.5v57v107v107v107v57q0 21 14.5 35.5t35.5 14.5h7q20 0 35 -14.5t15 -35.5v-57v-107v-107v-107v-57q0 -21 -15 -35.5
t-35 -14.5h-7q-21 0 -35.5 -14.5t-14.5 -35.5v-7v0zM358 866v7q0 21 14.5 35.5t35.5 14.5h7q21 0 35.5 -14.5t14.5 -35.5v-7q0 -21 -14.5 -35.5t-35.5 -14.5h-7q-21 0 -35.5 14.5t-14.5 35.5zM170 866v7q0 21 14.5 35.5t35.5 14.5h7q21 0 35.5 -14.5t14.5 -35.5v-7
q0 -21 -14.5 -35.5t-35.5 -14.5h-7q-21 0 -35.5 14.5t-14.5 35.5z" />
    <glyph glyph-name="oe" unicode="&#x153;" horiz-adv-x="1065" 
d="M478 585q0 -21 14.5 -35.5t35.5 -14.5h7q20 0 35 -14.5t15 -35.5v-57v-2v-105v-107v-58q0 -21 -15 -35.5t-35 -14.5h-7q-21 0 -35.5 -14.5t-14.5 -35.5v-6q0 -21 -15 -35.5t-35 -14.5h-57h-107h-57q-21 0 -35.5 14.5t-14.5 35.5v6q0 21 -15 35.5t-35 14.5h-7
q-21 0 -35.5 14.5t-14.5 35.5v57v107v106v2v57q0 21 14.5 35.5t35.5 14.5h7q20 0 35 14.5t15 35.5v7q0 21 14.5 35.5t35.5 14.5h57h107h57q20 0 35 -14.5t15 -35.5v-7zM478 428v57q0 21 -15 35.5t-35 14.5h-57h-107h-57q-21 0 -35.5 -14.5t-14.5 -35.5v-57v-2v-106v-107v-56
q0 -21 14.5 -35.5t35.5 -14.5h57h107h57q20 0 35 14.5t15 35.5v57v107v105v2zM963 214q21 0 35.5 -14.5t14.5 -35.5v-7q0 -21 -14.5 -35.5t-35.5 -14.5h-7q-21 0 -35.5 -14.5t-14.5 -35.5v-7q0 -21 -14.5 -35.5t-35.5 -14.5h-57h-107h-57q-21 0 -35.5 14.5t-14.5 35.5v7
q0 21 -14.5 35.5t-35.5 14.5h-7q-21 0 -35.5 14.5t-14.5 35.5v57v107v107v57q0 21 14.5 35.5t35.5 14.5h5q21 0 35.5 14.5t14.5 35.5v7q0 21 15 35.5t35 14.5h59h107h57q21 0 35.5 -14.5t14.5 -35.5v-6q0 -21 14.5 -35.5t35.5 -14.5h7q21 0 35.5 -14.5t14.5 -35.5v-57v-57
q0 -21 -14.5 -35.5t-35.5 -14.5h-7h-35.5t-14.5 -1h-50h-57h-107h-57q-21 0 -35.5 -14.5t-14.5 -35.5v-57v-57q0 -21 14.5 -35.5t35.5 -14.5h57h107h57q21 0 35.5 14.5t14.5 35.5v7q0 21 14.5 35.5t35.5 14.5h7zM635 535q-21 0 -35.5 -14.5t-14.5 -35.5v-7q0 -21 14.5 -35.5
t35.5 -14.5h57h107h57h50v1v56q0 21 -14.5 35.5t-35.5 14.5h-57h-107h-57z" />
    <glyph glyph-name="breve" unicode="&#x2d8;" horiz-adv-x="833" 
d="M363 914q0 21 -15 35.5t-35 14.5h-7q-21 0 -35.5 15t-14.5 35v7q0 21 14.5 35.5t35.5 14.5h7q20 0 35 -14.5t15 -35.5v-7q0 -20 14.5 -35t35.5 -15h7q20 0 35 15t15 35v7q0 21 14.5 35.5t35.5 14.5h7q20 0 35 -14.5t15 -35.5v-7q0 -20 -15 -35t-35 -15h-7
q-21 0 -35.5 -14.5t-14.5 -35.5v-7q0 -20 -15 -35t-35 -15h-7q-21 0 -35.5 15t-14.5 35v7v0z" />
    <glyph glyph-name="Edieresis" unicode="&#xcb;" 
d="M264 214h-57q-21 0 -35.5 -14.5t-14.5 -35.5v-7q0 -21 14.5 -35.5t35.5 -14.5h57h107h107h57q21 0 35.5 -14.5t14.5 -35.5v-7q0 -21 -14.5 -35.5t-35.5 -14.5h-57h-107h-107h-57q-21 0 -35.5 14.5t-14.5 35.5v7q0 21 -14.5 35.5t-35.5 14.5h-7q-21 0 -35.5 14.5
t-14.5 35.5v57v107v107v107v57q0 21 14.5 35.5t35.5 14.5h7q21 0 35.5 14.5t14.5 35.5v7q0 21 14.5 35.5t35.5 14.5h57h107h107h57q21 0 35.5 -14.5t14.5 -35.5v-7q0 -21 -14.5 -35.5t-35.5 -14.5h-57h-107h-107h-57q-21 0 -35.5 -14.5t-14.5 -35.5v-57v-107v-57
q0 -21 14.5 -35.5t35.5 -14.5h57h107h107h57q21 0 35.5 -14.5t14.5 -35.5v-7q0 -21 -14.5 -35.5t-35.5 -14.5h-57h-107h-107zM358 859v7q0 21 14.5 35.5t35.5 14.5h7q21 0 35.5 -14.5t14.5 -35.5v-7q0 -21 -14.5 -35.5t-35.5 -14.5h-7q-21 0 -35.5 14.5t-14.5 35.5zM170 859
v7q0 21 14.5 35.5t35.5 14.5h7q21 0 35.5 -14.5t14.5 -35.5v-7q0 -21 -14.5 -35.5t-35.5 -14.5h-7q-21 0 -35.5 14.5t-14.5 35.5z" />
    <glyph glyph-name="edieresis" unicode="&#xeb;" 
d="M535 214q21 0 35.5 -14.5t14.5 -35.5v-7q0 -21 -14.5 -35.5t-35.5 -14.5h-7q-21 0 -35.5 -14.5t-14.5 -35.5v-7q0 -21 -14.5 -35.5t-35.5 -14.5h-57h-107h-57q-21 0 -35.5 14.5t-14.5 35.5v7q0 21 -14.5 35.5t-35.5 14.5h-7q-21 0 -35.5 14.5t-14.5 35.5v57v107v107v57
q0 21 14.5 35.5t35.5 14.5h5q21 0 35.5 14.5t14.5 35.5v7q0 21 15 35.5t35 14.5h59h107h57q21 0 35.5 -14.5t14.5 -35.5v-6q0 -21 14.5 -35.5t35.5 -14.5h7q21 0 35.5 -14.5t14.5 -35.5v-57v-57q0 -21 -14.5 -35.5t-35.5 -14.5h-7h-35.5t-14.5 -1h-50h-57h-107h-57
q-21 0 -35.5 -14.5t-14.5 -35.5v-57v-57q0 -21 14.5 -35.5t35.5 -14.5h57h107h57q21 0 35.5 14.5t14.5 35.5v7q0 21 14.5 35.5t35.5 14.5h7zM207 535q-21 0 -35.5 -14.5t-14.5 -35.5v-7q0 -21 14.5 -35.5t35.5 -14.5h57h107h57h50v1v56q0 21 -14.5 35.5t-35.5 14.5h-57h-107
h-57zM358 866v7q0 21 14.5 35.5t35.5 14.5h7q21 0 35.5 -14.5t14.5 -35.5v-7q0 -21 -14.5 -35.5t-35.5 -14.5h-7q-21 0 -35.5 14.5t-14.5 35.5zM170 866v7q0 21 14.5 35.5t35.5 14.5h7q21 0 35.5 -14.5t14.5 -35.5v-7q0 -21 -14.5 -35.5t-35.5 -14.5h-7q-21 0 -35.5 14.5
t-14.5 35.5z" />
    <glyph glyph-name="igrave" unicode="&#xec;" 
d="M478 107h57q21 0 35.5 -14.5t14.5 -35.5v-7q0 -21 -14.5 -35.5t-35.5 -14.5h-57h-107h-107h-107h-57q-21 0 -35.5 14.5t-14.5 35.5v7q0 21 14.5 35.5t35.5 14.5h57h57q21 0 35.5 14.5t14.5 35.5v57v107v165q0 21 -14.5 35.5t-35.5 14.5h-7q-21 0 -35.5 14.5t-14.5 35.5v7
q0 21 14.5 35.5t35.5 14.5h57h107h57q21 0 35.5 -14.5t14.5 -35.5v-7q0 -21 -14.5 -35.5t-35.5 -14.5h-7q-21 0 -35.5 -14.5t-14.5 -35.5v-165v-107v-57q0 -21 14.5 -35.5t35.5 -14.5h57zM395 853l-40 41l-40 40q-15 15 -35.5 15t-35.5 -15l-5 -5q-15 -15 -35.5 -15
t-35.5 15l-5 5q-15 15 -15 35.5t15 35.5l5 5q15 14 35.5 14t35.5 -14l5 -5q15 -15 35.5 -15t35.5 15l4 5q15 14 35.5 14t35.5 -14l40 -41l41 -40q15 -15 15 -35.5t-15 -35.5l-5 -5q-15 -14 -35.5 -14t-35.5 14z" />
    <glyph glyph-name="iacute" unicode="&#xed;" 
d="M478 107h57q21 0 35.5 -14.5t14.5 -35.5v-7q0 -21 -14.5 -35.5t-35.5 -14.5h-57h-107h-107h-107h-57q-21 0 -35.5 14.5t-14.5 35.5v7q0 21 14.5 35.5t35.5 14.5h57h57q21 0 35.5 14.5t14.5 35.5v57v107v165q0 21 -14.5 35.5t-35.5 14.5h-7q-21 0 -35.5 14.5t-14.5 35.5v7
q0 21 14.5 35.5t35.5 14.5h57h107h57q21 0 35.5 -14.5t14.5 -35.5v-7q0 -21 -14.5 -35.5t-35.5 -14.5h-7q-21 0 -35.5 -14.5t-14.5 -35.5v-165v-107v-57q0 -21 14.5 -35.5t35.5 -14.5h57zM317 826q0 -21 -14.5 -35.5t-35.5 -14.5h-7q-21 0 -35.5 14.5t-14.5 35.5v57v57
q0 21 14.5 35.5t35.5 14.5h7q21 0 35.5 14.5t14.5 35.5v7q0 21 14.5 35.5t35.5 14.5h7q21 0 35.5 -14.5t14.5 -35.5v-7q0 -21 -14.5 -35.5t-35.5 -14.5h-7q-21 0 -35.5 -14.5t-14.5 -35.5v-57v-57v0z" />
    <glyph glyph-name="Idieresis" unicode="&#xcf;" 
d="M478 107h57q21 0 35.5 -14.5t14.5 -35.5v-7q0 -21 -14.5 -35.5t-35.5 -14.5h-57h-107h-107h-107h-57q-21 0 -35.5 14.5t-14.5 35.5v7q0 21 14.5 35.5t35.5 14.5h57h57q21 0 35.5 14.5t14.5 35.5v57v107v107v107v57q0 21 -14.5 35.5t-35.5 14.5h-57h-57q-21 0 -35.5 14.5
t-14.5 35.5v7q0 21 14.5 35.5t35.5 14.5h57h107h107h107h57q21 0 35.5 -14.5t14.5 -35.5v-7q0 -21 -14.5 -35.5t-35.5 -14.5h-57h-57q-21 0 -35.5 -14.5t-14.5 -35.5v-57v-107v-107v-107v-57q0 -21 14.5 -35.5t35.5 -14.5h57zM358 970v7q0 21 14.5 35.5t35.5 14.5h7
q21 0 35.5 -14.5t14.5 -35.5v-7q0 -21 -14.5 -35.5t-35.5 -14.5h-7q-21 0 -35.5 14.5t-14.5 35.5zM170 970v7q0 21 14.5 35.5t35.5 14.5h7q21 0 35.5 -14.5t14.5 -35.5v-7q0 -21 -14.5 -35.5t-35.5 -14.5h-7q-21 0 -35.5 14.5t-14.5 35.5z" />
    <glyph glyph-name="eth" unicode="&#xf0;" 
d="M478 692q0 -21 14.5 -35.5t35.5 -14.5h7q21 0 35.5 -14.5t14.5 -35.5v-57v-107v-107v-107v-57q0 -21 -14.5 -35.5t-35.5 -14.5h-7q-21 0 -35.5 -14.5t-14.5 -35.5v-7q0 -21 -14.5 -35.5t-35.5 -14.5h-57h-107h-57q-21 0 -35.5 14.5t-14.5 35.5v7q0 21 -14.5 35.5
t-35.5 14.5h-7q-21 0 -35.5 14.5t-14.5 35.5v7q0 21 14.5 35.5t35.5 14.5h7q21 0 35.5 -14.5t14.5 -35.5v-7q0 -21 14.5 -35.5t35.5 -14.5h57h107h57q21 0 35.5 14.5t14.5 35.5v57v57q0 21 -14.5 35.5t-35.5 14.5h-57h-107h-57q-21 0 -35.5 14.5t-14.5 35.5v7
q0 21 -14.5 35.5t-35.5 14.5h-7q-21 0 -35.5 14.5t-14.5 35.5v57v57q0 21 14.5 35.5t35.5 14.5h7q21 0 35.5 14.5t14.5 35.5v7q0 21 14.5 35.5t35.5 14.5h57h107h57q21 0 35.5 -14.5t14.5 -35.5v-7zM478 428v107v57q0 21 -14.5 35.5t-35.5 14.5h-57h-107h-57
q-21 0 -35.5 -14.5t-14.5 -35.5v-57v-57q0 -21 14.5 -35.5t35.5 -14.5h57h107h107z" />
    <glyph glyph-name="Eth" unicode="&#xd0;" horiz-adv-x="836" 
d="M679 478q0 -21 14.5 -35.5t35.5 -14.5h7q21 0 35.5 -14.5t14.5 -35.5v-57v-107v-57q0 -21 -14.5 -35.5t-35.5 -14.5h-7q-21 0 -35.5 -14.5t-14.5 -35.5v-7q0 -21 -14.5 -35.5t-35.5 -14.5h-56h-1h-107h-107h-57q-21 0 -35.5 14.5t-14.5 35.5v57v107v107v107v107v107v57
q0 21 14.5 35.5t35.5 14.5h57h57q21 0 35.5 -14.5t14.5 -35.5v-7q0 -21 14.5 -35.5t35.5 -14.5h7q21 0 35.5 -14.5t14.5 -35.5v-7q0 -21 14.5 -35.5t35.5 -14.5h7q21 0 35.5 -14.5t14.5 -35.5v-7zM679 321v57q0 21 -14.5 35.5t-35.5 14.5h-7q-21 0 -35.5 14.5t-14.5 35.5v7
q0 21 -14.5 35.5t-35.5 14.5h-7q-21 0 -35.5 14.5t-14.5 35.5v7q0 21 -14.5 35.5t-35.5 14.5h-7q-21 0 -35.5 -14.5t-14.5 -35.5v-57v-107v-107v-107v-57q0 -21 14.5 -35.5t35.5 -14.5h57h107h1h56q21 0 35.5 14.5t14.5 35.5v57v107zM251 358h-107h-57q-21 0 -35.5 -14.5
t-14.5 -35.5v-7q0 -21 14.5 -35.5t35.5 -14.5h57h107h107h164q21 0 35.5 14.5t14.5 35.5v7q0 21 -14.5 35.5t-35.5 14.5h-164h-107z" />
    <glyph glyph-name="ograve" unicode="&#xf2;" 
d="M478 585q0 -21 14.5 -35.5t35.5 -14.5h7q20 0 35 -14.5t15 -35.5v-57v-2v-105v-107v-58q0 -21 -15 -35.5t-35 -14.5h-7q-21 0 -35.5 -14.5t-14.5 -35.5v-6q0 -21 -15 -35.5t-35 -14.5h-57h-107h-57q-21 0 -35.5 14.5t-14.5 35.5v6q0 21 -15 35.5t-35 14.5h-7
q-21 0 -35.5 14.5t-14.5 35.5v57v107v106v2v57q0 21 14.5 35.5t35.5 14.5h7q20 0 35 14.5t15 35.5v7q0 21 14.5 35.5t35.5 14.5h57h107h57q20 0 35 -14.5t15 -35.5v-7zM478 428v57q0 21 -15 35.5t-35 14.5h-57h-107h-57q-21 0 -35.5 -14.5t-14.5 -35.5v-57v-2v-106v-107v-56
q0 -21 14.5 -35.5t35.5 -14.5h57h107h57q20 0 35 14.5t15 35.5v57v107v105v2zM395 853l-40 41l-40 40q-15 15 -35.5 15t-35.5 -15l-5 -5q-15 -15 -35.5 -15t-35.5 15l-5 5q-15 15 -15 35.5t15 35.5l5 5q15 14 35.5 14t35.5 -14l5 -5q15 -15 35.5 -15t35.5 15l4 5
q15 14 35.5 14t35.5 -14l40 -41l41 -40q15 -15 15 -35.5t-15 -35.5l-5 -5q-15 -14 -35.5 -14t-35.5 14z" />
    <glyph glyph-name="oacute" unicode="&#xf3;" 
d="M478 585q0 -21 14.5 -35.5t35.5 -14.5h7q20 0 35 -14.5t15 -35.5v-57v-2v-105v-107v-58q0 -21 -15 -35.5t-35 -14.5h-7q-21 0 -35.5 -14.5t-14.5 -35.5v-6q0 -21 -15 -35.5t-35 -14.5h-57h-107h-57q-21 0 -35.5 14.5t-14.5 35.5v6q0 21 -15 35.5t-35 14.5h-7
q-21 0 -35.5 14.5t-14.5 35.5v57v107v106v2v57q0 21 14.5 35.5t35.5 14.5h7q20 0 35 14.5t15 35.5v7q0 21 14.5 35.5t35.5 14.5h57h107h57q20 0 35 -14.5t15 -35.5v-7zM478 428v57q0 21 -15 35.5t-35 14.5h-57h-107h-57q-21 0 -35.5 -14.5t-14.5 -35.5v-57v-2v-106v-107v-56
q0 -21 14.5 -35.5t35.5 -14.5h57h107h57q20 0 35 14.5t15 35.5v57v107v105v2zM317 826q0 -21 -14.5 -35.5t-35.5 -14.5h-7q-21 0 -35.5 14.5t-14.5 35.5v57v57q0 21 14.5 35.5t35.5 14.5h7q21 0 35.5 14.5t14.5 35.5v7q0 21 14.5 35.5t35.5 14.5h7q21 0 35.5 -14.5
t14.5 -35.5v-7q0 -21 -14.5 -35.5t-35.5 -14.5h-7q-21 0 -35.5 -14.5t-14.5 -35.5v-57v-57v0z" />
    <glyph glyph-name="Odieresis" unicode="&#xd6;" 
d="M478 692q0 -21 14.5 -35.5t35.5 -14.5h7q21 0 35.5 -14.5t14.5 -35.5v-57v-107v-107v-107v-59q0 -21 -14.5 -35.5t-35.5 -14.5h-5q-20 0 -35 -15t-15 -35v-5q0 -21 -14.5 -35.5t-35.5 -14.5h-59h-107h-57q-21 0 -35.5 14.5t-14.5 35.5v6q0 21 -14.5 35.5t-35.5 14.5h-7
q-21 0 -35.5 14.5t-14.5 35.5v57v107v108v107v57q0 21 14.5 35.5t35.5 14.5h7q21 0 35.5 14.5t14.5 35.5v7q0 21 14.5 35.5t35.5 14.5h57h107h57q21 0 35.5 -14.5t14.5 -35.5v-7zM478 428v107v57q0 21 -14.5 35.5t-35.5 14.5h-57h-107h-57q-21 0 -35.5 -14.5t-14.5 -35.5
v-57v-107v-108v-107v-56q0 -21 14.5 -35.5t35.5 -14.5h57h107h57q21 0 35.5 14.5t14.5 35.5v57v107v107zM358 970v7q0 21 14.5 35.5t35.5 14.5h7q21 0 35.5 -14.5t14.5 -35.5v-7q0 -21 -14.5 -35.5t-35.5 -14.5h-7q-21 0 -35.5 14.5t-14.5 35.5zM170 970v7q0 21 14.5 35.5
t35.5 14.5h7q21 0 35.5 -14.5t14.5 -35.5v-7q0 -21 -14.5 -35.5t-35.5 -14.5h-7q-21 0 -35.5 14.5t-14.5 35.5z" />
    <glyph glyph-name="odieresis" unicode="&#xf6;" 
d="M478 585q0 -21 14.5 -35.5t35.5 -14.5h7q20 0 35 -14.5t15 -35.5v-57v-2v-105v-107v-58q0 -21 -15 -35.5t-35 -14.5h-7q-21 0 -35.5 -14.5t-14.5 -35.5v-6q0 -21 -15 -35.5t-35 -14.5h-57h-107h-57q-21 0 -35.5 14.5t-14.5 35.5v6q0 21 -15 35.5t-35 14.5h-7
q-21 0 -35.5 14.5t-14.5 35.5v57v107v106v2v57q0 21 14.5 35.5t35.5 14.5h7q20 0 35 14.5t15 35.5v7q0 21 14.5 35.5t35.5 14.5h57h107h57q20 0 35 -14.5t15 -35.5v-7zM478 428v57q0 21 -15 35.5t-35 14.5h-57h-107h-57q-21 0 -35.5 -14.5t-14.5 -35.5v-57v-2v-106v-107v-56
q0 -21 14.5 -35.5t35.5 -14.5h57h107h57q20 0 35 14.5t15 35.5v57v107v105v2zM358 866v7q0 21 14.5 35.5t35.5 14.5h7q21 0 35.5 -14.5t14.5 -35.5v-7q0 -21 -14.5 -35.5t-35.5 -14.5h-7q-21 0 -35.5 14.5t-14.5 35.5zM170 866v7q0 21 14.5 35.5t35.5 14.5h7
q21 0 35.5 -14.5t14.5 -35.5v-7q0 -21 -14.5 -35.5t-35.5 -14.5h-7q-21 0 -35.5 14.5t-14.5 35.5z" />
    <glyph glyph-name="Ugrave" unicode="&#xd9;" 
d="M478 699q0 21 14.5 35.5t35.5 14.5h7q21 0 35.5 -14.5t14.5 -35.5v-57v-107v-107v-107v-107v-57q0 -21 -14.5 -35.5t-35.5 -14.5h-5q-21 0 -35.5 -14.5t-14.5 -35.5v-7q0 -21 -15 -35.5t-35 -14.5h-59h-107h-57q-21 0 -35.5 14.5t-14.5 35.5v7q0 21 -14.5 35.5
t-35.5 14.5h-7q-21 0 -35.5 14.5t-14.5 35.5v57v107v107v107v107v57q0 21 14.5 35.5t35.5 14.5h7q21 0 35.5 -14.5t14.5 -35.5v-57v-107v-107v-107v-107v-57q0 -21 14.5 -35.5t35.5 -14.5h57h107h57q21 0 35.5 14.5t14.5 35.5v57v107v107v107v107v57v0zM395 874l-40 41
l-40 40q-15 15 -35.5 15t-35.5 -15l-5 -5q-15 -15 -35.5 -15t-35.5 15l-5 5q-15 15 -15 35.5t15 35.5l5 5q15 14 35.5 14t35.5 -14l5 -5q15 -15 35.5 -15t35.5 15l4 5q15 14 35.5 14t35.5 -14l40 -41l41 -40q15 -15 15 -35.5t-15 -35.5l-5 -5q-15 -14 -35.5 -14t-35.5 14z
" />
    <glyph glyph-name="Otilde" unicode="&#xd5;" 
d="M478 692q0 -21 14.5 -35.5t35.5 -14.5h7q21 0 35.5 -14.5t14.5 -35.5v-57v-107v-107v-107v-59q0 -21 -14.5 -35.5t-35.5 -14.5h-5q-20 0 -35 -15t-15 -35v-5q0 -21 -14.5 -35.5t-35.5 -14.5h-59h-107h-57q-21 0 -35.5 14.5t-14.5 35.5v6q0 21 -14.5 35.5t-35.5 14.5h-7
q-21 0 -35.5 14.5t-14.5 35.5v57v107v108v107v57q0 21 14.5 35.5t35.5 14.5h7q21 0 35.5 14.5t14.5 35.5v7q0 21 14.5 35.5t35.5 14.5h57h107h57q21 0 35.5 -14.5t14.5 -35.5v-7zM478 428v107v57q0 21 -14.5 35.5t-35.5 14.5h-57h-107h-57q-21 0 -35.5 -14.5t-14.5 -35.5
v-57v-107v-108v-107v-56q0 -21 14.5 -35.5t35.5 -14.5h57h107h57q21 0 35.5 14.5t14.5 35.5v57v107v107zM426 1073q0 21 14.5 35.5t35.5 14.5h7q21 0 35.5 -14.5t14.5 -35.5v-7q0 -21 -14.5 -35.5t-35.5 -14.5h-7q-21 0 -35.5 -14.5t-14.5 -35.5v-7q0 -21 -14.5 -35.5
t-35.5 -14.5h-7q-21 0 -35.5 14.5t-14.5 35.5v7q0 21 -14.5 35.5t-35.5 14.5h-7q-21 0 -35.5 -14.5t-14.5 -35.5v-7q0 -21 -14.5 -35.5t-35.5 -14.5h-7q-21 0 -35.5 14.5t-14.5 35.5v7q0 21 14.5 35.5t35.5 14.5h7q21 0 35.5 14.5t14.5 35.5v7q0 21 14.5 35.5t35.5 14.5h7
q21 0 35.5 -14.5t14.5 -35.5v-7q0 -21 14.5 -35.5t35.5 -14.5h7q21 0 35.5 14.5t14.5 35.5v7v0z" />
    <glyph glyph-name="otilde" unicode="&#xf5;" 
d="M478 585q0 -21 14.5 -35.5t35.5 -14.5h7q20 0 35 -14.5t15 -35.5v-57v-2v-105v-107v-58q0 -21 -15 -35.5t-35 -14.5h-7q-21 0 -35.5 -14.5t-14.5 -35.5v-6q0 -21 -15 -35.5t-35 -14.5h-57h-107h-57q-21 0 -35.5 14.5t-14.5 35.5v6q0 21 -15 35.5t-35 14.5h-7
q-21 0 -35.5 14.5t-14.5 35.5v57v107v106v2v57q0 21 14.5 35.5t35.5 14.5h7q20 0 35 14.5t15 35.5v7q0 21 14.5 35.5t35.5 14.5h57h107h57q20 0 35 -14.5t15 -35.5v-7zM478 428v57q0 21 -15 35.5t-35 14.5h-57h-107h-57q-21 0 -35.5 -14.5t-14.5 -35.5v-57v-2v-106v-107v-56
q0 -21 14.5 -35.5t35.5 -14.5h57h107h57q20 0 35 14.5t15 35.5v57v107v105v2zM426 969q0 21 14.5 35.5t35.5 14.5h7q21 0 35.5 -14.5t14.5 -35.5v-7q0 -21 -14.5 -35.5t-35.5 -14.5h-7q-21 0 -35.5 -14.5t-14.5 -35.5v-7q0 -21 -14.5 -35.5t-35.5 -14.5h-7q-21 0 -35.5 14.5
t-14.5 35.5v7q0 21 -14.5 35.5t-35.5 14.5h-7q-21 0 -35.5 -14.5t-14.5 -35.5v-7q0 -21 -14.5 -35.5t-35.5 -14.5h-7q-21 0 -35.5 14.5t-14.5 35.5v7q0 21 14.5 35.5t35.5 14.5h7q21 0 35.5 14.5t14.5 35.5v7q0 21 14.5 35.5t35.5 14.5h7q21 0 35.5 -14.5t14.5 -35.5v-7
q0 -21 14.5 -35.5t35.5 -14.5h7q21 0 35.5 14.5t14.5 35.5v7v0z" />
    <glyph glyph-name="zcaron" unicode="&#x17e;" 
d="M264 264q0 -21 -14.5 -35.5t-35.5 -14.5h-7q-21 0 -35.5 -14.5t-14.5 -35.5v-7q0 -21 14.5 -35.5t35.5 -14.5h57h107h107h57q20 0 35 -14.5t15 -35.5v-7q0 -21 -14.5 -35.5t-35.5 -14.5h-57h-107h-107h-107h-57q-21 0 -35.5 14.5t-14.5 35.5v51v6v57q0 21 14.5 35.5
t35.5 14.5h7q21 0 35.5 14.5t14.5 35.5v7q0 21 14.5 35.5t35.5 14.5h7q21 0 35.5 14.5t14.5 35.5v7q0 21 14.5 35.5t35.5 14.5h7q21 0 35.5 14.5t14.5 35.5v7q0 21 -14.5 35.5t-35.5 14.5h-57h-107h-57q-21 0 -35.5 14.5t-14.5 35.5v7q0 21 14.5 35.5t35.5 14.5h57h107h107
h107h57q20 0 35 -14.5t15 -35.5v-7q0 -21 -15 -35.5t-35 -14.5h-7q-21 0 -35.5 -14.5t-14.5 -35.5v-7q0 -21 -14.5 -35.5t-35.5 -14.5h-7q-21 0 -35.5 -14.5t-14.5 -35.5v-7q0 -21 -14.5 -35.5t-35.5 -14.5h-7q-21 0 -35.5 -14.5t-14.5 -35.5v-7v0zM222 931l49 -29l49 -28
q18 -11 37.5 -6t30.5 24l4 6q11 19 30.5 24t37.5 -6l7 -3q18 -11 23.5 -30.5t-5.5 -38.5l-4 -6q-11 -17 -30.5 -22.5t-37.5 4.5l-6 3q-19 11 -38.5 6t-30.5 -24l-3 -6q-11 -17 -30.5 -22.5t-37.5 4.5l-49 29l-50 28q-19 11 -24.5 30.5t5.5 38.5l4 6q11 17 30.5 22.5
t38.5 -4.5z" />
    <glyph glyph-name="Acircumflex" unicode="&#xc2;" 
d="M478 692q0 -21 14.5 -35.5t35.5 -14.5h7q21 0 35.5 -14.5t14.5 -35.5v-57v-107v-107v-107v-107v-57q0 -21 -14.5 -35.5t-35.5 -14.5h-7q-21 0 -35.5 14.5t-14.5 35.5v57v57q0 21 -14.5 35.5t-35.5 14.5h-57h-107h-57q-21 0 -35.5 -15t-14.5 -36v-57v-57
q0 -21 -14.5 -35.5t-35.5 -14.5h-7q-21 0 -35.5 14.5t-14.5 35.5v57v107v107v108v107v57q0 21 14.5 35.5t35.5 14.5h7q21 0 35.5 14.5t14.5 35.5v7q0 21 14.5 35.5t35.5 14.5h57h107h57q21 0 35.5 -14.5t14.5 -35.5v-7zM478 535v57q0 21 -14.5 35.5t-35.5 14.5h-57h-107h-57
q-21 0 -35.5 -14.5t-14.5 -35.5v-57v-107v-57q0 -21 14.5 -35.5t35.5 -14.5h57h107h57q21 0 35.5 14.5t14.5 35.5v57v107zM371 1012q0 -21 15 -35.5t35 -14.5h7q21 0 35.5 -15t14.5 -35v-7q0 -21 -14.5 -35.5t-35.5 -14.5h-7q-20 0 -35 14.5t-15 35.5v7q0 20 -14.5 35
t-35.5 15h-7q-20 0 -35 -15t-15 -35v-7q0 -21 -14.5 -35.5t-35.5 -14.5h-7q-20 0 -35 14.5t-15 35.5v7q0 20 15 35t35 15h7q21 0 35.5 14.5t14.5 35.5v7q0 20 15 35t35 15h7q21 0 35.5 -15t14.5 -35v-7v0z" />
  </font>
</defs>
</svg>
